<?xml version="1.0" encoding="UTF-8"?>
<svg width="960px" height="960px" viewBox="0 0 960 960" version="1.1" xmlns="http://www.w3.org/2000/svg" xmlns:xlink="http://www.w3.org/1999/xlink">
    <!-- Generator: Sketch 56.2 (81672) - https://sketch.com -->
    <title>Group 12</title>
    <desc>Created with Sketch.</desc>
    <g id="Designs-V2" stroke="none" stroke-width="1" fill="none" fill-rule="evenodd">
        <g id="Bit-Academy---Home" transform="translate(-240.000000, -1377.000000)">
            <g id="Group-12" transform="translate(240.000000, 1377.000000)">
                <circle id="Oval-Copy-254" fill="#FFFFFF" cx="14.5" cy="634.5" r="14.5"></circle>
                <circle id="Oval-Copy-256" fill="#FFFFFF" cx="14.5" cy="479.5" r="14.5"></circle>
                <circle id="Oval-Copy-255" fill="#FFFFFF" cx="14.5" cy="324.5" r="14.5"></circle>
                <circle id="Oval-Copy-256" fill="#FFFFFF" cx="169.5" cy="479.5" r="14.5"></circle>
                <circle id="Oval-Copy-256" fill="#FFFFFF" cx="324.5" cy="479.5" r="14.5"></circle>
                <circle id="Oval-Copy-256" fill="#FFFFFF" cx="479.5" cy="479.5" r="14.5"></circle>
                <circle id="Oval-Copy-256" fill="#FFFFFF" cx="634.5" cy="479.5" r="14.5"></circle>
                <circle id="Oval-Copy-255" fill="#FFFFFF" cx="634.5" cy="324.5" r="14.5"></circle>
                <circle id="Oval-Copy-253" fill="#FFFFFF" cx="789.5" cy="14.5" r="14.5"></circle>
                <circle id="Oval-Copy-256" fill="#FFFFFF" cx="789.5" cy="479.5" r="14.5"></circle>
                <circle id="Oval-Copy-258" fill="#FFFFFF" cx="789.5" cy="944.5" r="14.5"></circle>
                <circle id="Oval-Copy-255" fill="#FFFFFF" cx="789.5" cy="324.5" r="14.5"></circle>
                <circle id="Oval-Copy-257" fill="#FFFFFF" cx="789.5" cy="169.5" r="14.5"></circle>
                <circle id="Oval-Copy-253" fill="#FFFFFF" cx="944.5" cy="14.5" r="14.5"></circle>
                <circle id="Oval-Copy-257" fill="#FFFFFF" cx="944.5" cy="169.5" r="14.5"></circle>
                <rect id="Rectangle" fill="#20C6D7" x="0" y="310" width="30" height="30"></rect>
                <rect id="Rectangle-Copy-3" fill="#20C6D7" x="620" y="310" width="30" height="30"></rect>
                <rect id="Rectangle-Copy-4" fill="#20C6D7" x="774" y="154" width="30" height="30"></rect>
                <rect id="Rectangle-Copy-6" fill="#EE5764" x="774" y="930" width="30" height="30"></rect>
                <rect id="Rectangle-Copy-7" fill="#EE5764" x="930" y="930" width="30" height="30"></rect>
                <rect id="Rectangle-Copy-8" fill="#EE5764" x="930" y="0" width="30" height="30"></rect>
                <polyline id="Path-5" stroke="#20C6D7" stroke-width="4" points="945 169 791 169 635 325 15 325"></polyline>
                <polyline id="Path-6" stroke="#EE5764" stroke-width="4" points="789 945 945 945 945 15"></polyline>
                <rect id="Rectangle-Copy-5" fill="#20C6D7" x="930" y="154" width="30" height="30"></rect>
            </g>
        </g>
    </g>
</svg>