<?xml version="1.0" encoding="UTF-8"?>
<svg width="138px" height="138px" viewBox="0 0 138 138" version="1.1" xmlns="http://www.w3.org/2000/svg" xmlns:xlink="http://www.w3.org/1999/xlink">
    <!-- Generator: Sketch 56.2 (81672) - https://sketch.com -->
    <title>Group 13</title>
    <desc>Created with Sketch.</desc>
    <defs>
        <polygon id="path-1" points="0 68.5212015 64.5700014 68.5212015 64.5700014 0 0 0"></polygon>
    </defs>
    <g id="Designs-V2" stroke="none" stroke-width="1" fill="none" fill-rule="evenodd">
        <g id="Bit-Academy---Home" transform="translate(-240.000000, -3440.000000)">
            <g id="Group-8" transform="translate(240.000000, 3371.000000)">
                <g id="Group-13" transform="translate(0.000000, 69.000000)">
                    <circle id="Oval-Copy-3" fill-opacity="0.2" fill="#FFFFFF" cx="69" cy="69" r="69"></circle>
                    <g id="Group-17" transform="translate(37.000000, 35.000000)">
                        <path d="M17.9368204,9.70772021 C17.9368204,12.8779203 15.3672203,15.4475203 12.1992203,15.4475203 C9.0268202,15.4475203 6.45722014,12.8779203 6.45722014,9.70772021 C6.45722014,6.53972014 9.0268202,3.97012009 12.1992203,3.97012009 C15.3672203,3.97012009 17.9368204,6.53972014 17.9368204,9.70772021 Z" id="Stroke-1" stroke="#FFFFFF" stroke-width="2.20000005" stroke-linecap="round" stroke-linejoin="round"></path>
                        <path d="M58.1105813,9.70772021 C58.1105813,12.8779203 55.5409812,15.4475203 52.3729811,15.4475203 C49.2005811,15.4475203 46.630981,12.8779203 46.630981,9.70772021 C46.630981,6.53972014 49.2005811,3.97012009 52.3729811,3.97012009 C55.5409812,3.97012009 58.1105813,6.53972014 58.1105813,9.70772021 Z" id="Stroke-3" stroke="#FFFFFF" stroke-width="2.20000005" stroke-linecap="round" stroke-linejoin="round"></path>
                        <path d="M38.0505408,62.4753814 L39.4585409,44.334181 L40.5497409,44.334181 C42.3339409,44.334181 43.7133409,42.6203809 43.4933409,40.6799809 L41.5925409,24.0149805 C41.2207409,20.7589804 38.6951408,18.3169804 35.7031408,18.3169804 L32.0401407,18.3169804 L28.3749406,18.3169804 C25.3807406,18.3169804 22.8573405,20.7589804 22.4855405,24.0149805 L20.5847404,40.6799809 C20.3625404,42.6203809 21.7441405,44.334181 23.5283405,44.334181 L24.6195405,44.334181 L26.0385406,62.6337814" id="Stroke-5" stroke="#FFFFFF" stroke-width="2.20000005" stroke-linecap="round" stroke-linejoin="round"></path>
                        <path d="M37.7777408,6.83936015 C37.7777408,10.0073602 35.2081408,12.5769603 32.0401407,12.5769603 C28.8677406,12.5769603 26.2981406,10.0073602 26.2981406,6.83936015 C26.2981406,3.66916008 28.8677406,1.09956002 32.0401407,1.09956002 C35.2081408,1.09956002 37.7777408,3.66916008 37.7777408,6.83936015 Z" id="Stroke-7" stroke="#FFFFFF" stroke-width="2.20000005" stroke-linecap="round" stroke-linejoin="round"></path>
                        <path d="M17.1870604,21.3952205 C16.7206604,21.2720205 16.2410604,21.1862205 15.7394603,21.1862205 L12.1974603,21.1862205 L8.65546019,21.1862205 C5.76246012,21.1862205 3.31826007,23.3422205 2.95966006,26.2132206 L1.12266002,40.9180209 C0.90926002,42.6296209 2.24466005,44.143221 3.96946009,44.143221 L5.02546011,44.143221 L6.45766014,64.2314214 L17.9372604,64.2314214 L19.0416604,48.7720211" id="Stroke-9" stroke="#FFFFFF" stroke-width="2.20000005" stroke-linecap="round" stroke-linejoin="round"></path>
                        <path d="M45.505681,48.4462011 L46.632081,64.2312014 L58.1094813,64.2312014 L59.5460813,44.143001 L60.5976813,44.143001 C62.3268814,44.143001 63.6600814,42.6294009 63.4466814,40.9178009 L61.6074813,26.2152006 C61.2488813,23.3420005 58.8090813,21.1860005 55.9116812,21.1860005 L52.3718811,21.1860005 L48.8298811,21.1860005 C48.158881,21.1860005 47.518681,21.3136005 46.918081,21.5270005" id="Stroke-11" stroke="#FFFFFF" stroke-width="2.20000005" stroke-linecap="round" stroke-linejoin="round"></path>
                        <mask id="mask-2" fill="white">
                            <use xlink:href="#path-1"></use>
                        </mask>
                        <g id="Clip-14"></g>
                        <polygon id="Fill-13" fill="#61B988" mask="url(#mask-2)" points="25.1966005 68.5212015 27.9884006 68.5212015 27.9884006 65.7294014 25.1966005 65.7294014"></polygon>
                        <polygon id="Fill-15" fill="#61B988" mask="url(#mask-2)" points="30.5602007 68.5212015 33.3520007 68.5212015 33.3520007 65.7294014 30.5602007 65.7294014"></polygon>
                        <polygon id="Fill-16" fill="#61B988" mask="url(#mask-2)" points="35.9216008 68.5212015 38.7134008 68.5212015 38.7134008 65.7294014 35.9216008 65.7294014"></polygon>
                    </g>
                </g>
            </g>
        </g>
    </g>
</svg>