<?xml version="1.0" encoding="UTF-8"?>
<svg width="138px" height="138px" viewBox="0 0 138 138" version="1.1" xmlns="http://www.w3.org/2000/svg" xmlns:xlink="http://www.w3.org/1999/xlink">
    <!-- Generator: Sketch 56.2 (81672) - https://sketch.com -->
    <title>Group 14</title>
    <desc>Created with Sketch.</desc>
    <defs>
        <polygon id="path-1" points="-0.00061 0.1193 12.49649 0.1193 12.49649 12.61409 -0.00061 12.61409"></polygon>
        <polygon id="path-3" points="0.18944 0.1193 23.0807 0.1193 23.0807 36.00809 0.18944 36.00809"></polygon>
    </defs>
    <g id="Designs-V2" stroke="none" stroke-width="1" fill="none" fill-rule="evenodd">
        <g id="Bit-Academy---Home" transform="translate(-240.000000, -4062.000000)">
            <g id="Group-14" transform="translate(240.000000, 4062.000000)">
                <g id="Group-17" transform="translate(41.000000, 37.000000)">
                    <g id="Group-3" transform="translate(5.200000, 0.980280)">
                        <mask id="mask-2" fill="white">
                            <use xlink:href="#path-1"></use>
                        </mask>
                        <g id="Clip-2"></g>
                        <path d="M6.24899,2.21909 C3.96209,2.21909 2.09939,4.07969 2.09939,6.36659 C2.09939,8.65139 3.96209,10.51409 6.24899,10.51409 C8.53589,10.51409 10.39649,8.65139 10.39649,6.36659 C10.39649,4.07969 8.53589,2.21909 6.24899,2.21909 M6.24899,12.61409 C2.80289,12.61409 -0.00061,9.81059 -0.00061,6.36659 C-0.00061,2.92049 2.80289,0.11909 6.24899,0.11909 C9.69509,0.11909 12.49649,2.92049 12.49649,6.36659 C12.49649,9.81059 9.69509,12.61409 6.24899,12.61409" id="Fill-1" fill="#FFFFFF" mask="url(#mask-2)"></path>
                    </g>
                    <path d="M7.22652,60.87965 L15.67062,60.87965 L17.12172,41.23205 C17.16162,40.68395 17.61942,40.25975 18.16962,40.25975 L19.15662,40.25975 C19.58292,40.25975 19.98822,40.06865 20.29692,39.72425 C20.67072,39.30215 20.84922,38.71625 20.77992,38.11775 L19.05792,23.02295 C18.78282,20.61005 16.93902,18.79355 14.76762,18.79355 L8.12952,18.79355 C5.95812,18.79355 4.11432,20.61005 3.83922,23.02295 L2.11512,38.11775 C2.04582,38.71625 2.22432,39.30215 2.60022,39.72425 C2.90682,40.06865 3.31422,40.25975 3.74052,40.25975 L4.72752,40.25975 C5.27562,40.25975 5.73342,40.68395 5.77542,41.23205 L7.22652,60.87965 Z M16.64502,62.97965 L6.25002,62.97965 C5.69982,62.97965 5.24412,62.55545 5.20212,62.00735 L3.74052,42.35975 C2.70732,42.35975 1.74552,41.92085 1.03362,41.12285 C0.25872,40.25345 -0.10668,39.07115 0.02772,37.88045 L1.75182,22.78355 C2.14872,19.31225 4.88922,16.69355 8.12952,16.69355 L14.76762,16.69355 C18.00792,16.69355 20.74632,19.31225 21.14532,22.78355 L22.86732,37.88045 C23.00382,39.07115 22.63842,40.25345 21.86352,41.12285 C21.15162,41.92085 20.18982,42.35975 19.15662,42.35975 L19.14612,42.35975 L17.69292,62.00735 C17.65302,62.55545 17.19522,62.97965 16.64502,62.97965 L16.64502,62.97965 Z" id="Fill-4" fill="#FFFFFF"></path>
                    <path d="M50.43444,8.39624 C48.14754,8.39624 46.28694,10.25894 46.28694,12.54584 C46.28694,14.83064 48.14754,16.69334 50.43444,16.69334 C52.72134,16.69334 54.58404,14.83064 54.58404,12.54584 C54.58404,10.25894 52.72134,8.39624 50.43444,8.39624 M50.43444,18.79334 C46.98834,18.79334 44.18694,15.98984 44.18694,12.54584 C44.18694,9.09974 46.98834,6.29624 50.43444,6.29624 C53.88054,6.29624 56.68404,9.09974 56.68404,12.54584 C56.68404,15.98984 53.88054,18.79334 50.43444,18.79334" id="Fill-6" fill="#FFFFFF"></path>
                    <g id="Group-10" transform="translate(38.800000, 0.980280)">
                        <mask id="mask-4" fill="white">
                            <use xlink:href="#path-3"></use>
                        </mask>
                        <g id="Clip-9"></g>
                        <path d="M11.63444,2.21909 C6.48104,2.21909 2.28944,6.41069 2.28944,11.56409 C2.28944,15.62339 8.37524,27.14189 11.63444,32.86229 C14.89574,27.13979 20.98154,15.62339 20.98154,11.56409 C20.98154,6.41069 16.78784,2.21909 11.63444,2.21909 M11.63444,36.00809 L11.63444,36.00809 C11.26274,36.00809 10.91834,35.81069 10.72934,35.49149 C10.29884,34.75859 0.18944,17.52389 0.18944,11.56409 C0.18944,5.25359 5.32394,0.11909 11.63444,0.11909 C17.94704,0.11909 23.08154,5.25359 23.08154,11.56409 C23.08154,17.52389 12.97004,34.76069 12.53954,35.49149 C12.35054,35.81069 12.00614,36.00809 11.63444,36.00809" id="Fill-8" fill="#FFFFFF" mask="url(#mask-4)"></path>
                    </g>
                    <polygon id="Fill-11" fill="#20C6D7" points="22.84107 62.02814 21.04557 60.25784 22.93767 58.37834 24.62397 60.24524"></polygon>
                    <path d="M38.07846,38.90567 L37.46316,36.47387 L38.91636,36.01397 L40.16376,35.83547 L40.52076,38.33027 L39.27336,38.50877 L38.07846,38.90567 Z M34.33626,40.80197 L32.95866,38.69147 L34.92426,37.40627 L36.27246,39.47267 L34.33626,40.80197 Z M31.19256,44.29427 L29.22696,42.72137 L29.85486,41.71757 L30.58146,40.60877 L32.59536,42.09767 L31.83936,43.21277 L31.19256,44.29427 Z M29.52516,48.64127 L27.18996,47.71517 L27.67086,46.31867 L28.23576,45.19307 L30.48906,46.31867 L29.92626,47.44637 L29.52516,48.64127 Z M28.08036,53.17097 L25.67796,52.41287 L26.48436,49.98317 L28.87626,50.77907 L28.08036,53.17097 Z M26.17986,57.94847 L23.92656,56.82287 L24.48726,55.69517 L25.61496,56.26007 L24.48936,55.69307 L24.88836,54.49817 L27.22566,55.42427 L26.74476,56.82287 L26.17986,57.94847 Z" id="Fill-13" fill="#20C6D7"></path>
                    <polygon id="Fill-15" fill="#20C6D7" points="45.26235 38.05244 43.58445 37.98734 42.83895 37.93904 42.83895 35.39804 44.20185 35.33504 45.26235 35.53454"></polygon>
                </g>
                <circle id="Oval-Copy-2" fill-opacity="0.2" fill="#FFFFFF" cx="69" cy="69" r="69"></circle>
            </g>
        </g>
    </g>
</svg>