<?xml version="1.0" encoding="UTF-8"?>
<svg width="98px" height="97px" viewBox="0 0 98 97" version="1.1" xmlns="http://www.w3.org/2000/svg" xmlns:xlink="http://www.w3.org/1999/xlink">
    <!-- Generator: Sketch 56.2 (81672) - https://sketch.com -->
    <title>Group 17</title>
    <desc>Created with Sketch.</desc>
    <defs>
        <polygon id="path-1" points="0.171887427 0.543225897 82.778125 0.543225897 82.778125 26.124375 0.171887427 26.124375"></polygon>
        <path d="M25.590625,0.253125 C24.978125,0.278125 24.378125,0.596875 24.175,1.21875 L24.175,1.21875 L18.940625,17.328125 L2.003125,17.328125 C1.325,17.328125 0.725,17.76875 0.5125,18.4125 L0.5125,18.4125 C0.30625,19.053125 0.5375,19.759375 1.08125,20.15625 L1.08125,20.15625 L14.784375,30.115625 L9.55,46.225 C9.34375,46.86875 9.571875,47.571875 10.11875,47.96875 L10.11875,47.96875 C10.39375,48.16875 10.7125,48.26875 11.034375,48.26875 L11.034375,48.26875 C11.359375,48.26875 11.678125,48.16875 11.95625,47.96875 L11.95625,47.96875 L25.659375,38.0125 L39.3625,47.96875 C39.9125,48.36875 40.65,48.36875 41.2,47.96875 L41.2,47.96875 C41.746875,47.571875 41.975,46.86875 41.76875,46.225 L41.76875,46.225 L36.534375,30.115625 L50.2375,20.15625 C50.784375,19.759375 51.015625,19.053125 50.80625,18.4125 L50.80625,18.4125 C50.596875,17.76875 50,17.328125 49.321875,17.328125 L49.321875,17.328125 L32.378125,17.328125 L27.146875,1.21875 C26.94375,0.596875 26.34375,0.278125 25.73125,0.253125 L25.73125,0.253125 L25.590625,0.253125 Z M18.109375,30 C18.315625,29.35625 18.0875,28.65 17.540625,28.253125 L17.540625,28.253125 L6.8125,20.45625 L20.075,20.45625 C20.753125,20.45625 21.353125,20.01875 21.5625,19.375 L21.5625,19.375 L25.659375,6.759375 L29.759375,19.375 C29.96875,20.01875 30.56875,20.45625 31.246875,20.45625 L31.246875,20.45625 L44.5125,20.45625 L33.778125,28.253125 C33.23125,28.65 33.003125,29.35625 33.2125,30 L33.2125,30 L37.309375,42.6125 L26.58125,34.815625 C26.028125,34.421875 25.290625,34.421875 24.740625,34.815625 L24.740625,34.815625 L14.009375,42.6125 L18.109375,30 Z" id="path-3"></path>
        <linearGradient x1="-0.000857539718%" y1="50.0027075%" x2="99.998321%" y2="50.0027075%" id="linearGradient-5">
            <stop stop-color="#1FC6D6" offset="0%"></stop>
            <stop stop-color="#000462" offset="100%"></stop>
        </linearGradient>
    </defs>
    <g id="Designs-V2" stroke="none" stroke-width="1" fill="none" fill-rule="evenodd">
        <g id="Bit-Academy---Manifest" transform="translate(-242.000000, -436.000000)">
            <g id="Group-17" transform="translate(242.000000, 435.000000)">
                <g id="Group-8" transform="translate(0.000000, 49.745312)">
                    <path d="M14.195,39.9884375 L9.31375,39.9884375 C8.448125,39.9884375 7.748125,39.2884375 7.748125,38.4259375 C7.748125,37.5634375 8.448125,36.8634375 9.31375,36.8634375 L13.0575,36.8634375 C14.454375,32.4634375 19.67,15.6728125 20.70125,6.5478125 C18.029375,5.0446875 9.795,3.8884375 3.529375,3.4134375 L3.529375,16.1321875 C3.529375,16.9978125 2.829375,17.6946875 1.966875,17.6946875 C1.104375,17.6946875 0.404375,16.9978125 0.404375,16.1321875 L0.404375,1.7415625 C0.404375,1.3103125 0.5825,0.8978125 0.895,0.6009375 C1.2075,0.3103125 1.648125,0.1478125 2.0575,0.1821875 C5.016875,0.3571875 19.9575,1.3978125 23.42,4.6790625 C23.766875,5.0103125 23.945,5.4759375 23.90125,5.9509375 C22.9825,16.4915625 15.97625,38.0009375 15.6825,38.9103125 C15.47,39.5540625 14.87,39.9884375 14.195,39.9884375" id="Fill-1" fill="#FFFFFF"></path>
                    <g id="Group-5" transform="translate(14.500000, 21.875000)">
                        <mask id="mask-2" fill="white">
                            <use xlink:href="#path-1"></use>
                        </mask>
                        <g id="Clip-4"></g>
                        <path d="M40.0303125,26.124375 C37.4178125,26.124375 35.1021875,25.393125 31.7521875,24.124375 L1.2396875,13.955625 C0.4209375,13.68375 -0.0196875,12.79625 0.2521875,11.980625 C0.5271875,11.165 1.4178125,10.718125 2.2271875,10.99 L32.7990625,21.180625 C40.3240625,24.0275 41.2896875,24.0775 58.2053125,17.14 L78.9740625,7.699375 C76.6553125,4.499375 72.6303125,2.986875 68.6771875,3.97125 L53.0615625,7.874375 C52.2084375,8.074375 51.3740625,7.57125 51.1646875,6.736875 C50.9584375,5.899375 51.4678125,5.0525 52.3053125,4.84 L67.9209375,0.936875 C73.8303125,-0.54125 79.8834375,2.236875 82.6146875,7.699375 C82.8053125,8.0775 82.8303125,8.518125 82.6896875,8.918125 C82.5459375,9.318125 82.2490625,9.64625 81.8646875,9.818125 L59.4459375,20.00875 C48.8959375,24.336875 44.1084375,26.124375 40.0303125,26.124375" id="Fill-3" fill="#FFFFFF" mask="url(#mask-2)"></path>
                    </g>
                    <path d="M58.7296875,31.533125 C57.8234375,31.533125 56.9171875,31.4425 56.0296875,31.2675 L38.3453125,27.73 C37.4984375,27.56125 36.9484375,26.73625 37.1203125,25.8925 C37.2921875,25.0425 38.1421875,24.4925 38.9578125,24.664375 L56.6390625,28.201875 C58.1765625,28.508125 59.8015625,28.4675 61.3203125,28.089375 L65.6109375,27.014375 C65.4515625,22.82375 63.5140625,20.77375 58.6546875,19.56125 L22.0078125,11.4175 C21.1640625,11.23 20.6328125,10.395625 20.8203125,9.551875 C21.0078125,8.714375 21.8359375,8.183125 22.6859375,8.3675 L59.3703125,16.5175 C65.8671875,18.1425 68.7453125,21.551875 68.7453125,27.5925 L68.7453125,28.233125 C68.7453125,28.94875 68.2578125,29.576875 67.5609375,29.74875 L62.0765625,31.12375 C60.9890625,31.395625 59.8578125,31.533125 58.7296875,31.533125 L58.7296875,31.533125 Z" id="Fill-6" fill="#FFFFFF"></path>
                </g>
                <g id="Group-11" transform="translate(37.500000, 0.870312)">
                    <mask id="mask-4" fill="white">
                        <use xlink:href="#path-3"></use>
                    </mask>
                    <g id="Clip-10"></g>
                    <path d="M25.590625,0.253125 C24.978125,0.278125 24.378125,0.596875 24.175,1.21875 L24.175,1.21875 L18.940625,17.328125 L2.003125,17.328125 C1.325,17.328125 0.725,17.76875 0.5125,18.4125 L0.5125,18.4125 C0.30625,19.053125 0.5375,19.759375 1.08125,20.15625 L1.08125,20.15625 L14.784375,30.115625 L9.55,46.225 C9.34375,46.86875 9.571875,47.571875 10.11875,47.96875 L10.11875,47.96875 C10.39375,48.16875 10.7125,48.26875 11.034375,48.26875 L11.034375,48.26875 C11.359375,48.26875 11.678125,48.16875 11.95625,47.96875 L11.95625,47.96875 L25.659375,38.0125 L39.3625,47.96875 C39.9125,48.36875 40.65,48.36875 41.2,47.96875 L41.2,47.96875 C41.746875,47.571875 41.975,46.86875 41.76875,46.225 L41.76875,46.225 L36.534375,30.115625 L50.2375,20.15625 C50.784375,19.759375 51.015625,19.053125 50.80625,18.4125 L50.80625,18.4125 C50.596875,17.76875 50,17.328125 49.321875,17.328125 L49.321875,17.328125 L32.378125,17.328125 L27.146875,1.21875 C26.94375,0.596875 26.34375,0.278125 25.73125,0.253125 L25.73125,0.253125 L25.590625,0.253125 Z M18.109375,30 C18.315625,29.35625 18.0875,28.65 17.540625,28.253125 L17.540625,28.253125 L6.8125,20.45625 L20.075,20.45625 C20.753125,20.45625 21.353125,20.01875 21.5625,19.375 L21.5625,19.375 L25.659375,6.759375 L29.759375,19.375 C29.96875,20.01875 30.56875,20.45625 31.246875,20.45625 L31.246875,20.45625 L44.5125,20.45625 L33.778125,28.253125 C33.23125,28.65 33.003125,29.35625 33.2125,30 L33.2125,30 L37.309375,42.6125 L26.58125,34.815625 C26.028125,34.421875 25.290625,34.421875 24.740625,34.815625 L24.740625,34.815625 L14.009375,42.6125 L18.109375,30 Z" id="Fill-9" fill="url(#linearGradient-5)" mask="url(#mask-4)"></path>
                </g>
                <g id="Group-16" transform="translate(0.000000, 69.620312)" fill="#EE5764">
                    <polygon id="Fill-12" points="0 4.859375 3.965625 4.859375 3.965625 0.89375 0 0.89375"></polygon>
                    <polygon id="Fill-14" points="0 12.48125 3.965625 12.48125 3.965625 8.5125 0 8.5125"></polygon>
                    <polygon id="Fill-15" points="0 20.096875 3.965625 20.096875 3.965625 16.128125 0 16.128125"></polygon>
                </g>
            </g>
        </g>
    </g>
</svg>