<?xml version="1.0" encoding="UTF-8"?>
<svg width="138px" height="138px" viewBox="0 0 138 138" version="1.1" xmlns="http://www.w3.org/2000/svg" xmlns:xlink="http://www.w3.org/1999/xlink">
    <!-- Generator: Sketch 56.2 (81672) - https://sketch.com -->
    <title>Group 9</title>
    <desc>Created with Sketch.</desc>
    <g id="Designs-V2" stroke="none" stroke-width="1" fill="none" fill-rule="evenodd">
        <g id="Bit-Academy---Home" transform="translate(-566.000000, -3751.000000)">
            <g id="Group-9" transform="translate(566.000000, 3751.000000)">
                <circle id="Oval-Copy" fill-opacity="0.2" fill="#FFFFFF" cx="69" cy="69" r="69"></circle>
                <g id="Group-11" transform="translate(33.000000, 45.000000)">
                    <path d="M62.6095225,39.1298416 C62.6095225,43.4522417 50.695922,46.9562419 36.0007214,46.9562419 C21.3031208,46.9562419 9.39192037,43.4522417 9.39192037,39.1298416 C9.39192037,34.8074414 21.3031208,31.3034412 36.0007214,31.3034412 C50.695922,31.3034412 62.6095225,34.8074414 62.6095225,39.1298416 Z" id="Stroke-1" stroke="#FFFFFF" stroke-width="2.4000001" stroke-linecap="round" stroke-linejoin="round"></path>
                    <path d="M9.39240037,39.1298416 L5.46360022,15.5762406 C5.21400021,15.6170406 4.9596002,15.6530406 4.69560019,15.6530406 C2.10360008,15.6530406 0.00120000005,13.5506405 0.00120000005,10.9562404 C0.00120000005,8.36424033 2.10360008,6.26184025 4.69560019,6.26184025 C7.29000029,6.26184025 9.39240037,8.36424033 9.39240037,10.9562404 C9.39240037,11.8826405 9.11400036,12.7442405 8.64840034,13.4738405 L14.8812006,17.4386407 C18.8916008,19.9898408 24.178801,19.1426408 27.1908011,15.4634406 L33.0420013,8.31384033 C31.9884013,7.4522403 31.3044012,6.16104024 31.3044012,4.69464019 C31.3044012,2.10264008 33.4068013,0.00024000001 36.0012,0.00024000001 C38.5932015,0.00024000001 40.6956016,2.10264008 40.6956016,4.69464019 C40.6956016,6.16104024 40.0116016,7.4522403 38.9604015,8.31384033 L44.8092018,15.4634406 C47.8212019,19.1426408 53.1084021,19.9898408 57.1188023,17.4386407 L63.3492025,13.4738405 C62.8860025,12.7442405 62.6100025,11.8826405 62.6100025,10.9562404 C62.6100025,8.36424033 64.7124026,6.26184025 67.3044027,6.26184025 C69.8988028,6.26184025 72.0012,8.36424033 72.0012,10.9562404 C72.0012,13.5506405 69.8988028,15.6530406 67.3044027,15.6530406 C67.0428027,15.6530406 66.7860027,15.6170406 66.5364026,15.5762406 C66.5364026,15.5762406 64.1604025,15.0554406 63.3348025,13.4834405" id="Stroke-3" stroke="#FFFFFF" stroke-width="2.4000001" stroke-linecap="round" stroke-linejoin="round"></path>
                    <polygon id="Fill-5" fill="#EE5764" points="62.6049625 30.1368012 65.6073626 30.6384012 65.1057626 33.6432013 62.1009625 33.1416013"></polygon>
                    <polygon id="Fill-7" fill="#EE5764" points="63.5680825 24.366481 66.5704826 24.868081 66.0688826 27.8728811 63.0664825 27.3712811"></polygon>
                    <polygon id="Fill-9" fill="#EE5764" points="64.5314426 18.5961607 67.5362427 19.0977608 67.0322427 22.1001609 64.0298425 21.5985609"></polygon>
                </g>
            </g>
        </g>
    </g>
</svg>