<?xml version="1.0" encoding="UTF-8"?>
<svg width="109px" height="78px" viewBox="0 0 109 78" version="1.1" xmlns="http://www.w3.org/2000/svg" xmlns:xlink="http://www.w3.org/1999/xlink">
    <!-- Generator: Sketch 56.2 (81672) - https://sketch.com -->
    <title>Group 29</title>
    <desc>Created with Sketch.</desc>
    <defs>
        <path d="M0.622187513,1.63968754 C0.0893750019,2.42343755 0.285312506,3.49250008 1.06906252,4.03218759 L1.06906252,4.03218759 L28.5209381,22.876563 L1.11375002,40.4628134 C0.316250007,40.9784384 0.0859375019,42.0406259 0.594687513,42.8381259 L0.594687513,42.8381259 C0.92468752,43.3503134 1.47812503,43.6287509 2.04187504,43.6287509 L2.04187504,43.6287509 C2.35812505,43.6287509 2.68468756,43.5428134 2.97343756,43.3571884 L2.97343756,43.3571884 L32.5565632,24.368438 C33.0412507,24.0556255 33.3368757,23.5262505 33.3471882,22.9487505 L33.3471882,22.9487505 L33.3471882,22.897188 C33.3368757,22.3437505 33.0584382,21.8212505 32.6012507,21.5050005 L32.6012507,21.5050005 L3.01468757,1.19625003 C2.71562506,0.993437522 2.37875005,0.893750019 2.04187504,0.893750019 L2.04187504,0.893750019 C1.49531253,0.893750019 0.955625021,1.15500003 0.622187513,1.63968754" id="path-1"></path>
        <linearGradient x1="0.00387946073%" y1="50.0024075%" x2="99.9978089%" y2="50.0024075%" id="linearGradient-3">
            <stop stop-color="#000462" offset="0%"></stop>
            <stop stop-color="#1FC6D6" offset="100%"></stop>
        </linearGradient>
        <polygon id="path-4" points="0.0766562517 0.202812504 5.49071887 0.202812504 5.49071887 5.61893762 0.0766562517 5.61893762"></polygon>
        <polygon id="path-6" points="0.691906308 0.459218782 6.10940643 0.459218782 6.10940643 5.87500015 0.691906308 5.87500015"></polygon>
    </defs>
    <g id="Designs-V2" stroke="none" stroke-width="1" fill="none" fill-rule="evenodd">
        <g id="Bit-Academy---Manifest" transform="translate(-567.000000, -454.000000)">
            <g id="Group-29" transform="translate(567.000000, 454.000000)">
                <path d="M31.3005007,59.7509388 C30.9842507,59.7509388 30.6611257,59.6650013 30.3723757,59.4793763 L0.789250017,40.4906259 C0.304562507,40.1812509 0.00550000012,39.6484384 0.0017889527,39.0709384 C-0.00825000018,38.4968759 0.273625006,37.9537508 0.744562516,37.6271883 L30.3311257,17.3184379 C31.1183132,16.7821879 32.1873757,16.9815629 32.7201882,17.7618754 C33.2564382,18.5456254 33.0605007,19.6146879 32.2767507,20.150938 L4.8248751,38.9987509 L32.2320632,56.5850012 C33.0295632,57.1006263 33.2598757,58.1628138 32.7511257,58.9637513 C32.4211257,59.4725013 31.8676882,59.7509388 31.3005007,59.7509388" id="Fill-1" fill="#FFFFFF"></path>
                <g id="Group-5" transform="translate(75.625002, 16.122532)">
                    <mask id="mask-2" fill="white">
                        <use xlink:href="#path-1"></use>
                    </mask>
                    <g id="Clip-4"></g>
                    <path d="M0.622187513,1.63968754 C0.0893750019,2.42343755 0.285312506,3.49250008 1.06906252,4.03218759 L1.06906252,4.03218759 L28.5209381,22.876563 L1.11375002,40.4628134 C0.316250007,40.9784384 0.0859375019,42.0406259 0.594687513,42.8381259 L0.594687513,42.8381259 C0.92468752,43.3503134 1.47812503,43.6287509 2.04187504,43.6287509 L2.04187504,43.6287509 C2.35812505,43.6287509 2.68468756,43.5428134 2.97343756,43.3571884 L2.97343756,43.3571884 L32.5565632,24.368438 C33.0412507,24.0556255 33.3368757,23.5262505 33.3471882,22.9487505 L33.3471882,22.9487505 L33.3471882,22.897188 C33.3368757,22.3437505 33.0584382,21.8212505 32.6012507,21.5050005 L32.6012507,21.5050005 L3.01468757,1.19625003 C2.71562506,0.993437522 2.37875005,0.893750019 2.04187504,0.893750019 L2.04187504,0.893750019 C1.49531253,0.893750019 0.955625021,1.15500003 0.622187513,1.63968754" id="Fill-3" fill="url(#linearGradient-3)" mask="url(#mask-2)"></path>
                </g>
                <g id="Group-28" transform="translate(39.812501, 0.035031)">
                    <g id="Group-8" transform="translate(21.925001, 0.000000)">
                        <mask id="mask-5" fill="white">
                            <use xlink:href="#path-4"></use>
                        </mask>
                        <g id="Clip-7"></g>
                        <polygon id="Fill-6" fill="#EE5764" mask="url(#mask-5)" points="4.26009384 5.61893762 0.0766562517 4.3883126 1.31071878 0.201437504 5.49071887 1.43550003"></polygon>
                    </g>
                    <polygon id="Fill-9" fill="#EE5764" points="23.8183756 13.655469 19.6315005 12.424844 20.865563 8.24140643 25.0490006 9.47203146"></polygon>
                    <polygon id="Fill-11" fill="#EE5764" points="21.448563 21.6950942 17.2651254 20.4644692 18.4991879 16.2775941 22.6826255 17.5116566"></polygon>
                    <polygon id="Fill-13" fill="#EE5764" points="19.0818442 29.7316256 14.8984066 28.5010006 16.1324691 24.317563 20.3124692 25.5481881"></polygon>
                    <polygon id="Fill-15" fill="#EE5764" points="16.7151254 37.7715946 12.5316878 36.5409695 13.7657503 32.3540945 17.9457504 33.588157"></polygon>
                    <polygon id="Fill-17" fill="#EE5764" points="14.3487504 45.8115635 10.1618753 44.577501 11.3959378 40.3940634 15.5793754 41.6246884"></polygon>
                    <polygon id="Fill-19" fill="#EE5764" points="11.9785941 53.8477512 7.79515646 52.6171261 9.02921899 48.4336885 13.2126566 49.6643136"></polygon>
                    <polygon id="Fill-21" fill="#EE5764" points="9.61187525 61.8877201 5.42843766 60.6536576 6.66250019 56.47022 10.8425003 57.700845"></polygon>
                    <polygon id="Fill-23" fill="#EE5764" points="7.24515645 69.9242515 3.06171886 68.6936265 4.29578139 64.5101889 8.47578148 65.7408139"></polygon>
                    <g id="Group-27" transform="translate(0.000000, 72.087502)">
                        <mask id="mask-7" fill="white">
                            <use xlink:href="#path-6"></use>
                        </mask>
                        <g id="Clip-26"></g>
                        <polygon id="Fill-25" fill="#EE5764" mask="url(#mask-7)" points="4.8787814 5.8767189 0.691906308 4.64265637 1.92596884 0.459218782 6.10940643 1.68984381"></polygon>
                    </g>
                </g>
            </g>
        </g>
    </g>
</svg>