<?xml version="1.0" encoding="UTF-8"?>
<svg width="959px" height="186px" viewBox="0 0 959 186" version="1.1" xmlns="http://www.w3.org/2000/svg" xmlns:xlink="http://www.w3.org/1999/xlink">
    <!-- Generator: Sketch 56.2 (81672) - https://sketch.com -->
    <title>Group 7</title>
    <desc>Created with Sketch.</desc>
    <g id="Designs-V2" stroke="none" stroke-width="1" fill="none" fill-rule="evenodd">
        <g id="Bit-Academy---Manifest" transform="translate(-240.000000, -1177.000000)">
            <g id="Group-7" transform="translate(240.000000, 1177.000000)">
                <rect id="Rectangle" fill="#20C6D7" x="309" y="156" width="30" height="30"></rect>
                <rect id="Rectangle-Copy-3" fill="#20C6D7" x="155" y="156" width="30" height="30"></rect>
                <rect id="Rectangle-Copy-8" fill="#20C6D7" x="0" y="156" width="30" height="30"></rect>
                <circle id="Oval-Copy-256" fill="#FFFFFF" cx="14.5" cy="15.5" r="14.5"></circle>
                <circle id="Oval-Copy-256" fill="#FFFFFF" cx="169.5" cy="15.5" r="14.5"></circle>
                <circle id="Oval-Copy-256" fill="#FFFFFF" cx="324.5" cy="15.5" r="14.5"></circle>
                <circle id="Oval-Copy-256" fill="#FFFFFF" cx="479.5" cy="15.5" r="14.5"></circle>
                <circle id="Oval-Copy-277" fill="#FFFFFF" cx="479.5" cy="170.5" r="14.5"></circle>
                <circle id="Oval-Copy-256" fill="#FFFFFF" cx="634.5" cy="15.5" r="14.5"></circle>
                <circle id="Oval-Copy-278" fill="#FFFFFF" cx="634.5" cy="170.5" r="14.5"></circle>
                <circle id="Oval-Copy-256" fill="#FFFFFF" cx="789.5" cy="15.5" r="14.5"></circle>
                <circle id="Oval-Copy-279" fill="#FFFFFF" cx="789.5" cy="170.5" r="14.5"></circle>
                <circle id="Oval-Copy-260" fill="#FFFFFF" cx="944.5" cy="15.5" r="14.5"></circle>
                <circle id="Oval-Copy-280" fill="#FFFFFF" cx="944.5" cy="170.5" r="14.5"></circle>
                <rect id="Rectangle-Copy-19" fill="#57BE8E" x="620" y="0" width="30" height="30"></rect>
                <rect id="Rectangle-Copy-20" fill="#57BE8E" x="774" y="0" width="30" height="30"></rect>
                <rect id="Rectangle-Copy-21" fill="#57BE8E" x="929" y="156" width="30" height="30"></rect>
                <polyline id="Path-40" stroke="#57BE8E" stroke-width="4" points="635 15 789 15 945 171"></polyline>
            </g>
        </g>
    </g>
</svg>