<?xml version="1.0" encoding="utf-8"?>
<!-- Generator: Adobe Illustrator 23.0.2, SVG Export Plug-In . SVG Version: 6.00 Build 0)  -->
<svg version="1.1" id="Capa_1" xmlns="http://www.w3.org/2000/svg" xmlns:xlink="http://www.w3.org/1999/xlink" x="0px" y="0px"
	 viewBox="0 0 1107 1299" style="enable-background:new 0 0 1107 1299;" xml:space="preserve">
<style type="text/css">
	.st0{fill:none;stroke:#6669A1;stroke-width:3;}
	.st1{fill-rule:evenodd;clip-rule:evenodd;fill:#D8D8D8;}
	.st2{fill-rule:evenodd;clip-rule:evenodd;fill:#000563;stroke:#FFFFFF;stroke-width:2.814;}
	.st3{fill-rule:evenodd;clip-rule:evenodd;fill:#20C6D7;}
	.st4{enable-background:new    ;}
	.st5{fill:#FFFFFF;}
</style>
<title>Group</title>
<desc>Created with Sketch.</desc>
<g id="Designs-V2">
	<g id="Bit-Academy---Programma" transform="translate(-167.000000, -622.000000)">
		<g transform="translate(167.000000, 622.000000)">
			<path id="Path-11" class="st0" d="M329,351h224"/>
			<path id="Path-14" class="st0" d="M776,351H553"/>
			<polyline id="Path-11-Copy" class="st0" points="329,825 329,983.5 553,983.5 			"/>
			<polyline id="Path-14-Copy" class="st0" points="776,825 776,983.5 553,983.5 			"/>
			<circle id="Oval" class="st1" cx="553" cy="35" r="35"/>
			<polyline id="Path-7" class="st0" points="553,35 1000,35 1000,193 			"/>
			<polyline id="Path-8" class="st0" points="106,193 106,35 553,35 			"/>
			<path id="Path-9" class="st0" d="M553,35v158"/>
			<polyline id="Path-10" class="st0" points="553,193 329,193 329,351 			"/>
			<path id="Path-12" class="st0" d="M553,351v158"/>
			<polyline id="Path-13" class="st0" points="776,351 1000,351 1000,193 			"/>
			<path id="Path-15" class="st0" d="M106,193v474"/>
			<polyline id="Path-16" class="st0" points="330,815 106,815 106,657 			"/>
			<path id="Path-17" class="st0" d="M553,509H106"/>
			<path id="Path-18" class="st0" d="M553,509v158"/>
			<polyline id="Path-19" class="st0" points="553,509 1000,509 1000,667 			"/>
			<polyline id="Path-20" class="st0" points="776,818 1000,818 1000,667 			"/>
			<path id="Path-23" class="st0" d="M553,667v316"/>
			<path id="Path-25" class="st0" d="M553,983v158"/>
			<path id="Path-26" class="st0" d="M553,1141v158"/>
			<polyline id="Path-37" class="st0" points="96,146 106,156 116,146 			"/>
			<polyline id="Path-37-Copy" class="st0" points="543,146 553,156 563,146 			"/>
			<polyline id="Path-37-Copy-4" class="st0" points="319,304 329,314 339,304 			"/>
			<polyline id="Path-37-Copy-2" class="st0" points="990,146 1000,156 1010,146 			"/>
			<polyline id="Path-37-Copy-5" class="st0" points="823,341 813,351 823,361 			"/>
			<g id="Cirkel" transform="translate(521.000000, 3.000000)">
				
					<g id="Group" transform="translate(32.000000, 32.000000) rotate(-45.000000) translate(-32.000000, -32.000000) translate(-3.000000, -3.000000)">
					<circle id="Oval-Copy-2" class="st2" cx="35" cy="35" r="33.6"/>
					<g id="Mask" transform="translate(35.000000, 35.000000) rotate(90.000000) translate(-35.000000, -35.000000) ">
					</g>
				</g>
			</g>
			
				<g transform="translate(107.000000, 193.000000) rotate(-45.000000) translate(-107.000000, -193.000000) translate(72.000000, 158.000000)">
				
					<g transform="translate(35.000000, 35.000000) rotate(-45.000000) translate(-35.000000, -35.000000) translate(-3.281250, -3.281250)">
					<circle class="st2" cx="38.3" cy="38.3" r="33.6"/>
					<g transform="translate(38.281250, 38.281250) rotate(90.000000) translate(-38.281250, -38.281250) ">
					</g>
				</g>
			</g>
			
				<g transform="translate(107.000000, 667.497475) rotate(-45.000000) translate(-107.000000, -667.497475) translate(72.000000, 632.497475)">
				
					<g transform="translate(35.000000, 35.000000) rotate(-45.000000) translate(-35.000000, -35.000000) translate(-3.281250, -3.281250)">
					<circle class="st2" cx="38.3" cy="38.3" r="33.6"/>
					<g transform="translate(38.281250, 38.281250) rotate(90.000000) translate(-38.281250, -38.281250) ">
					</g>
				</g>
			</g>
			
				<g transform="translate(553.000000, 193.000000) rotate(-45.000000) translate(-553.000000, -193.000000) translate(518.000000, 158.000000)">
				
					<g transform="translate(35.000000, 35.000000) rotate(-45.000000) translate(-35.000000, -35.000000) translate(-3.281250, -3.281250)">
					<circle class="st2" cx="38.3" cy="38.3" r="33.6"/>
					<g transform="translate(38.281250, 38.281250) rotate(90.000000) translate(-38.281250, -38.281250) ">
					</g>
				</g>
			</g>
			
				<g transform="translate(553.000000, 667.497475) rotate(-45.000000) translate(-553.000000, -667.497475) translate(518.000000, 632.497475)">
				
					<g transform="translate(35.000000, 35.000000) rotate(-45.000000) translate(-35.000000, -35.000000) translate(-3.281250, -3.281250)">
					<circle class="st2" cx="38.3" cy="38.3" r="33.6"/>
					<g transform="translate(38.281250, 38.281250) rotate(90.000000) translate(-38.281250, -38.281250) ">
					</g>
				</g>
			</g>
			
				<g transform="translate(553.000000, 983.000000) rotate(-45.000000) translate(-553.000000, -983.000000) translate(518.000000, 948.000000)">
				
					<g transform="translate(35.000000, 35.000000) rotate(-45.000000) translate(-35.000000, -35.000000) translate(-3.281250, -3.281250)">
					<circle class="st2" cx="38.3" cy="38.3" r="33.6"/>
					<g transform="translate(38.281250, 38.281250) rotate(90.000000) translate(-38.281250, -38.281250) ">
					</g>
				</g>
			</g>
			
				<g transform="translate(553.000000, 1133.000000) rotate(-45.000000) translate(-553.000000, -1133.000000) translate(518.000000, 1098.000000)">
				
					<g transform="translate(35.000000, 35.000000) rotate(-45.000000) translate(-35.000000, -35.000000) translate(-3.281250, -3.281250)">
					<circle class="st2" cx="38.3" cy="38.3" r="33.6"/>
					<g transform="translate(38.281250, 38.281250) rotate(90.000000) translate(-38.281250, -38.281250) ">
					</g>
				</g>
			</g>
			
				<g transform="translate(1000.000000, 193.000000) rotate(-45.000000) translate(-1000.000000, -193.000000) translate(965.000000, 158.000000)">
				
					<g transform="translate(35.000000, 35.000000) rotate(-45.000000) translate(-35.000000, -35.000000) translate(-3.281250, -3.281250)">
					<circle class="st2" cx="38.3" cy="38.3" r="33.6"/>
					<g transform="translate(38.281250, 38.281250) rotate(90.000000) translate(-38.281250, -38.281250) ">
					</g>
				</g>
			</g>
			
				<g transform="translate(1000.000000, 667.497475) rotate(-45.000000) translate(-1000.000000, -667.497475) translate(965.000000, 632.497475)">
				
					<g transform="translate(35.000000, 35.000000) rotate(-45.000000) translate(-35.000000, -35.000000) translate(-3.281250, -3.281250)">
					<circle class="st2" cx="38.3" cy="38.3" r="33.6"/>
					<g transform="translate(38.281250, 38.281250) rotate(90.000000) translate(-38.281250, -38.281250) ">
					</g>
				</g>
			</g>
			
				<g transform="translate(329.000000, 350.000000) rotate(-45.000000) translate(-329.000000, -350.000000) translate(294.000000, 315.000000)">
				
					<g transform="translate(35.000000, 35.000000) rotate(-45.000000) translate(-35.000000, -35.000000) translate(-3.281250, -3.281250)">
					<circle class="st2" cx="38.3" cy="38.3" r="33.6"/>
					<g transform="translate(38.281250, 38.281250) rotate(90.000000) translate(-38.281250, -38.281250) ">
					</g>
				</g>
			</g>
			
				<g transform="translate(329.000000, 816.497475) rotate(-45.000000) translate(-329.000000, -816.497475) translate(294.000000, 781.497475)">
				
					<g transform="translate(35.000000, 35.000000) rotate(-45.000000) translate(-35.000000, -35.000000) translate(-3.281250, -3.281250)">
					<circle class="st2" cx="38.3" cy="38.3" r="33.6"/>
					<g transform="translate(38.281250, 38.281250) rotate(90.000000) translate(-38.281250, -38.281250) ">
					</g>
				</g>
			</g>
			
				<g transform="translate(777.000000, 350.000000) rotate(-45.000000) translate(-777.000000, -350.000000) translate(742.000000, 315.000000)">
				
					<g transform="translate(35.000000, 35.000000) rotate(-45.000000) translate(-35.000000, -35.000000) translate(-3.281250, -3.281250)">
					<circle class="st2" cx="38.3" cy="38.3" r="33.6"/>
					<g transform="translate(38.281250, 38.281250) rotate(90.000000) translate(-38.281250, -38.281250) ">
					</g>
				</g>
			</g>
			
				<g transform="translate(777.000000, 816.497475) rotate(-45.000000) translate(-777.000000, -816.497475) translate(742.000000, 781.497475)">
				
					<g transform="translate(35.000000, 35.000000) rotate(-45.000000) translate(-35.000000, -35.000000) translate(-3.281250, -3.281250)">
					<circle class="st2" cx="38.3" cy="38.3" r="33.6"/>
					<g transform="translate(38.281250, 38.281250) rotate(90.000000) translate(-38.281250, -38.281250) ">
					</g>
				</g>
			</g>
			
				<g transform="translate(553.000000, 509.000000) rotate(-45.000000) translate(-553.000000, -509.000000) translate(518.000000, 474.000000)">
				
					<g transform="translate(35.000000, 35.000000) rotate(-45.000000) translate(-35.000000, -35.000000) translate(-3.281250, -3.281250)">
					<circle class="st2" cx="38.3" cy="38.3" r="33.6"/>
					<g transform="translate(38.281250, 38.281250) rotate(90.000000) translate(-38.281250, -38.281250) ">
					</g>
				</g>
			</g>
			<polyline id="Path-37-Copy-8" class="st0" points="118,499 108,509 118,519 			"/>
			<polyline id="Path-37-Copy-44" class="st0" points="506,973 516,983 506,993 			"/>
			<polyline id="Path-37-Copy-45" class="st0" points="600,973 590,983 600,993 			"/>
			<polyline id="Path-37-Copy-9" class="st0" points="96,621 106,631 116,621 			"/>
			<polyline id="Path-37-Copy-12" class="st0" points="282,825 292,815 282,805 			"/>
			<polyline id="Path-37-Copy-7" class="st0" points="543,463 553,473 563,463 			"/>
			<polyline id="Path-37-Copy-10" class="st0" points="543,621 553,631 563,621 			"/>
			<polyline id="Path-37-Copy-16" class="st0" points="543,936 553,946 563,936 			"/>
			<polyline id="Path-37-Copy-19" class="st0" points="543,1086 553,1096 563,1086 			"/>
			<polyline id="Path-37-Copy-11" class="st0" points="990,621 1000,631 1010,621 			"/>
			<polyline id="Path-37-Copy-14" class="st0" points="824,808 814,818 824,828 			"/>
			<g id="Label" transform="translate(447.000000, 88.000000)">
				<g id="Group-3">
					<path id="Rectangle-Copy-9" class="st3" d="M6,0h201c3.3,0,6,2.7,6,6v24c0,3.3-2.7,6-6,6H6c-3.3,0-6-2.7-6-6V6C0,2.7,2.7,0,6,0
						z"/>
					<g class="st4">
						<path class="st5" d="M34.9,22.1V10.9h3.4c1.6,0,3,0.5,4,1.5c1.1,1,1.6,2.4,1.6,4.1c0,1.8-0.5,3.1-1.6,4.1
							c-1.1,1-2.4,1.5-4,1.5H34.9z M36.6,20.7h1.7c1.1,0,2.1-0.3,2.9-1s1.2-1.7,1.2-3.1s-0.4-2.4-1.2-3.1s-1.7-1-2.9-1h-1.7V20.7z"
							/>
						<path class="st5" d="M51.4,19.5h1.6c-0.1,0.8-0.6,1.5-1.2,2c-0.7,0.5-1.5,0.8-2.5,0.8c-1.2,0-2.2-0.4-2.9-1.2s-1.1-1.8-1.1-3
							c0-1.2,0.3-2.2,1-2.9c0.7-0.8,1.6-1.2,2.8-1.2c1.2,0,2.1,0.4,2.8,1.1c0.7,0.7,1,1.6,1,2.7c0,0.2,0,0.4,0,0.6h-6.2
							c0.1,0.8,0.3,1.4,0.8,1.9c0.5,0.5,1,0.7,1.7,0.7C50.4,20.9,51.2,20.5,51.4,19.5z M49.1,15.2c-1.3,0-2.1,0.7-2.3,2h4.6
							c-0.1-0.6-0.3-1.1-0.7-1.5S49.7,15.2,49.1,15.2z"/>
						<path class="st5" d="M56.3,22.1l-3-8.1H55l2.1,6.1l2.1-6.1h1.6l-2.9,8.1H56.3z"/>
						<path class="st5" d="M67.4,19.5H69c-0.1,0.8-0.6,1.5-1.2,2c-0.7,0.5-1.5,0.8-2.5,0.8c-1.2,0-2.2-0.4-2.9-1.2s-1.1-1.8-1.1-3
							c0-1.2,0.3-2.2,1-2.9c0.7-0.8,1.6-1.2,2.8-1.2c1.2,0,2.1,0.4,2.8,1.1c0.7,0.7,1,1.6,1,2.7c0,0.2,0,0.4,0,0.6h-6.2
							c0.1,0.8,0.3,1.4,0.8,1.9c0.5,0.5,1,0.7,1.7,0.7C66.5,20.9,67.2,20.5,67.4,19.5z M65.1,15.2c-1.3,0-2.1,0.7-2.3,2h4.6
							c-0.1-0.6-0.3-1.1-0.7-1.5S65.8,15.2,65.1,15.2z"/>
						<path class="st5" d="M70.6,22.1V10.7h1.6v11.4H70.6z"/>
						<path class="st5" d="M80.9,21.1c-0.8,0.8-1.8,1.2-3,1.2c-1.2,0-2.2-0.4-3-1.2c-0.8-0.8-1.2-1.8-1.2-3c0-1.2,0.4-2.2,1.2-3
							c0.8-0.8,1.8-1.2,3-1.2c1.2,0,2.2,0.4,3,1.2c0.8,0.8,1.2,1.8,1.2,3C82,19.3,81.6,20.3,80.9,21.1z M77.9,20.9
							c0.8,0,1.4-0.3,1.8-0.8c0.5-0.5,0.7-1.2,0.7-2s-0.2-1.5-0.7-2c-0.5-0.5-1.1-0.8-1.8-0.8c-0.8,0-1.4,0.3-1.9,0.8
							c-0.5,0.5-0.7,1.2-0.7,2s0.2,1.5,0.7,2C76.5,20.7,77.1,20.9,77.9,20.9z"/>
						<path class="st5" d="M83.6,25.4V14.1h1.6v1.2c0.2-0.4,0.6-0.7,1.1-1c0.5-0.2,1-0.4,1.5-0.4c1.2,0,2.1,0.4,2.8,1.2s1,1.8,1,3
							s-0.3,2.2-1,3c-0.7,0.8-1.7,1.2-2.9,1.2c-0.5,0-1-0.1-1.5-0.3c-0.4-0.2-0.8-0.5-1-0.9v4.4H83.6z M85.7,20.1
							c0.5,0.5,1.1,0.8,1.8,0.8s1.3-0.3,1.8-0.8s0.7-1.2,0.7-2c0-0.8-0.2-1.5-0.7-2c-0.5-0.5-1.1-0.8-1.8-0.8s-1.3,0.3-1.8,0.8
							c-0.5,0.5-0.7,1.2-0.7,2C85.1,19,85.3,19.6,85.7,20.1z"/>
						<path class="st5" d="M93.1,22.1v-8.1h1.6v1.4c0.2-0.5,0.5-0.8,0.9-1.1C96,14.1,96.5,14,97,14c0.7,0,1.2,0.1,1.7,0.4
							s0.8,0.7,0.9,1.2c0.2-0.5,0.5-0.9,1-1.2c0.5-0.3,1-0.5,1.6-0.5c0.9,0,1.6,0.3,2.1,0.8c0.5,0.6,0.8,1.3,0.8,2.2v5.1h-1.6v-4.7
							c0-0.7-0.2-1.2-0.5-1.6c-0.3-0.4-0.7-0.6-1.3-0.6c-0.6,0-1.1,0.2-1.4,0.6s-0.5,0.9-0.5,1.6v4.7h-1.6v-4.7
							c0-0.7-0.2-1.2-0.5-1.6c-0.3-0.4-0.7-0.6-1.2-0.6c-0.6,0-1.1,0.2-1.4,0.6c-0.4,0.4-0.5,0.9-0.5,1.6v4.7H93.1z"/>
						<path class="st5" d="M112.9,19.5h1.6c-0.1,0.8-0.6,1.5-1.2,2c-0.7,0.5-1.5,0.8-2.5,0.8c-1.2,0-2.2-0.4-2.9-1.2
							c-0.7-0.8-1.1-1.8-1.1-3c0-1.2,0.3-2.2,1-2.9c0.7-0.8,1.6-1.2,2.8-1.2c1.2,0,2.1,0.4,2.8,1.1s1,1.6,1,2.7c0,0.2,0,0.4,0,0.6
							h-6.2c0.1,0.8,0.3,1.4,0.8,1.9c0.5,0.5,1,0.7,1.7,0.7C111.9,20.9,112.6,20.5,112.9,19.5z M110.5,15.2c-1.3,0-2.1,0.7-2.3,2
							h4.6c-0.1-0.6-0.3-1.1-0.7-1.5S111.2,15.2,110.5,15.2z"/>
						<path class="st5" d="M115.9,22.1v-8.1h1.6v1.4c0.2-0.5,0.5-0.9,1-1.2s1-0.4,1.6-0.4c0.9,0,1.6,0.3,2.2,0.9
							c0.5,0.6,0.8,1.4,0.8,2.3v5h-1.6v-4.7c0-0.6-0.2-1.2-0.5-1.6s-0.8-0.6-1.4-0.6c-0.6,0-1.1,0.2-1.6,0.7c-0.4,0.5-0.6,1-0.6,1.7
							v4.4H115.9z"/>
						<path class="st5" d="M125.7,11.6h1.6v2.5h2.4v1.3h-2.4v4c0,0.4,0.1,0.8,0.3,1c0.2,0.2,0.5,0.4,0.9,0.4h1.1v1.3h-1.3
							c-0.8,0-1.5-0.2-2-0.7c-0.5-0.5-0.7-1.1-0.7-1.9v-4.1h-1.6v-1.3h1.6V11.6z"/>
						<path class="st5" d="M134.5,17.7v-1.3h6v1.3H134.5z"/>
						<path class="st5" d="M149.7,22.3c-1.3,0-2.3-0.3-3-1s-1.2-1.6-1.2-2.8h1.6c0.1,0.7,0.3,1.3,0.8,1.7c0.5,0.4,1.1,0.6,1.9,0.6
							c0.7,0,1.3-0.1,1.8-0.4c0.4-0.3,0.7-0.7,0.7-1.3c0-0.4-0.2-0.8-0.5-1c-0.3-0.3-0.7-0.5-1.2-0.6c-0.5-0.1-1-0.3-1.5-0.4
							c-0.5-0.2-1.1-0.4-1.5-0.6c-0.5-0.2-0.9-0.5-1.2-1s-0.5-1-0.5-1.6c0-0.9,0.4-1.6,1.1-2.2c0.7-0.6,1.6-0.8,2.8-0.8
							c1.1,0,2.1,0.3,2.8,0.9s1.1,1.4,1.2,2.5H152c-0.1-0.6-0.3-1-0.7-1.4c-0.4-0.3-1-0.5-1.7-0.5c-0.7,0-1.2,0.1-1.6,0.4
							c-0.4,0.3-0.6,0.7-0.6,1.1c0,0.4,0.1,0.7,0.4,0.9c0.2,0.2,0.5,0.4,0.9,0.6s0.8,0.2,1.2,0.4c0.5,0.1,0.9,0.2,1.4,0.4
							s0.9,0.3,1.2,0.6c0.4,0.2,0.7,0.5,0.9,0.9c0.2,0.4,0.4,0.9,0.4,1.5c0,1-0.4,1.8-1.1,2.4C151.9,22,150.9,22.3,149.7,22.3z"/>
						<path class="st5" d="M156.3,11.6h1.6v2.5h2.4v1.3h-2.4v4c0,0.4,0.1,0.8,0.3,1c0.2,0.2,0.5,0.4,0.9,0.4h1.1v1.3h-1.3
							c-0.8,0-1.5-0.2-2-0.7c-0.5-0.5-0.7-1.1-0.7-1.9v-4.1h-1.6v-1.3h1.6V11.6z"/>
						<path class="st5" d="M164.5,14c1,0,1.9,0.3,2.5,0.8c0.6,0.5,1,1.3,1,2.2v5.2h-1.6v-1.3c-0.2,0.4-0.5,0.8-1,1
							c-0.5,0.3-1,0.4-1.6,0.4c-0.8,0-1.5-0.2-2-0.7c-0.5-0.4-0.8-1-0.8-1.8c0-0.8,0.3-1.4,0.8-1.8s1.3-0.7,2.3-0.7h1.7
							c0.4,0,0.5-0.2,0.5-0.5c0-0.5-0.2-0.9-0.5-1.2s-0.8-0.4-1.4-0.4c-0.5,0-1,0.1-1.4,0.4s-0.6,0.7-0.6,1.1H161
							c0.1-0.8,0.4-1.5,1.1-2C162.7,14.2,163.5,14,164.5,14z M164,21c0.7,0,1.3-0.2,1.7-0.7c0.4-0.4,0.6-1,0.6-1.8v-0.2h-2.1
							c-0.5,0-1,0.1-1.3,0.4c-0.3,0.2-0.5,0.6-0.5,1c0,0.4,0.1,0.7,0.4,0.9S163.6,21,164,21z"/>
						<path class="st5" d="M174.2,15.4h-1c-1.3,0-2,1-2,3.1v3.6h-1.6v-8.1h1.6v1.6c0.2-0.5,0.4-0.9,0.8-1.2c0.3-0.2,0.8-0.4,1.4-0.4
							h0.8V15.4z M174.9,11.6h1.6v2.5h2.4v1.3h-2.4v4c0,0.4,0.1,0.8,0.3,1c0.2,0.2,0.5,0.4,0.9,0.4h1.1v1.3h-1.3
							c-0.8,0-1.5-0.2-2-0.7c-0.5-0.5-0.7-1.1-0.7-1.9V11.6z"/>
					</g>
				</g>
			</g>
			<g transform="translate(447.000000, 246.000000)">
				<g>
					<path class="st3" d="M6,0h201c3.3,0,6,2.7,6,6v24c0,3.3-2.7,6-6,6H6c-3.3,0-6-2.7-6-6V6C0,2.7,2.7,0,6,0z"/>
					<g class="st4">
						<path class="st5" d="M52.7,22.1V10.9H57c1.1,0,2,0.3,2.6,0.9c0.7,0.6,1,1.4,1,2.4c0,1-0.3,1.8-1,2.4c-0.7,0.6-1.5,0.9-2.6,0.9
							h-2.7v4.4H52.7z M54.3,16.3h2.6c0.7,0,1.2-0.2,1.5-0.5c0.3-0.4,0.5-0.8,0.5-1.4s-0.2-1-0.5-1.4c-0.3-0.4-0.8-0.5-1.5-0.5h-2.6
							V16.3z"/>
						<path class="st5" d="M69.3,10.9H71v11.2h-1.7v-5h-5.6v5h-1.7V10.9h1.7v4.7h5.6V10.9z"/>
						<path class="st5" d="M73.3,22.1V10.9h4.3c1.1,0,2,0.3,2.6,0.9c0.7,0.6,1,1.4,1,2.4c0,1-0.3,1.8-1,2.4
							c-0.7,0.6-1.5,0.9-2.6,0.9h-2.7v4.4H73.3z M74.9,16.3h2.6c0.7,0,1.2-0.2,1.5-0.5c0.3-0.4,0.5-0.8,0.5-1.4s-0.2-1-0.5-1.4
							c-0.3-0.4-0.8-0.5-1.5-0.5h-2.6V16.3z"/>
						<path class="st5" d="M86.1,17.7v-1.3h6v1.3H86.1z"/>
						<path class="st5" d="M97.7,22.1V10.9h4.1c1.1,0,1.9,0.3,2.5,0.8c0.6,0.5,0.9,1.2,0.9,2.1c0,0.5-0.1,0.9-0.4,1.3
							c-0.3,0.4-0.6,0.7-1,0.9c0.6,0.2,1.1,0.6,1.4,1c0.4,0.5,0.5,1.1,0.5,1.8c0,1-0.3,1.8-1,2.4c-0.7,0.6-1.6,0.9-2.8,0.9H97.7z
							 M99.3,15.5h2.4c1.3,0,1.9-0.5,1.9-1.6c0-1-0.6-1.6-1.9-1.6h-2.4V15.5z M99.3,20.7h2.5c1.6,0,2.3-0.6,2.3-1.9
							s-0.8-1.9-2.3-1.9h-2.5V20.7z"/>
						<path class="st5" d="M113.2,19.5h1.6c-0.1,0.8-0.6,1.5-1.2,2c-0.7,0.5-1.5,0.8-2.5,0.8c-1.2,0-2.2-0.4-2.9-1.2
							c-0.7-0.8-1.1-1.8-1.1-3c0-1.2,0.3-2.2,1-2.9c0.7-0.8,1.6-1.2,2.8-1.2c1.2,0,2.1,0.4,2.8,1.1s1,1.6,1,2.7c0,0.2,0,0.4,0,0.6
							h-6.2c0.1,0.8,0.3,1.4,0.8,1.9c0.5,0.5,1,0.7,1.7,0.7C112.2,20.9,113,20.5,113.2,19.5z M110.9,15.2c-1.3,0-2.1,0.7-2.3,2h4.6
							c-0.1-0.6-0.3-1.1-0.7-1.5S111.5,15.2,110.9,15.2z"/>
						<path class="st5" d="M122.3,14.1h1.6v8.4c0,0.8-0.3,1.5-0.8,2.1c-0.6,0.5-1.3,0.8-2.2,0.8H117v-1.3h3.7c0.5,0,0.9-0.2,1.2-0.5
							c0.3-0.3,0.4-0.7,0.4-1.2v-1.3c-0.2,0.3-0.5,0.6-1,0.8c-0.5,0.2-1,0.3-1.6,0.3c-1.2,0-2.2-0.4-2.8-1.2c-0.7-0.8-1-1.8-1-3
							c0-1.2,0.3-2.2,1-3s1.6-1.2,2.8-1.2c0.5,0,1,0.1,1.5,0.3c0.5,0.2,0.8,0.5,1.1,0.9V14.1z M118.1,20.1c0.4,0.5,1,0.8,1.8,0.8
							c0.7,0,1.3-0.3,1.8-0.8c0.5-0.5,0.7-1.2,0.7-2c0-0.9-0.2-1.5-0.7-2c-0.5-0.5-1.1-0.8-1.8-0.8c-0.7,0-1.3,0.3-1.8,0.8
							c-0.4,0.5-0.7,1.2-0.7,2C117.5,19,117.7,19.6,118.1,20.1z"/>
						<path class="st5" d="M125.8,10.7h1.7v2h-1.7V10.7z M125.9,22.1v-8.1h1.6v8.1H125.9z"/>
						<path class="st5" d="M129.4,22.1v-8.1h1.6v1.4c0.2-0.5,0.5-0.9,1-1.2c0.5-0.3,1-0.4,1.6-0.4c0.9,0,1.6,0.3,2.2,0.9
							c0.5,0.6,0.8,1.4,0.8,2.3v5H135v-4.7c0-0.6-0.2-1.2-0.5-1.6s-0.8-0.6-1.4-0.6c-0.6,0-1.1,0.2-1.6,0.7c-0.4,0.5-0.6,1-0.6,1.7
							v4.4H129.4z"/>
						<path class="st5" d="M138.5,22.1v-8.1h1.6v1.4c0.2-0.5,0.5-0.9,1-1.2s1-0.4,1.6-0.4c0.9,0,1.6,0.3,2.2,0.9
							c0.5,0.6,0.8,1.4,0.8,2.3v5h-1.6v-4.7c0-0.6-0.2-1.2-0.5-1.6s-0.8-0.6-1.4-0.6c-0.6,0-1.1,0.2-1.6,0.7c-0.4,0.5-0.6,1-0.6,1.7
							v4.4H138.5z"/>
						<path class="st5" d="M153.4,19.5h1.6c-0.1,0.8-0.6,1.5-1.2,2c-0.7,0.5-1.5,0.8-2.5,0.8c-1.2,0-2.2-0.4-2.9-1.2
							c-0.7-0.8-1.1-1.8-1.1-3c0-1.2,0.3-2.2,1-2.9c0.7-0.8,1.6-1.2,2.8-1.2c1.2,0,2.1,0.4,2.8,1.1s1,1.6,1,2.7c0,0.2,0,0.4,0,0.6
							h-6.2c0.1,0.8,0.3,1.4,0.8,1.9c0.5,0.5,1,0.7,1.7,0.7C152.5,20.9,153.2,20.5,153.4,19.5z M151.1,15.2c-1.3,0-2.1,0.7-2.3,2
							h4.6c-0.1-0.6-0.3-1.1-0.7-1.5S151.8,15.2,151.1,15.2z"/>
						<path class="st5" d="M161.2,15.4H160c-1.3,0-2,1-2,3.1v3.6h-1.6v-8.1h1.6v1.6c0.2-0.5,0.4-0.9,0.8-1.2
							c0.3-0.2,0.8-0.4,1.4-0.4h1V15.4z"/>
					</g>
				</g>
			</g>
			<g transform="translate(447.000000, 562.000000)">
				<g>
					<path class="st3" d="M6,0h201c3.3,0,6,2.7,6,6v24c0,3.3-2.7,6-6,6H6c-3.3,0-6-2.7-6-6V6C0,2.7,2.7,0,6,0z"/>
					<g class="st4">
						<path class="st5" d="M68.5,22.1V10.9h4.3c1.1,0,2,0.3,2.6,0.9c0.7,0.6,1,1.4,1,2.4c0,1-0.3,1.8-1,2.4
							c-0.7,0.6-1.5,0.9-2.6,0.9h-2.7v4.4H68.5z M70.1,16.3h2.6c0.7,0,1.2-0.2,1.5-0.5c0.3-0.4,0.5-0.8,0.5-1.4s-0.2-1-0.5-1.4
							c-0.3-0.4-0.8-0.5-1.5-0.5h-2.6V16.3z"/>
						<path class="st5" d="M85.1,10.9h1.7v11.2h-1.7v-5h-5.6v5h-1.7V10.9h1.7v4.7h5.6V10.9z"/>
						<path class="st5" d="M89.1,22.1V10.9h4.3c1.1,0,2,0.3,2.6,0.9c0.7,0.6,1,1.4,1,2.4c0,1-0.3,1.8-1,2.4
							c-0.7,0.6-1.5,0.9-2.6,0.9h-2.7v4.4H89.1z M90.7,16.3h2.6c0.7,0,1.2-0.2,1.5-0.5c0.3-0.4,0.5-0.8,0.5-1.4s-0.2-1-0.5-1.4
							c-0.3-0.4-0.8-0.5-1.5-0.5h-2.6V16.3z"/>
						<path class="st5" d="M101.9,17.7v-1.3h6v1.3H101.9z"/>
						<path class="st5" d="M116.1,22.1l-3.4-11.2h1.7l2.6,8.7l2.7-8.7h1.4l2.7,8.7l2.6-8.7h1.7l-3.4,11.2H123l-2.6-8.6l-2.6,8.6
							H116.1z"/>
						<path class="st5" d="M134,19.5h1.6c-0.2,0.8-0.6,1.5-1.2,2c-0.7,0.5-1.5,0.8-2.5,0.8c-1.2,0-2.2-0.4-2.9-1.2
							c-0.7-0.8-1.1-1.8-1.1-3c0-1.2,0.3-2.2,1-2.9c0.7-0.8,1.6-1.2,2.8-1.2c1.2,0,2.1,0.4,2.8,1.1c0.7,0.7,1,1.6,1,2.7
							c0,0.2,0,0.4,0,0.6h-6.2c0.1,0.8,0.3,1.4,0.8,1.9c0.5,0.5,1,0.7,1.7,0.7C133.1,20.9,133.8,20.5,134,19.5z M131.7,15.2
							c-1.3,0-2.1,0.7-2.3,2h4.6c-0.1-0.6-0.3-1.1-0.7-1.5S132.4,15.2,131.7,15.2z"/>
						<path class="st5" d="M141.3,22.3c-0.5,0-1-0.1-1.5-0.4c-0.5-0.2-0.8-0.6-1-1v1.2h-1.6V10.7h1.6v4.6c0.2-0.4,0.6-0.7,1-1
							c0.5-0.2,1-0.4,1.5-0.4c1.2,0,2.1,0.4,2.8,1.2s1,1.8,1,3c0,1.2-0.3,2.2-1,3C143.4,21.9,142.5,22.3,141.3,22.3z M139.3,20.1
							c0.5,0.5,1.1,0.8,1.8,0.8c0.7,0,1.3-0.3,1.8-0.8c0.5-0.5,0.7-1.2,0.7-2c0-0.8-0.2-1.5-0.7-2c-0.5-0.5-1.1-0.8-1.8-0.8
							c-0.7,0-1.3,0.3-1.8,0.8c-0.5,0.5-0.7,1.2-0.7,2C138.6,19,138.8,19.6,139.3,20.1z"/>
					</g>
				</g>
			</g>
			<g transform="translate(447.000000, 721.000000)">
				<g>
					<path class="st3" d="M6,0h201c3.3,0,6,2.7,6,6v24c0,3.3-2.7,6-6,6H6c-3.3,0-6-2.7-6-6V6C0,2.7,2.7,0,6,0z"/>
					<g class="st4">
						<path class="st5" d="M30.6,20.7h1.3c0.7,0,1.1-0.5,1.1-1.6v-8.2h1.7v8.2c0,1-0.2,1.7-0.7,2.2s-1.1,0.8-1.9,0.8h-1.5V20.7z"/>
						<path class="st5" d="M39.7,14c1,0,1.9,0.3,2.5,0.8c0.6,0.5,1,1.3,1,2.2v5.2h-1.6v-1.3c-0.2,0.4-0.5,0.8-1,1
							c-0.5,0.3-1,0.4-1.6,0.4c-0.8,0-1.5-0.2-2-0.7c-0.5-0.4-0.8-1-0.8-1.8c0-0.8,0.3-1.4,0.8-1.8s1.3-0.7,2.3-0.7H41
							c0.4,0,0.5-0.2,0.5-0.5c0-0.5-0.2-0.9-0.5-1.2s-0.8-0.4-1.4-0.4c-0.5,0-1,0.1-1.4,0.4c-0.4,0.3-0.6,0.7-0.6,1.1h-1.4
							c0.1-0.8,0.4-1.5,1.1-2C37.9,14.2,38.7,14,39.7,14z M39.3,21c0.7,0,1.3-0.2,1.7-0.7c0.4-0.4,0.6-1,0.6-1.8v-0.2h-2.1
							c-0.5,0-1,0.1-1.3,0.4c-0.3,0.2-0.5,0.6-0.5,1c0,0.4,0.1,0.7,0.4,0.9S38.8,21,39.3,21z"/>
						<path class="st5" d="M46.8,22.1l-3-8.1h1.6l2.1,6.1l2.1-6.1h1.6l-2.9,8.1H46.8z"/>
						<path class="st5" d="M55.3,14c1,0,1.9,0.3,2.5,0.8c0.6,0.5,1,1.3,1,2.2v5.2h-1.6v-1.3c-0.2,0.4-0.5,0.8-1,1
							c-0.5,0.3-1,0.4-1.6,0.4c-0.8,0-1.5-0.2-2-0.7c-0.5-0.4-0.8-1-0.8-1.8c0-0.8,0.3-1.4,0.8-1.8s1.3-0.7,2.3-0.7h1.7
							c0.4,0,0.5-0.2,0.5-0.5c0-0.5-0.2-0.9-0.5-1.2s-0.8-0.4-1.4-0.4c-0.5,0-1,0.1-1.4,0.4c-0.4,0.3-0.6,0.7-0.6,1.1h-1.4
							c0.1-0.8,0.4-1.5,1.1-2C53.5,14.2,54.3,14,55.3,14z M54.9,21c0.7,0,1.3-0.2,1.7-0.7c0.4-0.4,0.6-1,0.6-1.8v-0.2h-2.1
							c-0.5,0-1,0.1-1.3,0.4c-0.3,0.2-0.5,0.6-0.5,1c0,0.4,0.1,0.7,0.4,0.9S54.4,21,54.9,21z"/>
						<path class="st5" d="M64.3,22.3c-1.3,0-2.3-0.3-3-1s-1.2-1.6-1.2-2.8h1.6c0.1,0.7,0.3,1.3,0.8,1.7c0.5,0.4,1.1,0.6,1.9,0.6
							c0.7,0,1.3-0.1,1.8-0.4c0.4-0.3,0.7-0.7,0.7-1.3c0-0.4-0.2-0.8-0.5-1c-0.3-0.3-0.7-0.5-1.2-0.6c-0.5-0.1-1-0.3-1.5-0.4
							s-1.1-0.4-1.5-0.6c-0.5-0.2-0.9-0.5-1.2-1s-0.5-1-0.5-1.6c0-0.9,0.4-1.6,1.1-2.2c0.7-0.6,1.6-0.8,2.8-0.8
							c1.1,0,2.1,0.3,2.8,0.9c0.7,0.6,1.1,1.4,1.2,2.5h-1.6c-0.1-0.6-0.3-1-0.7-1.4c-0.4-0.3-1-0.5-1.7-0.5c-0.7,0-1.2,0.1-1.6,0.4
							c-0.4,0.3-0.6,0.7-0.6,1.1c0,0.4,0.1,0.7,0.4,0.9c0.2,0.2,0.5,0.4,0.9,0.6c0.4,0.1,0.8,0.2,1.2,0.4c0.5,0.1,0.9,0.2,1.4,0.4
							c0.5,0.1,0.9,0.3,1.2,0.6s0.7,0.5,0.9,0.9c0.2,0.4,0.4,0.9,0.4,1.5c0,1-0.4,1.8-1.1,2.4C66.5,22,65.6,22.3,64.3,22.3z"/>
						<path class="st5" d="M73.5,22.3c-1.2,0-2.2-0.4-2.9-1.2c-0.7-0.8-1.1-1.8-1.1-3c0-1.2,0.4-2.1,1.1-3c0.7-0.8,1.7-1.2,2.9-1.2
							c1,0,1.8,0.3,2.5,0.8s1.1,1.2,1.2,2.1h-1.6c-0.1-0.5-0.3-0.8-0.7-1.1c-0.4-0.3-0.9-0.4-1.4-0.4c-0.8,0-1.4,0.3-1.8,0.8
							s-0.6,1.2-0.6,2c0,0.8,0.2,1.5,0.6,2c0.4,0.5,1,0.8,1.8,0.8c0.5,0,1-0.1,1.4-0.4c0.4-0.3,0.6-0.6,0.8-1.1h1.5
							c-0.1,0.9-0.5,1.5-1.2,2.1C75.4,22,74.5,22.3,73.5,22.3z"/>
						<path class="st5" d="M83.4,15.4h-1.2c-1.3,0-2,1-2,3.1v3.6h-1.6v-8.1h1.6v1.6c0.2-0.5,0.4-0.9,0.8-1.2
							c0.3-0.2,0.8-0.4,1.4-0.4h1V15.4z"/>
						<path class="st5" d="M84.6,10.7h1.7v2h-1.7V10.7z M84.7,22.1v-8.1h1.6v8.1H84.7z"/>
						<path class="st5" d="M88.3,25.4V14.1h1.6v1.2c0.2-0.4,0.6-0.7,1.1-1c0.5-0.2,1-0.4,1.5-0.4c1.2,0,2.1,0.4,2.8,1.2s1,1.8,1,3
							s-0.3,2.2-1,3c-0.7,0.8-1.7,1.2-2.9,1.2c-0.5,0-1-0.1-1.5-0.3c-0.4-0.2-0.8-0.5-1-0.9v4.4H88.3z M90.4,20.1
							c0.5,0.5,1.1,0.8,1.8,0.8s1.3-0.3,1.8-0.8s0.7-1.2,0.7-2c0-0.8-0.2-1.5-0.7-2c-0.5-0.5-1.1-0.8-1.8-0.8s-1.3,0.3-1.8,0.8
							c-0.5,0.5-0.7,1.2-0.7,2C89.7,19,89.9,19.6,90.4,20.1z"/>
						<path class="st5" d="M98.6,11.6h1.6v2.5h2.4v1.3h-2.4v4c0,0.4,0.1,0.8,0.3,1c0.2,0.2,0.5,0.4,0.9,0.4h1.1v1.3h-1.3
							c-0.8,0-1.5-0.2-2-0.7c-0.5-0.5-0.7-1.1-0.7-1.9v-4.1h-1.6v-1.3h1.6V11.6z"/>
						<path class="st5" d="M107.3,17.7v-1.3h6v1.3H107.3z"/>
						<path class="st5" d="M118.9,22.1V10.9h4.1c1.1,0,1.9,0.3,2.5,0.8c0.6,0.5,0.9,1.2,0.9,2.1c0,0.5-0.1,0.9-0.4,1.3
							c-0.3,0.4-0.6,0.7-1,0.9c0.6,0.2,1.1,0.6,1.4,1c0.4,0.5,0.5,1.1,0.5,1.8c0,1-0.3,1.8-1,2.4s-1.6,0.9-2.8,0.9H118.9z
							 M120.6,15.5h2.4c1.3,0,1.9-0.5,1.9-1.6c0-1-0.6-1.6-1.9-1.6h-2.4V15.5z M120.6,20.7h2.5c1.6,0,2.3-0.6,2.3-1.9
							s-0.8-1.9-2.3-1.9h-2.5V20.7z"/>
						<path class="st5" d="M134.4,19.5h1.6c-0.1,0.8-0.6,1.5-1.2,2c-0.7,0.5-1.5,0.8-2.5,0.8c-1.2,0-2.2-0.4-2.9-1.2
							c-0.7-0.8-1.1-1.8-1.1-3c0-1.2,0.3-2.2,1-2.9c0.7-0.8,1.6-1.2,2.8-1.2c1.2,0,2.1,0.4,2.8,1.1s1,1.6,1,2.7c0,0.2,0,0.4,0,0.6
							h-6.2c0.1,0.8,0.3,1.4,0.8,1.9c0.5,0.5,1,0.7,1.7,0.7C133.5,20.9,134.2,20.5,134.4,19.5z M132.1,15.2c-1.3,0-2.1,0.7-2.3,2
							h4.6c-0.1-0.6-0.3-1.1-0.7-1.5S132.7,15.2,132.1,15.2z"/>
						<path class="st5" d="M143.5,14.1h1.6v8.4c0,0.8-0.3,1.5-0.8,2.1c-0.6,0.5-1.3,0.8-2.2,0.8h-3.9v-1.3h3.7
							c0.5,0,0.9-0.2,1.2-0.5s0.4-0.7,0.4-1.2v-1.3c-0.2,0.3-0.5,0.6-1,0.8c-0.5,0.2-1,0.3-1.6,0.3c-1.2,0-2.2-0.4-2.8-1.2
							c-0.7-0.8-1-1.8-1-3c0-1.2,0.3-2.2,1-3c0.7-0.8,1.6-1.2,2.8-1.2c0.5,0,1,0.1,1.5,0.3c0.5,0.2,0.8,0.5,1.1,0.9V14.1z
							 M139.4,20.1c0.4,0.5,1,0.8,1.8,0.8s1.3-0.3,1.8-0.8c0.5-0.5,0.7-1.2,0.7-2c0-0.9-0.2-1.5-0.7-2c-0.5-0.5-1.1-0.8-1.8-0.8
							s-1.3,0.3-1.8,0.8c-0.4,0.5-0.7,1.2-0.7,2C138.7,19,138.9,19.6,139.4,20.1z"/>
						<path class="st5" d="M147,10.7h1.7v2H147V10.7z M147.1,22.1v-8.1h1.6v8.1H147.1z"/>
						<path class="st5" d="M150.6,22.1v-8.1h1.6v1.4c0.2-0.5,0.5-0.9,1-1.2c0.5-0.3,1-0.4,1.6-0.4c0.9,0,1.6,0.3,2.2,0.9
							c0.5,0.6,0.8,1.4,0.8,2.3v5h-1.6v-4.7c0-0.6-0.2-1.2-0.5-1.6c-0.3-0.4-0.8-0.6-1.4-0.6c-0.6,0-1.1,0.2-1.6,0.7
							c-0.4,0.5-0.6,1-0.6,1.7v4.4H150.6z"/>
						<path class="st5" d="M159.8,22.1v-8.1h1.6v1.4c0.2-0.5,0.5-0.9,1-1.2s1-0.4,1.6-0.4c0.9,0,1.6,0.3,2.2,0.9
							c0.5,0.6,0.8,1.4,0.8,2.3v5h-1.6v-4.7c0-0.6-0.2-1.2-0.5-1.6c-0.3-0.4-0.8-0.6-1.4-0.6c-0.6,0-1.1,0.2-1.6,0.7
							c-0.4,0.5-0.6,1-0.6,1.7v4.4H159.8z"/>
						<path class="st5" d="M174.7,19.5h1.6c-0.2,0.8-0.6,1.5-1.2,2c-0.7,0.5-1.5,0.8-2.5,0.8c-1.2,0-2.2-0.4-2.9-1.2
							c-0.7-0.8-1.1-1.8-1.1-3c0-1.2,0.3-2.2,1-2.9c0.7-0.8,1.6-1.2,2.8-1.2c1.2,0,2.1,0.4,2.8,1.1c0.7,0.7,1,1.6,1,2.7
							c0,0.2,0,0.4,0,0.6H170c0.1,0.8,0.3,1.4,0.8,1.9c0.5,0.5,1,0.7,1.7,0.7C173.7,20.9,174.4,20.5,174.7,19.5z M172.3,15.2
							c-1.3,0-2.1,0.7-2.3,2h4.6c-0.1-0.6-0.3-1.1-0.7-1.5S173,15.2,172.3,15.2z"/>
						<path class="st5" d="M182.4,15.4h-1.2c-1.3,0-2,1-2,3.1v3.6h-1.6v-8.1h1.6v1.6c0.2-0.5,0.4-0.9,0.8-1.2
							c0.3-0.2,0.8-0.4,1.4-0.4h1V15.4z"/>
					</g>
				</g>
			</g>
			<g transform="translate(447.000000, 1036.000000)">
				<g>
					<path class="st3" d="M6,0h201c3.3,0,6,2.7,6,6v24c0,3.3-2.7,6-6,6H6c-3.3,0-6-2.7-6-6V6C0,2.7,2.7,0,6,0z"/>
					<g class="st4">
						<path class="st5" d="M29.3,22.1V10.9h4.3c1.1,0,2,0.3,2.6,0.9c0.7,0.6,1,1.4,1,2.4c0,1-0.3,1.8-1,2.4
							c-0.7,0.6-1.5,0.9-2.6,0.9H31v4.4H29.3z M31,16.3h2.6c0.7,0,1.2-0.2,1.5-0.5c0.3-0.4,0.5-0.8,0.5-1.4s-0.2-1-0.5-1.4
							c-0.3-0.4-0.8-0.5-1.5-0.5H31V16.3z"/>
						<path class="st5" d="M43.3,15.4h-1.2c-1.3,0-2,1-2,3.1v3.6h-1.6v-8.1h1.6v1.6c0.2-0.5,0.4-0.9,0.8-1.2
							c0.3-0.2,0.8-0.4,1.4-0.4h1V15.4z"/>
						<path class="st5" d="M51,21.1c-0.8,0.8-1.8,1.2-3,1.2c-1.2,0-2.2-0.4-3-1.2c-0.8-0.8-1.2-1.8-1.2-3c0-1.2,0.4-2.2,1.2-3
							c0.8-0.8,1.8-1.2,3-1.2c1.2,0,2.2,0.4,3,1.2c0.8,0.8,1.2,1.8,1.2,3C52.1,19.3,51.7,20.3,51,21.1z M48,20.9
							c0.8,0,1.4-0.3,1.8-0.8c0.5-0.5,0.7-1.2,0.7-2s-0.2-1.5-0.7-2c-0.5-0.5-1.1-0.8-1.8-0.8c-0.8,0-1.4,0.3-1.9,0.8
							c-0.5,0.5-0.7,1.2-0.7,2s0.2,1.5,0.7,2C46.6,20.7,47.2,20.9,48,20.9z"/>
						<path class="st5" d="M53.7,14.1h1.5v8.7c0,0.9-0.2,1.5-0.6,2s-1,0.7-1.9,0.7h-0.8v-1.3h0.6c0.4,0,0.7-0.1,0.9-0.3
							c0.1-0.2,0.2-0.6,0.2-1.1V14.1z M53.6,10.7h1.7v2h-1.7V10.7z"/>
						<path class="st5" d="M62.9,19.5h1.6c-0.1,0.8-0.6,1.5-1.2,2c-0.7,0.5-1.5,0.8-2.5,0.8c-1.2,0-2.2-0.4-2.9-1.2s-1.1-1.8-1.1-3
							c0-1.2,0.3-2.2,1-2.9c0.7-0.8,1.6-1.2,2.8-1.2c1.2,0,2.1,0.4,2.8,1.1c0.7,0.7,1,1.6,1,2.7c0,0.2,0,0.4,0,0.6h-6.2
							c0.1,0.8,0.3,1.4,0.8,1.9c0.5,0.5,1,0.7,1.7,0.7C62,20.9,62.7,20.5,62.9,19.5z M60.6,15.2c-1.3,0-2.1,0.7-2.3,2h4.6
							c-0.1-0.6-0.3-1.1-0.7-1.5S61.3,15.2,60.6,15.2z"/>
						<path class="st5" d="M69.5,22.3c-1.2,0-2.2-0.4-2.9-1.2c-0.7-0.8-1.1-1.8-1.1-3c0-1.2,0.4-2.1,1.1-3c0.7-0.8,1.7-1.2,2.9-1.2
							c1,0,1.8,0.3,2.5,0.8s1.1,1.2,1.2,2.1h-1.6c-0.1-0.5-0.3-0.8-0.7-1.1c-0.4-0.3-0.9-0.4-1.4-0.4c-0.8,0-1.4,0.3-1.8,0.8
							s-0.6,1.2-0.6,2c0,0.8,0.2,1.5,0.6,2c0.4,0.5,1,0.8,1.8,0.8c0.5,0,1-0.1,1.4-0.4c0.4-0.3,0.6-0.6,0.8-1.1h1.5
							c-0.1,0.9-0.5,1.5-1.2,2.1C71.4,22,70.6,22.3,69.5,22.3z"/>
						<path class="st5" d="M75.6,11.6h1.6v2.5h2.4v1.3h-2.4v4c0,0.4,0.1,0.8,0.3,1c0.2,0.2,0.5,0.4,0.9,0.4h1.1v1.3h-1.3
							c-0.8,0-1.5-0.2-2-0.7c-0.5-0.5-0.7-1.1-0.7-1.9v-4.1h-1.6v-1.3h1.6V11.6z"/>
						<path class="st5" d="M84.5,14.7c0-1.2,0.3-2.1,1-2.8s1.6-1,2.8-1c1.1,0,2,0.3,2.7,0.9s1,1.4,1,2.5c0,1.5-0.9,2.7-2.6,3.6
							l-1.6,0.8c-0.5,0.2-0.9,0.5-1.2,0.9c-0.3,0.4-0.5,0.8-0.5,1.2h6v1.5h-7.7v-1.2c0-0.6,0.1-1.2,0.4-1.7c0.3-0.5,0.6-0.9,1-1.2
							c0.4-0.3,0.8-0.6,1.2-0.8l1.7-0.9c1-0.5,1.5-1.2,1.5-2.2c0-0.6-0.2-1.1-0.6-1.4c-0.4-0.4-0.9-0.5-1.5-0.5
							c-0.7,0-1.2,0.2-1.6,0.7c-0.4,0.4-0.6,1-0.5,1.8H84.5z"/>
						<path class="st5" d="M97,17.7v-1.3h6v1.3H97z"/>
						<path class="st5" d="M111.8,22.1l-4.2-11.2h1.7l3.3,9.2l3.3-9.2h1.7l-4.2,11.2H111.8z"/>
						<path class="st5" d="M123.3,19.5h1.6c-0.2,0.8-0.6,1.5-1.2,2c-0.7,0.5-1.5,0.8-2.5,0.8c-1.2,0-2.2-0.4-2.9-1.2
							c-0.7-0.8-1.1-1.8-1.1-3c0-1.2,0.3-2.2,1-2.9c0.7-0.8,1.6-1.2,2.8-1.2c1.2,0,2.1,0.4,2.8,1.1c0.7,0.7,1,1.6,1,2.7
							c0,0.2,0,0.4,0,0.6h-6.2c0.1,0.8,0.3,1.4,0.8,1.9c0.5,0.5,1,0.7,1.7,0.7C122.4,20.9,123.1,20.5,123.3,19.5z M121,15.2
							c-1.3,0-2.1,0.7-2.3,2h4.6c-0.1-0.6-0.3-1.1-0.7-1.5S121.7,15.2,121,15.2z"/>
						<path class="st5" d="M131.1,15.4h-1.2c-1.3,0-2,1-2,3.1v3.6h-1.6v-8.1h1.6v1.6c0.2-0.5,0.4-0.9,0.8-1.2
							c0.3-0.2,0.8-0.4,1.4-0.4h1V15.4z"/>
						<path class="st5" d="M135.4,22.3c-1.2,0-2.2-0.4-2.8-1.2c-0.7-0.8-1-1.8-1-3c0-1.2,0.3-2.2,1-3s1.6-1.2,2.8-1.2
							c0.5,0,1,0.1,1.5,0.4c0.5,0.2,0.8,0.6,1.1,1v-4.6h1.6v11.4H138v-1.2c-0.2,0.4-0.6,0.7-1.1,1C136.5,22.2,136,22.3,135.4,22.3z
							 M133.8,20.1c0.4,0.5,1,0.8,1.8,0.8c0.7,0,1.3-0.3,1.8-0.8s0.7-1.2,0.7-2c0-0.8-0.2-1.5-0.7-2c-0.5-0.5-1.1-0.8-1.8-0.8
							c-0.7,0-1.3,0.3-1.8,0.8c-0.4,0.5-0.7,1.2-0.7,2C133.2,19,133.4,19.6,133.8,20.1z"/>
						<path class="st5" d="M141.5,10.7h1.7v2h-1.7V10.7z M141.6,22.1v-8.1h1.6v8.1H141.6z"/>
						<path class="st5" d="M150.9,19.5h1.6c-0.2,0.8-0.6,1.5-1.2,2c-0.7,0.5-1.5,0.8-2.5,0.8c-1.2,0-2.2-0.4-2.9-1.2
							c-0.7-0.8-1.1-1.8-1.1-3c0-1.2,0.3-2.2,1-2.9c0.7-0.8,1.6-1.2,2.8-1.2c1.2,0,2.1,0.4,2.8,1.1c0.7,0.7,1,1.6,1,2.7
							c0,0.2,0,0.4,0,0.6h-6.2c0.1,0.8,0.3,1.4,0.8,1.9c0.5,0.5,1,0.7,1.7,0.7C149.9,20.9,150.6,20.5,150.9,19.5z M148.5,15.2
							c-1.3,0-2.1,0.7-2.3,2h4.6c-0.1-0.6-0.3-1.1-0.7-1.5S149.2,15.2,148.5,15.2z"/>
						<path class="st5" d="M154,25.4V14.1h1.6v1.2c0.2-0.4,0.6-0.7,1.1-1c0.5-0.2,1-0.4,1.5-0.4c1.2,0,2.1,0.4,2.8,1.2
							c0.7,0.8,1,1.8,1,3s-0.3,2.2-1,3c-0.7,0.8-1.7,1.2-2.9,1.2c-0.5,0-1-0.1-1.5-0.3s-0.8-0.5-1-0.9v4.4H154z M156.1,20.1
							c0.5,0.5,1.1,0.8,1.8,0.8c0.7,0,1.3-0.3,1.8-0.8c0.5-0.5,0.7-1.2,0.7-2c0-0.8-0.2-1.5-0.7-2c-0.5-0.5-1.1-0.8-1.8-0.8
							c-0.7,0-1.3,0.3-1.8,0.8c-0.5,0.5-0.7,1.2-0.7,2C155.4,19,155.7,19.6,156.1,20.1z"/>
						<path class="st5" d="M163.4,10.7h1.7v2h-1.7V10.7z M163.5,22.1v-8.1h1.6v8.1H163.5z"/>
						<path class="st5" d="M167,22.1v-8.1h1.6v1.4c0.2-0.5,0.5-0.9,1-1.2s1-0.4,1.6-0.4c0.9,0,1.6,0.3,2.2,0.9
							c0.5,0.6,0.8,1.4,0.8,2.3v5h-1.6v-4.7c0-0.6-0.2-1.2-0.5-1.6s-0.8-0.6-1.4-0.6c-0.6,0-1.1,0.2-1.6,0.7c-0.4,0.5-0.6,1-0.6,1.7
							v4.4H167z"/>
						<path class="st5" d="M182.2,14.1h1.6v8.4c0,0.8-0.3,1.5-0.8,2.1c-0.6,0.5-1.3,0.8-2.2,0.8h-3.9v-1.3h3.7
							c0.5,0,0.9-0.2,1.2-0.5s0.4-0.7,0.4-1.2v-1.3c-0.2,0.3-0.5,0.6-1,0.8c-0.5,0.2-1,0.3-1.6,0.3c-1.2,0-2.2-0.4-2.8-1.2
							c-0.7-0.8-1-1.8-1-3c0-1.2,0.3-2.2,1-3s1.6-1.2,2.8-1.2c0.5,0,1,0.1,1.5,0.3c0.5,0.2,0.8,0.5,1.1,0.9V14.1z M178,20.1
							c0.4,0.5,1,0.8,1.8,0.8c0.7,0,1.3-0.3,1.8-0.8c0.5-0.5,0.7-1.2,0.7-2c0-0.9-0.2-1.5-0.7-2c-0.5-0.5-1.1-0.8-1.8-0.8
							c-0.7,0-1.3,0.3-1.8,0.8c-0.4,0.5-0.7,1.2-0.7,2C177.3,19,177.6,19.6,178,20.1z"/>
					</g>
				</g>
			</g>
			<g transform="translate(447.000000, 1186.000000)">
				<g>
					<path class="st3" d="M6,0h201c3.3,0,6,2.7,6,6v24c0,3.3-2.7,6-6,6H6c-3.3,0-6-2.7-6-6V6C0,2.7,2.7,0,6,0z"/>
					<g class="st4">
						<path class="st5" d="M26.2,22.1V10.9h4.3c1.1,0,2,0.3,2.6,0.9c0.7,0.6,1,1.4,1,2.4c0,1-0.3,1.8-1,2.4
							c-0.7,0.6-1.5,0.9-2.6,0.9h-2.7v4.4H26.2z M27.8,16.3h2.6c0.7,0,1.2-0.2,1.5-0.5c0.3-0.4,0.5-0.8,0.5-1.4s-0.2-1-0.5-1.4
							c-0.3-0.4-0.8-0.5-1.5-0.5h-2.6V16.3z"/>
						<path class="st5" d="M40.2,15.4H39c-1.3,0-2,1-2,3.1v3.6h-1.6v-8.1H37v1.6c0.2-0.5,0.4-0.9,0.8-1.2c0.3-0.2,0.8-0.4,1.4-0.4h1
							V15.4z"/>
						<path class="st5" d="M47.8,21.1c-0.8,0.8-1.8,1.2-3,1.2c-1.2,0-2.2-0.4-3-1.2c-0.8-0.8-1.2-1.8-1.2-3c0-1.2,0.4-2.2,1.2-3
							c0.8-0.8,1.8-1.2,3-1.2c1.2,0,2.2,0.4,3,1.2c0.8,0.8,1.2,1.8,1.2,3C48.9,19.3,48.6,20.3,47.8,21.1z M44.8,20.9
							c0.8,0,1.4-0.3,1.8-0.8c0.5-0.5,0.7-1.2,0.7-2s-0.2-1.5-0.7-2c-0.5-0.5-1.1-0.8-1.8-0.8c-0.8,0-1.4,0.3-1.9,0.8
							c-0.5,0.5-0.7,1.2-0.7,2s0.2,1.5,0.7,2C43.4,20.7,44,20.9,44.8,20.9z"/>
						<path class="st5" d="M50.5,14.1H52v8.7c0,0.9-0.2,1.5-0.6,2s-1,0.7-1.9,0.7h-0.8v-1.3h0.6c0.4,0,0.7-0.1,0.9-0.3
							c0.1-0.2,0.2-0.6,0.2-1.1V14.1z M50.4,10.7h1.7v2h-1.7V10.7z"/>
						<path class="st5" d="M59.7,19.5h1.6c-0.1,0.8-0.6,1.5-1.2,2c-0.7,0.5-1.5,0.8-2.5,0.8c-1.2,0-2.2-0.4-2.9-1.2s-1.1-1.8-1.1-3
							c0-1.2,0.3-2.2,1-2.9c0.7-0.8,1.6-1.2,2.8-1.2c1.2,0,2.1,0.4,2.8,1.1c0.7,0.7,1,1.6,1,2.7c0,0.2,0,0.4,0,0.6H55
							c0.1,0.8,0.3,1.4,0.8,1.9c0.5,0.5,1,0.7,1.7,0.7C58.8,20.9,59.5,20.5,59.7,19.5z M57.4,15.2c-1.3,0-2.1,0.7-2.3,2h4.6
							c-0.1-0.6-0.3-1.1-0.7-1.5S58.1,15.2,57.4,15.2z"/>
						<path class="st5" d="M66.3,22.3c-1.2,0-2.2-0.4-2.9-1.2c-0.7-0.8-1.1-1.8-1.1-3c0-1.2,0.4-2.1,1.1-3c0.7-0.8,1.7-1.2,2.9-1.2
							c1,0,1.8,0.3,2.5,0.8s1.1,1.2,1.2,2.1h-1.6c-0.1-0.5-0.3-0.8-0.7-1.1c-0.4-0.3-0.9-0.4-1.4-0.4c-0.8,0-1.4,0.3-1.8,0.8
							s-0.6,1.2-0.6,2c0,0.8,0.2,1.5,0.6,2c0.4,0.5,1,0.8,1.8,0.8c0.5,0,1-0.1,1.4-0.4c0.4-0.3,0.6-0.6,0.8-1.1h1.5
							c-0.1,0.9-0.5,1.5-1.2,2.1C68.2,22,67.4,22.3,66.3,22.3z"/>
						<path class="st5" d="M72.4,11.6h1.6v2.5h2.4v1.3h-2.4v4c0,0.4,0.1,0.8,0.3,1c0.2,0.2,0.5,0.4,0.9,0.4h1.1v1.3h-1.3
							c-0.8,0-1.5-0.2-2-0.7c-0.5-0.5-0.7-1.1-0.7-1.9v-4.1h-1.6v-1.3h1.6V11.6z"/>
						<path class="st5" d="M85.3,22.3c-1.2,0-2.1-0.3-2.9-1s-1.2-1.6-1.2-2.6h1.6c0,0.7,0.2,1.2,0.7,1.6c0.5,0.4,1,0.6,1.7,0.6
							c0.7,0,1.3-0.2,1.7-0.5s0.6-0.8,0.6-1.4c0-0.6-0.2-1-0.6-1.4c-0.4-0.3-1-0.5-1.7-0.5h-0.9v-1.4h0.9c0.6,0,1.1-0.2,1.4-0.5
							c0.4-0.3,0.5-0.7,0.5-1.3c0-0.5-0.2-0.9-0.6-1.2s-0.9-0.4-1.5-0.4c-0.6,0-1.1,0.2-1.4,0.5c-0.4,0.3-0.6,0.8-0.6,1.4h-1.6
							c0-1,0.4-1.8,1.1-2.5s1.5-0.9,2.6-0.9c1.1,0,1.9,0.3,2.6,0.8c0.7,0.6,1,1.3,1,2.1c0,0.5-0.1,1-0.4,1.5c-0.3,0.4-0.7,0.8-1.1,1
							c0.6,0.2,1.1,0.5,1.4,1c0.4,0.5,0.5,1,0.5,1.7c0,1-0.4,1.9-1.2,2.4C87.4,22,86.4,22.3,85.3,22.3z"/>
						<path class="st5" d="M94.5,17.7v-1.3h6v1.3H94.5z"/>
						<path class="st5" d="M106.1,22.1V10.9h7.2v1.5h-5.5v3.2h4.5v1.5h-4.5v3.6h5.7v1.5H106.1z"/>
						<path class="st5" d="M115,10.7h1.7v2H115V10.7z M115.1,22.1v-8.1h1.6v8.1H115.1z"/>
						<path class="st5" d="M118.6,22.1v-8.1h1.6v1.4c0.2-0.5,0.5-0.9,1-1.2s1-0.4,1.6-0.4c0.9,0,1.6,0.3,2.2,0.9
							c0.5,0.6,0.8,1.4,0.8,2.3v5h-1.6v-4.7c0-0.6-0.2-1.2-0.5-1.6s-0.8-0.6-1.4-0.6c-0.6,0-1.1,0.2-1.6,0.7c-0.4,0.5-0.6,1-0.6,1.7
							v4.4H118.6z"/>
						<path class="st5" d="M131.1,22.3c-1.2,0-2.2-0.4-2.8-1.2c-0.7-0.8-1-1.8-1-3c0-1.2,0.3-2.2,1-3s1.6-1.2,2.8-1.2
							c0.5,0,1,0.1,1.5,0.4s0.8,0.6,1.1,1v-4.6h1.6v11.4h-1.6v-1.2c-0.2,0.4-0.6,0.7-1.1,1C132.1,22.2,131.6,22.3,131.1,22.3z
							 M129.5,20.1c0.4,0.5,1,0.8,1.8,0.8c0.7,0,1.3-0.3,1.8-0.8c0.5-0.5,0.7-1.2,0.7-2c0-0.8-0.2-1.5-0.7-2
							c-0.5-0.5-1.1-0.8-1.8-0.8c-0.7,0-1.3,0.3-1.8,0.8c-0.4,0.5-0.7,1.2-0.7,2C128.8,19,129.1,19.6,129.5,20.1z"/>
						<path class="st5" d="M137.3,25.4V14.1h1.6v1.2c0.2-0.4,0.6-0.7,1.1-1s1-0.4,1.5-0.4c1.2,0,2.1,0.4,2.8,1.2c0.7,0.8,1,1.8,1,3
							s-0.3,2.2-1,3s-1.7,1.2-2.9,1.2c-0.5,0-1-0.1-1.5-0.3c-0.4-0.2-0.8-0.5-1-0.9v4.4H137.3z M139.4,20.1c0.5,0.5,1.1,0.8,1.8,0.8
							c0.7,0,1.3-0.3,1.8-0.8c0.5-0.5,0.7-1.2,0.7-2c0-0.8-0.2-1.5-0.7-2c-0.5-0.5-1.1-0.8-1.8-0.8c-0.7,0-1.3,0.3-1.8,0.8
							c-0.5,0.5-0.7,1.2-0.7,2C138.8,19,139,19.6,139.4,20.1z"/>
						<path class="st5" d="M151.5,15.4h-1.2c-1.3,0-2,1-2,3.1v3.6h-1.6v-8.1h1.6v1.6c0.2-0.5,0.4-0.9,0.8-1.2
							c0.3-0.2,0.8-0.4,1.4-0.4h1V15.4z"/>
						<path class="st5" d="M159.1,21.1c-0.8,0.8-1.8,1.2-3,1.2c-1.2,0-2.2-0.4-3-1.2s-1.2-1.8-1.2-3c0-1.2,0.4-2.2,1.2-3
							c0.8-0.8,1.8-1.2,3-1.2c1.2,0,2.2,0.4,3,1.2c0.8,0.8,1.2,1.8,1.2,3C160.3,19.3,159.9,20.3,159.1,21.1z M156.1,20.9
							c0.8,0,1.4-0.3,1.8-0.8s0.7-1.2,0.7-2s-0.2-1.5-0.7-2s-1.1-0.8-1.8-0.8c-0.8,0-1.4,0.3-1.9,0.8s-0.7,1.2-0.7,2s0.2,1.5,0.7,2
							S155.4,20.9,156.1,20.9z"/>
						<path class="st5" d="M161.8,14.1h1.5v8.7c0,0.9-0.2,1.5-0.6,2c-0.4,0.4-1,0.7-1.9,0.7h-0.8v-1.3h0.6c0.4,0,0.7-0.1,0.9-0.3
							c0.1-0.2,0.2-0.6,0.2-1.1V14.1z M161.7,10.7h1.7v2h-1.7V10.7z"/>
						<path class="st5" d="M171.1,19.5h1.6c-0.2,0.8-0.6,1.5-1.2,2c-0.7,0.5-1.5,0.8-2.5,0.8c-1.2,0-2.2-0.4-2.9-1.2
							c-0.7-0.8-1.1-1.8-1.1-3c0-1.2,0.3-2.2,1-2.9c0.7-0.8,1.6-1.2,2.8-1.2c1.2,0,2.1,0.4,2.8,1.1c0.7,0.7,1,1.6,1,2.7
							c0,0.2,0,0.4,0,0.6h-6.2c0.1,0.8,0.3,1.4,0.8,1.9c0.5,0.5,1,0.7,1.7,0.7C170.1,20.9,170.8,20.5,171.1,19.5z M168.7,15.2
							c-1.3,0-2.1,0.7-2.3,2h4.6c-0.1-0.6-0.3-1.1-0.7-1.5S169.4,15.2,168.7,15.2z"/>
						<path class="st5" d="M177.7,22.3c-1.2,0-2.2-0.4-2.9-1.2c-0.7-0.8-1.1-1.8-1.1-3c0-1.2,0.4-2.1,1.1-3c0.7-0.8,1.7-1.2,2.9-1.2
							c1,0,1.8,0.3,2.5,0.8c0.7,0.5,1.1,1.2,1.2,2.1h-1.6c-0.1-0.5-0.3-0.8-0.7-1.1c-0.4-0.3-0.9-0.4-1.4-0.4
							c-0.8,0-1.4,0.3-1.8,0.8s-0.6,1.2-0.6,2c0,0.8,0.2,1.5,0.6,2c0.4,0.5,1,0.8,1.8,0.8c0.5,0,1-0.1,1.4-0.4s0.6-0.6,0.8-1.1h1.5
							c-0.1,0.9-0.5,1.5-1.2,2.1C179.5,22,178.7,22.3,177.7,22.3z"/>
						<path class="st5" d="M183.7,11.6h1.6v2.5h2.4v1.3h-2.4v4c0,0.4,0.1,0.8,0.3,1c0.2,0.2,0.5,0.4,0.9,0.4h1.1v1.3h-1.3
							c-0.8,0-1.5-0.2-2-0.7c-0.5-0.5-0.7-1.1-0.7-1.9v-4.1h-1.6v-1.3h1.6V11.6z"/>
					</g>
				</g>
			</g>
			<g transform="translate(223.000000, 870.000000)">
				<g>
					<path class="st3" d="M6,0h201c3.3,0,6,2.7,6,6v24c0,3.3-2.7,6-6,6H6c-3.3,0-6-2.7-6-6V6C0,2.7,2.7,0,6,0z"/>
					<g class="st4">
						<path class="st5" d="M25.8,22.1V10.9h4.3c1.1,0,2,0.3,2.6,0.9c0.7,0.6,1,1.4,1,2.4c0,1-0.3,1.8-1,2.4
							c-0.7,0.6-1.5,0.9-2.6,0.9h-2.7v4.4H25.8z M27.5,16.3h2.6c0.7,0,1.2-0.2,1.5-0.5c0.3-0.4,0.5-0.8,0.5-1.4s-0.2-1-0.5-1.4
							c-0.3-0.4-0.8-0.5-1.5-0.5h-2.6V16.3z"/>
						<path class="st5" d="M39.8,15.4h-1.2c-1.3,0-2,1-2,3.1v3.6h-1.6v-8.1h1.6v1.6c0.2-0.5,0.4-0.9,0.8-1.2
							c0.3-0.2,0.8-0.4,1.4-0.4h1V15.4z"/>
						<path class="st5" d="M47.4,21.1c-0.8,0.8-1.8,1.2-3,1.2c-1.2,0-2.2-0.4-3-1.2c-0.8-0.8-1.2-1.8-1.2-3c0-1.2,0.4-2.2,1.2-3
							c0.8-0.8,1.8-1.2,3-1.2c1.2,0,2.2,0.4,3,1.2c0.8,0.8,1.2,1.8,1.2,3C48.6,19.3,48.2,20.3,47.4,21.1z M44.5,20.9
							c0.8,0,1.4-0.3,1.8-0.8c0.5-0.5,0.7-1.2,0.7-2s-0.2-1.5-0.7-2c-0.5-0.5-1.1-0.8-1.8-0.8c-0.8,0-1.4,0.3-1.9,0.8
							c-0.5,0.5-0.7,1.2-0.7,2s0.2,1.5,0.7,2C43.1,20.7,43.7,20.9,44.5,20.9z"/>
						<path class="st5" d="M50.1,14.1h1.5v8.7c0,0.9-0.2,1.5-0.6,2s-1,0.7-1.9,0.7h-0.8v-1.3H49c0.4,0,0.7-0.1,0.9-0.3
							c0.1-0.2,0.2-0.6,0.2-1.1V14.1z M50,10.7h1.7v2H50V10.7z"/>
						<path class="st5" d="M59.4,19.5h1.6c-0.1,0.8-0.6,1.5-1.2,2c-0.7,0.5-1.5,0.8-2.5,0.8c-1.2,0-2.2-0.4-2.9-1.2s-1.1-1.8-1.1-3
							c0-1.2,0.3-2.2,1-2.9c0.7-0.8,1.6-1.2,2.8-1.2c1.2,0,2.1,0.4,2.8,1.1c0.7,0.7,1,1.6,1,2.7c0,0.2,0,0.4,0,0.6h-6.2
							c0.1,0.8,0.3,1.4,0.8,1.9c0.5,0.5,1,0.7,1.7,0.7C58.4,20.9,59.2,20.5,59.4,19.5z M57.1,15.2c-1.3,0-2.1,0.7-2.3,2h4.6
							c-0.1-0.6-0.3-1.1-0.7-1.5S57.7,15.2,57.1,15.2z"/>
						<path class="st5" d="M66,22.3c-1.2,0-2.2-0.4-2.9-1.2c-0.7-0.8-1.1-1.8-1.1-3c0-1.2,0.4-2.1,1.1-3c0.7-0.8,1.7-1.2,2.9-1.2
							c1,0,1.8,0.3,2.5,0.8s1.1,1.2,1.2,2.1h-1.6c-0.1-0.5-0.3-0.8-0.7-1.1c-0.4-0.3-0.9-0.4-1.4-0.4c-0.8,0-1.4,0.3-1.8,0.8
							s-0.6,1.2-0.6,2c0,0.8,0.2,1.5,0.6,2c0.4,0.5,1,0.8,1.8,0.8c0.5,0,1-0.1,1.4-0.4c0.4-0.3,0.6-0.6,0.8-1.1h1.5
							c-0.1,0.9-0.5,1.5-1.2,2.1C67.9,22,67,22.3,66,22.3z"/>
						<path class="st5" d="M72,11.6h1.6v2.5H76v1.3h-2.4v4c0,0.4,0.1,0.8,0.3,1c0.2,0.2,0.5,0.4,0.9,0.4H76v1.3h-1.3
							c-0.8,0-1.5-0.2-2-0.7C72.3,21,72,20.3,72,19.5v-4.1h-1.6v-1.3H72V11.6z"/>
						<path class="st5" d="M84.6,10.9v11.2h-1.7v-8.6c-0.2,0.3-0.6,0.4-1.1,0.4h-1v-1.5h0.9c0.4,0,0.7-0.1,0.9-0.3s0.3-0.6,0.4-1.2
							H84.6z"/>
						<path class="st5" d="M90.2,17.7v-1.3h6v1.3H90.2z"/>
						<path class="st5" d="M101.8,22.1V10.9h4.1c1.1,0,1.9,0.3,2.5,0.8c0.6,0.5,0.9,1.2,0.9,2.1c0,0.5-0.1,0.9-0.4,1.3
							c-0.3,0.4-0.6,0.7-1,0.9c0.6,0.2,1.1,0.6,1.4,1c0.4,0.5,0.5,1.1,0.5,1.8c0,1-0.3,1.8-1,2.4c-0.7,0.6-1.6,0.9-2.8,0.9H101.8z
							 M103.4,15.5h2.4c1.3,0,1.9-0.5,1.9-1.6c0-1-0.6-1.6-1.9-1.6h-2.4V15.5z M103.4,20.7h2.5c1.6,0,2.3-0.6,2.3-1.9
							s-0.8-1.9-2.3-1.9h-2.5V20.7z"/>
						<path class="st5" d="M114.7,14c1,0,1.9,0.3,2.5,0.8c0.6,0.5,1,1.3,1,2.2v5.2h-1.6v-1.3c-0.2,0.4-0.5,0.8-1,1
							c-0.5,0.3-1,0.4-1.6,0.4c-0.8,0-1.5-0.2-2-0.7c-0.5-0.4-0.8-1-0.8-1.8c0-0.8,0.3-1.4,0.8-1.8s1.3-0.7,2.3-0.7h1.7
							c0.4,0,0.5-0.2,0.5-0.5c0-0.5-0.2-0.9-0.5-1.2s-0.8-0.4-1.4-0.4c-0.5,0-1,0.1-1.4,0.4c-0.4,0.3-0.6,0.7-0.6,1.1h-1.4
							c0.1-0.8,0.4-1.5,1.1-2C112.9,14.2,113.7,14,114.7,14z M114.3,21c0.7,0,1.3-0.2,1.7-0.7c0.4-0.4,0.6-1,0.6-1.8v-0.2h-2.1
							c-0.5,0-1,0.1-1.3,0.4c-0.3,0.2-0.5,0.6-0.5,1c0,0.4,0.1,0.7,0.4,0.9S113.8,21,114.3,21z"/>
						<path class="st5" d="M122.8,22.3c-0.9,0-1.7-0.2-2.3-0.7c-0.6-0.5-0.9-1.2-1-2h1.5c0,0.5,0.2,0.8,0.5,1.1s0.7,0.4,1.3,0.4
							c0.4,0,0.8-0.1,1.1-0.3s0.4-0.5,0.4-0.8c0-0.4-0.2-0.7-0.5-0.9c-0.3-0.2-0.7-0.3-1.1-0.4c-0.4-0.1-0.9-0.1-1.3-0.2
							c-0.4-0.1-0.8-0.3-1.1-0.7c-0.3-0.3-0.5-0.8-0.5-1.5c0-0.7,0.3-1.3,0.8-1.7s1.2-0.6,2.1-0.6c0.9,0,1.6,0.2,2.2,0.7
							s0.9,1.1,0.9,1.8h-1.5c-0.1-0.4-0.3-0.7-0.6-1s-0.7-0.3-1.1-0.3c-0.4,0-0.8,0.1-1,0.3c-0.3,0.2-0.4,0.4-0.4,0.8
							c0,0.4,0.2,0.6,0.5,0.8s0.7,0.3,1.2,0.3c0.5,0,0.9,0.1,1.4,0.2c0.5,0.1,0.8,0.3,1.2,0.7c0.3,0.4,0.5,0.9,0.5,1.6
							c0,0.7-0.3,1.3-0.8,1.8C124.4,22.1,123.7,22.3,122.8,22.3z"/>
						<path class="st5" d="M127.3,10.7h1.7v2h-1.7V10.7z M127.4,22.1v-8.1h1.6v8.1H127.4z"/>
						<path class="st5" d="M133.8,22.3c-0.9,0-1.7-0.2-2.3-0.7c-0.6-0.5-0.9-1.2-1-2h1.5c0,0.5,0.2,0.8,0.5,1.1s0.7,0.4,1.3,0.4
							c0.4,0,0.8-0.1,1.1-0.3s0.4-0.5,0.4-0.8c0-0.4-0.2-0.7-0.5-0.9c-0.3-0.2-0.7-0.3-1.1-0.4c-0.4-0.1-0.9-0.1-1.3-0.2
							c-0.4-0.1-0.8-0.3-1.1-0.7c-0.3-0.3-0.5-0.8-0.5-1.5c0-0.7,0.3-1.3,0.8-1.7s1.2-0.6,2.1-0.6c0.9,0,1.6,0.2,2.2,0.7
							s0.9,1.1,0.9,1.8h-1.5c-0.1-0.4-0.3-0.7-0.6-1s-0.7-0.3-1.1-0.3c-0.4,0-0.8,0.1-1,0.3c-0.3,0.2-0.4,0.4-0.4,0.8
							c0,0.4,0.2,0.6,0.5,0.8s0.7,0.3,1.2,0.3c0.5,0,0.9,0.1,1.4,0.2c0.5,0.1,0.8,0.3,1.2,0.7c0.3,0.4,0.5,0.9,0.5,1.6
							c0,0.7-0.3,1.3-0.8,1.8C135.4,22.1,134.7,22.3,133.8,22.3z"/>
						<path class="st5" d="M145.9,22.3c-1.3,0-2.3-0.3-3-1s-1.2-1.6-1.2-2.8h1.6c0.1,0.7,0.3,1.3,0.8,1.7c0.5,0.4,1.1,0.6,1.9,0.6
							c0.7,0,1.3-0.1,1.8-0.4c0.4-0.3,0.7-0.7,0.7-1.3c0-0.4-0.2-0.8-0.5-1c-0.3-0.3-0.7-0.5-1.2-0.6c-0.5-0.1-1-0.3-1.5-0.4
							s-1.1-0.4-1.5-0.6c-0.5-0.2-0.9-0.5-1.2-1s-0.5-1-0.5-1.6c0-0.9,0.4-1.6,1.1-2.2c0.7-0.6,1.6-0.8,2.8-0.8
							c1.1,0,2.1,0.3,2.8,0.9c0.7,0.6,1.1,1.4,1.2,2.5h-1.6c-0.1-0.6-0.3-1-0.7-1.4c-0.4-0.3-1-0.5-1.7-0.5c-0.7,0-1.2,0.1-1.6,0.4
							c-0.4,0.3-0.6,0.7-0.6,1.1c0,0.4,0.1,0.7,0.4,0.9c0.2,0.2,0.5,0.4,0.9,0.6c0.4,0.1,0.8,0.2,1.2,0.4c0.5,0.1,0.9,0.2,1.4,0.4
							c0.5,0.1,0.9,0.3,1.2,0.6s0.7,0.5,0.9,0.9c0.2,0.4,0.4,0.9,0.4,1.5c0,1-0.4,1.8-1.1,2.4C148.1,22,147.1,22.3,145.9,22.3z"/>
						<path class="st5" d="M155.1,22.3c-1.2,0-2.2-0.4-2.9-1.2c-0.7-0.8-1.1-1.8-1.1-3c0-1.2,0.4-2.1,1.1-3c0.7-0.8,1.7-1.2,2.9-1.2
							c1,0,1.8,0.3,2.5,0.8s1.1,1.2,1.2,2.1h-1.6c-0.1-0.5-0.3-0.8-0.7-1.1c-0.4-0.3-0.9-0.4-1.4-0.4c-0.8,0-1.4,0.3-1.8,0.8
							s-0.6,1.2-0.6,2c0,0.8,0.2,1.5,0.6,2c0.4,0.5,1,0.8,1.8,0.8c0.5,0,1-0.1,1.4-0.4c0.4-0.3,0.6-0.6,0.8-1.1h1.5
							c-0.1,0.9-0.5,1.5-1.2,2.1C156.9,22,156.1,22.3,155.1,22.3z"/>
						<path class="st5" d="M165,15.4h-1.2c-1.3,0-2,1-2,3.1v3.6h-1.6v-8.1h1.6v1.6c0.2-0.5,0.4-0.9,0.8-1.2c0.3-0.2,0.8-0.4,1.4-0.4
							h1V15.4z"/>
						<path class="st5" d="M173.3,14.1v8.1h-1.6v-1.4c-0.2,0.5-0.5,0.9-1,1.2c-0.5,0.3-1,0.4-1.6,0.4c-0.9,0-1.6-0.3-2.2-0.9
							c-0.5-0.6-0.8-1.4-0.8-2.3v-5h1.6v4.7c0,0.6,0.2,1.2,0.5,1.6c0.3,0.4,0.8,0.6,1.4,0.6c0.6,0,1.1-0.2,1.6-0.7
							c0.4-0.5,0.6-1,0.6-1.7v-4.4H173.3z"/>
						<path class="st5" d="M175.3,22.1v-8.1h1.6v1.4c0.2-0.5,0.5-0.8,0.9-1.1c0.4-0.3,0.9-0.4,1.5-0.4c0.7,0,1.2,0.1,1.7,0.4
							s0.8,0.7,0.9,1.2c0.2-0.5,0.5-0.9,1-1.2c0.5-0.3,1-0.5,1.6-0.5c0.9,0,1.6,0.3,2.1,0.8c0.5,0.6,0.8,1.3,0.8,2.2v5.1h-1.6v-4.7
							c0-0.7-0.2-1.2-0.5-1.6c-0.3-0.4-0.7-0.6-1.3-0.6c-0.6,0-1.1,0.2-1.4,0.6s-0.5,0.9-0.5,1.6v4.7h-1.6v-4.7
							c0-0.7-0.2-1.2-0.5-1.6c-0.3-0.4-0.7-0.6-1.2-0.6c-0.6,0-1.1,0.2-1.4,0.6c-0.4,0.4-0.5,0.9-0.5,1.6v4.7H175.3z"/>
					</g>
				</g>
			</g>
			<g transform="translate(894.000000, 720.000000)">
				<g>
					<path class="st3" d="M6,0h201c3.3,0,6,2.7,6,6v24c0,3.3-2.7,6-6,6H6c-3.3,0-6-2.7-6-6V6C0,2.7,2.7,0,6,0z"/>
					<g class="st4">
						<path class="st5" d="M30.1,22.1V10.9h3.4c1.6,0,3,0.5,4,1.5s1.6,2.4,1.6,4.1c0,1.8-0.5,3.1-1.6,4.1c-1.1,1-2.4,1.5-4,1.5H30.1
							z M31.8,20.7h1.7c1.1,0,2.1-0.3,2.9-1s1.2-1.7,1.2-3.1s-0.4-2.4-1.2-3.1s-1.7-1-2.9-1h-1.7V20.7z"/>
						<path class="st5" d="M44,14c1,0,1.9,0.3,2.5,0.8c0.6,0.5,1,1.3,1,2.2v5.2h-1.6v-1.3c-0.2,0.4-0.5,0.8-1,1
							c-0.5,0.3-1,0.4-1.6,0.4c-0.8,0-1.5-0.2-2-0.7s-0.8-1-0.8-1.8c0-0.8,0.3-1.4,0.8-1.8s1.3-0.7,2.3-0.7h1.7
							c0.4,0,0.5-0.2,0.5-0.5c0-0.5-0.2-0.9-0.5-1.2s-0.8-0.4-1.4-0.4c-0.5,0-1,0.1-1.4,0.4C42.2,16,42,16.3,42,16.7h-1.4
							c0.1-0.8,0.4-1.5,1.1-2C42.3,14.2,43.1,14,44,14z M43.6,21c0.7,0,1.3-0.2,1.7-0.7c0.4-0.4,0.6-1,0.6-1.8v-0.2h-2.1
							c-0.5,0-1,0.1-1.3,0.4c-0.3,0.2-0.5,0.6-0.5,1c0,0.4,0.1,0.7,0.4,0.9S43.2,21,43.6,21z"/>
						<path class="st5" d="M50.1,11.6h1.6v2.5h2.4v1.3h-2.4v4c0,0.4,0.1,0.8,0.3,1c0.2,0.2,0.5,0.4,0.9,0.4h1.1v1.3h-1.3
							c-0.8,0-1.5-0.2-2-0.7c-0.5-0.5-0.7-1.1-0.7-1.9v-4.1h-1.6v-1.3h1.6V11.6z"/>
						<path class="st5" d="M58.3,14c1,0,1.9,0.3,2.5,0.8c0.6,0.5,1,1.3,1,2.2v5.2h-1.6v-1.3c-0.2,0.4-0.5,0.8-1,1
							c-0.5,0.3-1,0.4-1.6,0.4c-0.8,0-1.5-0.2-2-0.7s-0.8-1-0.8-1.8c0-0.8,0.3-1.4,0.8-1.8s1.3-0.7,2.3-0.7h1.7
							c0.4,0,0.5-0.2,0.5-0.5c0-0.5-0.2-0.9-0.5-1.2s-0.8-0.4-1.4-0.4c-0.5,0-1,0.1-1.4,0.4c-0.4,0.3-0.6,0.7-0.6,1.1h-1.4
							c0.1-0.8,0.4-1.5,1.1-2C56.6,14.2,57.4,14,58.3,14z M57.9,21c0.7,0,1.3-0.2,1.7-0.7c0.4-0.4,0.6-1,0.6-1.8v-0.2h-2.1
							c-0.5,0-1,0.1-1.3,0.4c-0.3,0.2-0.5,0.6-0.5,1c0,0.4,0.1,0.7,0.4,0.9S57.4,21,57.9,21z"/>
						<path class="st5" d="M67.7,22.3c-0.5,0-1-0.1-1.5-0.4c-0.5-0.2-0.8-0.6-1-1v1.2h-1.6V10.7h1.6v4.6c0.2-0.4,0.6-0.7,1-1
							s1-0.4,1.5-0.4c1.2,0,2.1,0.4,2.8,1.2s1,1.8,1,3c0,1.2-0.3,2.2-1,3C69.9,21.9,68.9,22.3,67.7,22.3z M65.7,20.1
							c0.5,0.5,1.1,0.8,1.8,0.8c0.7,0,1.3-0.3,1.8-0.8c0.5-0.5,0.7-1.2,0.7-2c0-0.8-0.2-1.5-0.7-2c-0.5-0.5-1.1-0.8-1.8-0.8
							c-0.7,0-1.3,0.3-1.8,0.8c-0.5,0.5-0.7,1.2-0.7,2C65.1,19,65.3,19.6,65.7,20.1z"/>
						<path class="st5" d="M76.2,14c1,0,1.9,0.3,2.5,0.8c0.6,0.5,1,1.3,1,2.2v5.2h-1.6v-1.3c-0.2,0.4-0.5,0.8-1,1
							c-0.5,0.3-1,0.4-1.6,0.4c-0.8,0-1.5-0.2-2-0.7s-0.8-1-0.8-1.8c0-0.8,0.3-1.4,0.8-1.8s1.3-0.7,2.3-0.7h1.7
							c0.4,0,0.5-0.2,0.5-0.5c0-0.5-0.2-0.9-0.5-1.2s-0.8-0.4-1.4-0.4c-0.5,0-1,0.1-1.4,0.4c-0.4,0.3-0.6,0.7-0.6,1.1h-1.4
							c0.1-0.8,0.4-1.5,1.1-2C74.5,14.2,75.3,14,76.2,14z M75.8,21c0.7,0,1.3-0.2,1.7-0.7c0.4-0.4,0.6-1,0.6-1.8v-0.2h-2.1
							c-0.5,0-1,0.1-1.3,0.4c-0.3,0.2-0.5,0.6-0.5,1c0,0.4,0.1,0.7,0.4,0.9S75.4,21,75.8,21z"/>
						<path class="st5" d="M84.3,22.3c-1,0-1.7-0.2-2.3-0.7s-0.9-1.2-1-2h1.5c0,0.5,0.2,0.8,0.5,1.1c0.3,0.3,0.7,0.4,1.3,0.4
							c0.4,0,0.8-0.1,1.1-0.3c0.3-0.2,0.4-0.5,0.4-0.8c0-0.4-0.2-0.7-0.5-0.9c-0.3-0.2-0.7-0.3-1.1-0.4c-0.4-0.1-0.9-0.1-1.3-0.2
							s-0.8-0.3-1.1-0.7c-0.3-0.3-0.5-0.8-0.5-1.5c0-0.7,0.3-1.3,0.8-1.7s1.2-0.6,2.1-0.6c0.9,0,1.6,0.2,2.2,0.7s0.9,1.1,0.9,1.8
							h-1.5c-0.1-0.4-0.3-0.7-0.6-1c-0.3-0.2-0.7-0.3-1.1-0.3c-0.4,0-0.8,0.1-1,0.3c-0.3,0.2-0.4,0.4-0.4,0.8c0,0.4,0.2,0.6,0.5,0.8
							s0.7,0.3,1.2,0.3c0.5,0,0.9,0.1,1.4,0.2s0.8,0.3,1.2,0.7c0.3,0.4,0.5,0.9,0.5,1.6c0,0.7-0.3,1.3-0.8,1.8
							C86,22.1,85.2,22.3,84.3,22.3z"/>
						<path class="st5" d="M94.7,19.5h1.6c-0.2,0.8-0.6,1.5-1.2,2c-0.7,0.5-1.5,0.8-2.5,0.8c-1.2,0-2.2-0.4-2.9-1.2
							c-0.7-0.8-1.1-1.8-1.1-3c0-1.2,0.3-2.2,1-2.9c0.7-0.8,1.6-1.2,2.8-1.2c1.2,0,2.1,0.4,2.8,1.1c0.7,0.7,1,1.6,1,2.7
							c0,0.2,0,0.4,0,0.6H90c0.1,0.8,0.3,1.4,0.8,1.9c0.5,0.5,1,0.7,1.7,0.7C93.7,20.9,94.4,20.5,94.7,19.5z M92.3,15.2
							c-1.3,0-2.1,0.7-2.3,2h4.6c-0.1-0.6-0.3-1.1-0.7-1.5S93,15.2,92.3,15.2z"/>
						<path class="st5" d="M100.5,22.3c-0.9,0-1.7-0.2-2.3-0.7c-0.6-0.5-0.9-1.2-1-2h1.5c0,0.5,0.2,0.8,0.5,1.1
							c0.3,0.3,0.7,0.4,1.3,0.4c0.4,0,0.8-0.1,1.1-0.3c0.3-0.2,0.4-0.5,0.4-0.8c0-0.4-0.2-0.7-0.5-0.9c-0.3-0.2-0.7-0.3-1.1-0.4
							c-0.4-0.1-0.9-0.1-1.3-0.2c-0.4-0.1-0.8-0.3-1.1-0.7s-0.5-0.8-0.5-1.5c0-0.7,0.3-1.3,0.8-1.7s1.2-0.6,2.1-0.6
							c0.9,0,1.6,0.2,2.2,0.7s0.9,1.1,0.9,1.8H102c-0.1-0.4-0.3-0.7-0.6-1c-0.3-0.2-0.7-0.3-1.1-0.3c-0.4,0-0.8,0.1-1,0.3
							c-0.3,0.2-0.4,0.4-0.4,0.8c0,0.4,0.2,0.6,0.5,0.8s0.7,0.3,1.2,0.3s0.9,0.1,1.4,0.2c0.5,0.1,0.8,0.3,1.2,0.7
							c0.3,0.4,0.5,0.9,0.5,1.6c0,0.7-0.3,1.3-0.8,1.8C102.1,22.1,101.4,22.3,100.5,22.3z"/>
						<path class="st5" d="M108.6,17.7v-1.3h6v1.3H108.6z"/>
						<path class="st5" d="M120.2,22.1V10.9h4.1c1.1,0,1.9,0.3,2.5,0.8c0.6,0.5,0.9,1.2,0.9,2.1c0,0.5-0.1,0.9-0.4,1.3
							c-0.3,0.4-0.6,0.7-1,0.9c0.6,0.2,1.1,0.6,1.4,1c0.4,0.5,0.5,1.1,0.5,1.8c0,1-0.3,1.8-1,2.4c-0.7,0.6-1.6,0.9-2.8,0.9H120.2z
							 M121.9,15.5h2.4c1.3,0,1.9-0.5,1.9-1.6c0-1-0.6-1.6-1.9-1.6h-2.4V15.5z M121.9,20.7h2.5c1.6,0,2.3-0.6,2.3-1.9
							s-0.8-1.9-2.3-1.9h-2.5V20.7z"/>
						<path class="st5" d="M135.7,19.5h1.6c-0.2,0.8-0.6,1.5-1.2,2c-0.7,0.5-1.5,0.8-2.5,0.8c-1.2,0-2.2-0.4-2.9-1.2
							c-0.7-0.8-1.1-1.8-1.1-3c0-1.2,0.3-2.2,1-2.9c0.7-0.8,1.6-1.2,2.8-1.2c1.2,0,2.1,0.4,2.8,1.1c0.7,0.7,1,1.6,1,2.7
							c0,0.2,0,0.4,0,0.6H131c0.1,0.8,0.3,1.4,0.8,1.9c0.5,0.5,1,0.7,1.7,0.7C134.7,20.9,135.5,20.5,135.7,19.5z M133.4,15.2
							c-1.3,0-2.1,0.7-2.3,2h4.6c-0.1-0.6-0.3-1.1-0.7-1.5S134,15.2,133.4,15.2z"/>
						<path class="st5" d="M144.8,14.1h1.6v8.4c0,0.8-0.3,1.5-0.8,2.1c-0.6,0.5-1.3,0.8-2.2,0.8h-3.9v-1.3h3.7
							c0.5,0,0.9-0.2,1.2-0.5s0.4-0.7,0.4-1.2v-1.3c-0.2,0.3-0.5,0.6-1,0.8c-0.5,0.2-1,0.3-1.6,0.3c-1.2,0-2.2-0.4-2.8-1.2
							c-0.7-0.8-1-1.8-1-3c0-1.2,0.3-2.2,1-3s1.6-1.2,2.8-1.2c0.5,0,1,0.1,1.5,0.3c0.5,0.2,0.8,0.5,1.1,0.9V14.1z M140.6,20.1
							c0.4,0.5,1,0.8,1.8,0.8c0.7,0,1.3-0.3,1.8-0.8c0.5-0.5,0.7-1.2,0.7-2c0-0.9-0.2-1.5-0.7-2c-0.5-0.5-1.1-0.8-1.8-0.8
							c-0.7,0-1.3,0.3-1.8,0.8c-0.4,0.5-0.7,1.2-0.7,2C140,19,140.2,19.6,140.6,20.1z"/>
						<path class="st5" d="M148.3,10.7h1.7v2h-1.7V10.7z M148.4,22.1v-8.1h1.6v8.1H148.4z"/>
						<path class="st5" d="M151.9,22.1v-8.1h1.6v1.4c0.2-0.5,0.5-0.9,1-1.2s1-0.4,1.6-0.4c0.9,0,1.6,0.3,2.2,0.9
							c0.5,0.6,0.8,1.4,0.8,2.3v5h-1.6v-4.7c0-0.6-0.2-1.2-0.5-1.6s-0.8-0.6-1.4-0.6c-0.6,0-1.1,0.2-1.6,0.7c-0.4,0.5-0.6,1-0.6,1.7
							v4.4H151.9z"/>
						<path class="st5" d="M161.1,22.1v-8.1h1.6v1.4c0.2-0.5,0.5-0.9,1-1.2c0.5-0.3,1-0.4,1.6-0.4c0.9,0,1.6,0.3,2.2,0.9
							c0.5,0.6,0.8,1.4,0.8,2.3v5h-1.6v-4.7c0-0.6-0.2-1.2-0.5-1.6s-0.8-0.6-1.4-0.6c-0.6,0-1.1,0.2-1.6,0.7c-0.4,0.5-0.6,1-0.6,1.7
							v4.4H161.1z"/>
						<path class="st5" d="M176,19.5h1.6c-0.2,0.8-0.6,1.5-1.2,2c-0.7,0.5-1.5,0.8-2.5,0.8c-1.2,0-2.2-0.4-2.9-1.2
							c-0.7-0.8-1.1-1.8-1.1-3c0-1.2,0.3-2.2,1-2.9c0.7-0.8,1.6-1.2,2.8-1.2c1.2,0,2.1,0.4,2.8,1.1c0.7,0.7,1,1.6,1,2.7
							c0,0.2,0,0.4,0,0.6h-6.2c0.1,0.8,0.3,1.4,0.8,1.9c0.5,0.5,1,0.7,1.7,0.7C175,20.9,175.7,20.5,176,19.5z M173.6,15.2
							c-1.3,0-2.1,0.7-2.3,2h4.6c-0.1-0.6-0.3-1.1-0.7-1.5S174.3,15.2,173.6,15.2z"/>
						<path class="st5" d="M183.7,15.4h-1.2c-1.3,0-2,1-2,3.1v3.6H179v-8.1h1.6v1.6c0.2-0.5,0.4-0.9,0.8-1.2
							c0.3-0.2,0.8-0.4,1.4-0.4h1V15.4z"/>
					</g>
				</g>
			</g>
			<g transform="translate(670.000000, 870.000000)">
				<g>
					<path class="st3" d="M6,0h201c3.3,0,6,2.7,6,6v24c0,3.3-2.7,6-6,6H6c-3.3,0-6-2.7-6-6V6C0,2.7,2.7,0,6,0z"/>
					<g class="st4">
						<path class="st5" d="M46.3,22.1V10.9h3.4c1.6,0,3,0.5,4,1.5c1.1,1,1.6,2.4,1.6,4.1c0,1.8-0.5,3.1-1.6,4.1
							c-1.1,1-2.4,1.5-4,1.5H46.3z M47.9,20.7h1.7c1.1,0,2.1-0.3,2.9-1s1.2-1.7,1.2-3.1s-0.4-2.4-1.2-3.1s-1.7-1-2.9-1h-1.7V20.7z"
							/>
						<path class="st5" d="M60.1,14c1,0,1.9,0.3,2.5,0.8c0.6,0.5,1,1.3,1,2.2v5.2H62v-1.3c-0.2,0.4-0.5,0.8-1,1
							c-0.5,0.3-1,0.4-1.6,0.4c-0.8,0-1.5-0.2-2-0.7c-0.5-0.4-0.8-1-0.8-1.8c0-0.8,0.3-1.4,0.8-1.8s1.3-0.7,2.3-0.7h1.7
							c0.4,0,0.5-0.2,0.5-0.5c0-0.5-0.2-0.9-0.5-1.2s-0.8-0.4-1.4-0.4c-0.5,0-1,0.1-1.4,0.4s-0.6,0.7-0.6,1.1h-1.4
							c0.1-0.8,0.4-1.5,1.1-2C58.4,14.2,59.2,14,60.1,14z M59.7,21c0.7,0,1.3-0.2,1.7-0.7c0.4-0.4,0.6-1,0.6-1.8v-0.2h-2.1
							c-0.5,0-1,0.1-1.3,0.4c-0.3,0.2-0.5,0.6-0.5,1c0,0.4,0.1,0.7,0.4,0.9S59.3,21,59.7,21z"/>
						<path class="st5" d="M66.2,11.6h1.6v2.5h2.4v1.3h-2.4v4c0,0.4,0.1,0.8,0.3,1c0.2,0.2,0.5,0.4,0.9,0.4h1.1v1.3h-1.3
							c-0.8,0-1.5-0.2-2-0.7c-0.5-0.5-0.7-1.1-0.7-1.9v-4.1h-1.6v-1.3h1.6V11.6z"/>
						<path class="st5" d="M74.4,14c1,0,1.9,0.3,2.5,0.8c0.6,0.5,1,1.3,1,2.2v5.2h-1.6v-1.3c-0.2,0.4-0.5,0.8-1,1
							c-0.5,0.3-1,0.4-1.6,0.4c-0.8,0-1.5-0.2-2-0.7c-0.5-0.4-0.8-1-0.8-1.8c0-0.8,0.3-1.4,0.8-1.8s1.3-0.7,2.3-0.7h1.7
							c0.4,0,0.5-0.2,0.5-0.5c0-0.5-0.2-0.9-0.5-1.2s-0.8-0.4-1.4-0.4c-0.5,0-1,0.1-1.4,0.4s-0.6,0.7-0.6,1.1h-1.4
							c0.1-0.8,0.4-1.5,1.1-2C72.7,14.2,73.5,14,74.4,14z M74,21c0.7,0,1.3-0.2,1.7-0.7c0.4-0.4,0.6-1,0.6-1.8v-0.2h-2.1
							c-0.5,0-1,0.1-1.3,0.4c-0.3,0.2-0.5,0.6-0.5,1c0,0.4,0.1,0.7,0.4,0.9S73.5,21,74,21z"/>
						<path class="st5" d="M83.8,22.3c-0.5,0-1-0.1-1.5-0.4c-0.5-0.2-0.8-0.6-1-1v1.2h-1.6V10.7h1.6v4.6c0.2-0.4,0.6-0.7,1-1
							c0.5-0.2,1-0.4,1.5-0.4c1.2,0,2.1,0.4,2.8,1.2s1,1.8,1,3c0,1.2-0.3,2.2-1,3C86,21.9,85,22.3,83.8,22.3z M81.8,20.1
							c0.5,0.5,1.1,0.8,1.8,0.8c0.7,0,1.3-0.3,1.8-0.8c0.5-0.5,0.7-1.2,0.7-2c0-0.8-0.2-1.5-0.7-2c-0.5-0.5-1.1-0.8-1.8-0.8
							c-0.7,0-1.3,0.3-1.8,0.8c-0.5,0.5-0.7,1.2-0.7,2C81.2,19,81.4,19.6,81.8,20.1z"/>
						<path class="st5" d="M92.3,14c1,0,1.9,0.3,2.5,0.8c0.6,0.5,1,1.3,1,2.2v5.2h-1.6v-1.3c-0.2,0.4-0.5,0.8-1,1
							c-0.5,0.3-1,0.4-1.6,0.4c-0.8,0-1.5-0.2-2-0.7c-0.5-0.4-0.8-1-0.8-1.8c0-0.8,0.3-1.4,0.8-1.8s1.3-0.7,2.3-0.7h1.7
							c0.4,0,0.5-0.2,0.5-0.5c0-0.5-0.2-0.9-0.5-1.2s-0.8-0.4-1.4-0.4c-0.5,0-1,0.1-1.4,0.4s-0.6,0.7-0.6,1.1h-1.4
							c0.1-0.8,0.4-1.5,1.1-2C90.6,14.2,91.4,14,92.3,14z M91.9,21c0.7,0,1.3-0.2,1.7-0.7c0.4-0.4,0.6-1,0.6-1.8v-0.2h-2.1
							c-0.5,0-1,0.1-1.3,0.4c-0.3,0.2-0.5,0.6-0.5,1c0,0.4,0.1,0.7,0.4,0.9S91.5,21,91.9,21z"/>
						<path class="st5" d="M100.4,22.3c-0.9,0-1.7-0.2-2.3-0.7c-0.6-0.5-0.9-1.2-1-2h1.5c0,0.5,0.2,0.8,0.5,1.1
							c0.3,0.3,0.7,0.4,1.3,0.4c0.4,0,0.8-0.1,1.1-0.3c0.3-0.2,0.4-0.5,0.4-0.8c0-0.4-0.2-0.7-0.5-0.9c-0.3-0.2-0.7-0.3-1.1-0.4
							c-0.4-0.1-0.9-0.1-1.3-0.2c-0.4-0.1-0.8-0.3-1.1-0.7s-0.5-0.8-0.5-1.5c0-0.7,0.3-1.3,0.8-1.7s1.2-0.6,2.1-0.6
							c0.9,0,1.6,0.2,2.2,0.7s0.9,1.1,0.9,1.8h-1.5c-0.1-0.4-0.3-0.7-0.6-1c-0.3-0.2-0.7-0.3-1.1-0.3c-0.4,0-0.8,0.1-1,0.3
							c-0.3,0.2-0.4,0.4-0.4,0.8c0,0.4,0.2,0.6,0.5,0.8s0.7,0.3,1.2,0.3s0.9,0.1,1.4,0.2c0.5,0.1,0.8,0.3,1.2,0.7
							c0.3,0.4,0.5,0.9,0.5,1.6c0,0.7-0.3,1.3-0.8,1.8C102.1,22.1,101.3,22.3,100.4,22.3z"/>
						<path class="st5" d="M110.8,19.5h1.6c-0.1,0.8-0.6,1.5-1.2,2c-0.7,0.5-1.5,0.8-2.5,0.8c-1.2,0-2.2-0.4-2.9-1.2
							c-0.7-0.8-1.1-1.8-1.1-3c0-1.2,0.3-2.2,1-2.9c0.7-0.8,1.6-1.2,2.8-1.2c1.2,0,2.1,0.4,2.8,1.1s1,1.6,1,2.7c0,0.2,0,0.4,0,0.6
							h-6.2c0.1,0.8,0.3,1.4,0.8,1.9c0.5,0.5,1,0.7,1.7,0.7C109.8,20.9,110.5,20.5,110.8,19.5z M108.4,15.2c-1.3,0-2.1,0.7-2.3,2
							h4.6c-0.1-0.6-0.3-1.1-0.7-1.5S109.1,15.2,108.4,15.2z"/>
						<path class="st5" d="M116.6,22.3c-1,0-1.7-0.2-2.3-0.7s-0.9-1.2-1-2h1.5c0,0.5,0.2,0.8,0.5,1.1c0.3,0.3,0.7,0.4,1.3,0.4
							c0.4,0,0.8-0.1,1.1-0.3c0.3-0.2,0.4-0.5,0.4-0.8c0-0.4-0.2-0.7-0.5-0.9c-0.3-0.2-0.7-0.3-1.1-0.4c-0.4-0.1-0.9-0.1-1.3-0.2
							s-0.8-0.3-1.1-0.7c-0.3-0.3-0.5-0.8-0.5-1.5c0-0.7,0.3-1.3,0.8-1.7s1.2-0.6,2.1-0.6c0.9,0,1.6,0.2,2.2,0.7s0.9,1.1,0.9,1.8
							h-1.5c-0.1-0.4-0.3-0.7-0.6-1c-0.3-0.2-0.7-0.3-1.1-0.3c-0.4,0-0.8,0.1-1,0.3c-0.3,0.2-0.4,0.4-0.4,0.8c0,0.4,0.2,0.6,0.5,0.8
							s0.7,0.3,1.2,0.3c0.5,0,0.9,0.1,1.4,0.2s0.8,0.3,1.2,0.7c0.3,0.4,0.5,0.9,0.5,1.6c0,0.7-0.3,1.3-0.8,1.8
							C118.2,22.1,117.5,22.3,116.6,22.3z"/>
						<path class="st5" d="M124.7,17.7v-1.3h6v1.3H124.7z"/>
						<path class="st5" d="M136.3,22.1V10.9h4.3c1.1,0,2,0.3,2.6,0.9s1,1.4,1,2.4c0,1-0.3,1.8-1,2.4s-1.5,0.9-2.6,0.9H138v4.4H136.3
							z M138,16.3h2.6c0.7,0,1.2-0.2,1.5-0.5c0.3-0.4,0.5-0.8,0.5-1.4s-0.2-1-0.5-1.4c-0.3-0.4-0.8-0.5-1.5-0.5H138V16.3z"/>
						<path class="st5" d="M145.8,22.1V10.9h3.4c1.6,0,3,0.5,4,1.5c1.1,1,1.6,2.4,1.6,4.1c0,1.8-0.5,3.1-1.6,4.1
							c-1.1,1-2.4,1.5-4,1.5H145.8z M147.5,20.7h1.7c1.1,0,2.1-0.3,2.9-1s1.2-1.7,1.2-3.1s-0.4-2.4-1.2-3.1s-1.7-1-2.9-1h-1.7V20.7z
							"/>
						<path class="st5" d="M161.7,22.3c-1.6,0-2.9-0.5-4-1.6c-1.1-1.1-1.6-2.5-1.6-4.1s0.5-3,1.6-4.1c1.1-1.1,2.4-1.6,4-1.6
							c1.6,0,2.9,0.5,4,1.6c1.1,1.1,1.6,2.5,1.6,4.1s-0.5,3-1.6,4.1C164.6,21.7,163.3,22.3,161.7,22.3z M158.9,19.6
							c0.7,0.8,1.7,1.2,2.8,1.2s2-0.4,2.8-1.2c0.7-0.8,1.1-1.8,1.1-3s-0.4-2.2-1.1-3c-0.7-0.8-1.7-1.2-2.8-1.2s-2,0.4-2.8,1.2
							c-0.7,0.8-1.1,1.8-1.1,3S158.2,18.8,158.9,19.6z"/>
					</g>
				</g>
			</g>
			<g transform="translate(223.000000, 404.000000)">
				<g>
					<path class="st3" d="M6,0h201c3.3,0,6,2.7,6,6v24c0,3.3-2.7,6-6,6H6c-3.3,0-6-2.7-6-6V6C0,2.7,2.7,0,6,0z"/>
					<g class="st4">
						<path class="st5" d="M60.5,22.1V10.9h4.3c1.1,0,2,0.3,2.6,0.9c0.7,0.6,1,1.4,1,2.4c0,1-0.3,1.8-1,2.4
							c-0.7,0.6-1.5,0.9-2.6,0.9h-2.7v4.4H60.5z M62.2,16.3h2.6c0.7,0,1.2-0.2,1.5-0.5c0.3-0.4,0.5-0.8,0.5-1.4s-0.2-1-0.5-1.4
							c-0.3-0.4-0.8-0.5-1.5-0.5h-2.6V16.3z"/>
						<path class="st5" d="M77.2,10.9h1.7v11.2h-1.7v-5h-5.6v5H70V10.9h1.7v4.7h5.6V10.9z"/>
						<path class="st5" d="M81.2,22.1V10.9h4.3c1.1,0,2,0.3,2.6,0.9c0.7,0.6,1,1.4,1,2.4c0,1-0.3,1.8-1,2.4
							c-0.7,0.6-1.5,0.9-2.6,0.9h-2.7v4.4H81.2z M82.8,16.3h2.6c0.7,0,1.2-0.2,1.5-0.5c0.3-0.4,0.5-0.8,0.5-1.4s-0.2-1-0.5-1.4
							c-0.3-0.4-0.8-0.5-1.5-0.5h-2.6V16.3z"/>
						<path class="st5" d="M94,17.7v-1.3h6v1.3H94z"/>
						<path class="st5" d="M105.6,22.1V10.9h1.9l5.4,8.6v-8.6h1.7v11.2h-1.8l-5.4-8.6v8.6H105.6z"/>
						<path class="st5" d="M123.3,21.1c-0.8,0.8-1.8,1.2-3,1.2c-1.2,0-2.2-0.4-3-1.2c-0.8-0.8-1.2-1.8-1.2-3c0-1.2,0.4-2.2,1.2-3
							c0.8-0.8,1.8-1.2,3-1.2c1.2,0,2.2,0.4,3,1.2c0.8,0.8,1.2,1.8,1.2,3C124.5,19.3,124.1,20.3,123.3,21.1z M120.3,20.9
							c0.8,0,1.4-0.3,1.8-0.8c0.5-0.5,0.7-1.2,0.7-2s-0.2-1.5-0.7-2c-0.5-0.5-1.1-0.8-1.8-0.8c-0.8,0-1.4,0.3-1.9,0.8
							c-0.5,0.5-0.7,1.2-0.7,2s0.2,1.5,0.7,2C118.9,20.7,119.5,20.9,120.3,20.9z"/>
						<path class="st5" d="M127.8,22.1l-3-8.1h1.6l2.1,6.1l2.1-6.1h1.6l-2.9,8.1H127.8z"/>
						<path class="st5" d="M133.4,10.7h1.7v2h-1.7V10.7z M133.5,22.1v-8.1h1.6v8.1H133.5z"/>
						<path class="st5" d="M140.5,22.3c-1.2,0-2.2-0.4-2.9-1.2c-0.7-0.8-1.1-1.8-1.1-3c0-1.2,0.4-2.1,1.1-3c0.7-0.8,1.7-1.2,2.9-1.2
							c1,0,1.8,0.3,2.5,0.8s1.1,1.2,1.2,2.1h-1.6c-0.1-0.5-0.3-0.8-0.7-1.1c-0.4-0.3-0.9-0.4-1.4-0.4c-0.8,0-1.4,0.3-1.8,0.8
							s-0.6,1.2-0.6,2c0,0.8,0.2,1.5,0.6,2c0.4,0.5,1,0.8,1.8,0.8c0.5,0,1-0.1,1.4-0.4c0.4-0.3,0.6-0.6,0.8-1.1h1.5
							c-0.1,0.9-0.5,1.5-1.2,2.1C142.4,22,141.6,22.3,140.5,22.3z"/>
						<path class="st5" d="M151.5,19.5h1.6c-0.1,0.8-0.6,1.5-1.2,2c-0.7,0.5-1.5,0.8-2.5,0.8c-1.2,0-2.2-0.4-2.9-1.2s-1.1-1.8-1.1-3
							c0-1.2,0.3-2.2,1-2.9c0.7-0.8,1.6-1.2,2.8-1.2c1.2,0,2.1,0.4,2.8,1.1c0.7,0.7,1,1.6,1,2.7c0,0.2,0,0.4,0,0.6h-6.2
							c0.1,0.8,0.3,1.4,0.8,1.9c0.5,0.5,1,0.7,1.7,0.7C150.6,20.9,151.3,20.5,151.5,19.5z M149.2,15.2c-1.3,0-2.1,0.7-2.3,2h4.6
							c-0.1-0.6-0.3-1.1-0.7-1.5S149.8,15.2,149.2,15.2z"/>
					</g>
				</g>
			</g>
			<g transform="translate(0.000000, 720.000000)">
				<g>
					<path class="st3" d="M6,0h201c3.3,0,6,2.7,6,6v24c0,3.3-2.7,6-6,6H6c-3.3,0-6-2.7-6-6V6C0,2.7,2.7,0,6,0z"/>
					<g class="st4">
						<path class="st5" d="M52.3,22.1V10.9h4.3c1.1,0,2,0.3,2.6,0.9c0.7,0.6,1,1.4,1,2.4c0,1-0.3,1.8-1,2.4
							c-0.7,0.6-1.5,0.9-2.6,0.9H54v4.4H52.3z M54,16.3h2.6c0.7,0,1.2-0.2,1.5-0.5c0.3-0.4,0.5-0.8,0.5-1.4s-0.2-1-0.5-1.4
							c-0.3-0.4-0.8-0.5-1.5-0.5H54V16.3z"/>
						<path class="st5" d="M69,10.9h1.7v11.2H69v-5h-5.6v5h-1.7V10.9h1.7v4.7H69V10.9z"/>
						<path class="st5" d="M72.9,22.1V10.9h4.3c1.1,0,2,0.3,2.6,0.9c0.7,0.6,1,1.4,1,2.4c0,1-0.3,1.8-1,2.4
							c-0.7,0.6-1.5,0.9-2.6,0.9h-2.7v4.4H72.9z M74.6,16.3h2.6c0.7,0,1.2-0.2,1.5-0.5c0.3-0.4,0.5-0.8,0.5-1.4s-0.2-1-0.5-1.4
							c-0.3-0.4-0.8-0.5-1.5-0.5h-2.6V16.3z"/>
						<path class="st5" d="M85.8,17.7v-1.3h6v1.3H85.8z"/>
						<path class="st5" d="M99.9,22.1v-9.7h-3.5v-1.5h8.7v1.5h-3.5v9.7H99.9z"/>
						<path class="st5" d="M111.4,21.1c-0.8,0.8-1.8,1.2-3,1.2c-1.2,0-2.2-0.4-3-1.2c-0.8-0.8-1.2-1.8-1.2-3c0-1.2,0.4-2.2,1.2-3
							c0.8-0.8,1.8-1.2,3-1.2c1.2,0,2.2,0.4,3,1.2c0.8,0.8,1.2,1.8,1.2,3C112.6,19.3,112.2,20.3,111.4,21.1z M108.4,20.9
							c0.8,0,1.4-0.3,1.8-0.8c0.5-0.5,0.7-1.2,0.7-2s-0.2-1.5-0.7-2c-0.5-0.5-1.1-0.8-1.8-0.8c-0.8,0-1.4,0.3-1.9,0.8
							c-0.5,0.5-0.7,1.2-0.7,2s0.2,1.5,0.7,2C107,20.7,107.6,20.9,108.4,20.9z"/>
						<path class="st5" d="M120.1,14.1h1.6v8.4c0,0.8-0.3,1.5-0.8,2.1c-0.6,0.5-1.3,0.8-2.2,0.8h-3.9v-1.3h3.7
							c0.5,0,0.9-0.2,1.2-0.5c0.3-0.3,0.4-0.7,0.4-1.2v-1.3c-0.2,0.3-0.5,0.6-1,0.8c-0.5,0.2-1,0.3-1.6,0.3c-1.2,0-2.2-0.4-2.8-1.2
							c-0.7-0.8-1-1.8-1-3c0-1.2,0.3-2.2,1-3s1.6-1.2,2.8-1.2c0.5,0,1,0.1,1.5,0.3c0.5,0.2,0.8,0.5,1.1,0.9V14.1z M115.9,20.1
							c0.4,0.5,1,0.8,1.8,0.8s1.3-0.3,1.8-0.8c0.5-0.5,0.7-1.2,0.7-2c0-0.9-0.2-1.5-0.7-2c-0.5-0.5-1.1-0.8-1.8-0.8
							s-1.3,0.3-1.8,0.8c-0.4,0.5-0.7,1.2-0.7,2C115.3,19,115.5,19.6,115.9,20.1z"/>
						<path class="st5" d="M129.5,19.5h1.6c-0.1,0.8-0.6,1.5-1.2,2c-0.7,0.5-1.5,0.8-2.5,0.8c-1.2,0-2.2-0.4-2.9-1.2s-1.1-1.8-1.1-3
							c0-1.2,0.3-2.2,1-2.9c0.7-0.8,1.6-1.2,2.8-1.2c1.2,0,2.1,0.4,2.8,1.1c0.7,0.7,1,1.6,1,2.7c0,0.2,0,0.4,0,0.6h-6.2
							c0.1,0.8,0.3,1.4,0.8,1.9c0.5,0.5,1,0.7,1.7,0.7C128.5,20.9,129.2,20.5,129.5,19.5z M127.1,15.2c-1.3,0-2.1,0.7-2.3,2h4.6
							c-0.1-0.6-0.3-1.1-0.7-1.5S127.8,15.2,127.1,15.2z"/>
						<path class="st5" d="M133.4,11.6h1.6v2.5h2.4v1.3h-2.4v4c0,0.4,0.1,0.8,0.3,1c0.2,0.2,0.5,0.4,0.9,0.4h1.1v1.3H136
							c-0.8,0-1.5-0.2-2-0.7c-0.5-0.5-0.7-1.1-0.7-1.9v-4.1h-1.6v-1.3h1.6V11.6z"/>
						<path class="st5" d="M138.9,22.1V10.7h1.6v4.8c0.2-0.5,0.5-0.9,1-1.2c0.5-0.3,1-0.4,1.6-0.4c0.9,0,1.6,0.3,2.2,0.9
							s0.8,1.4,0.8,2.3v5h-1.6v-4.7c0-0.6-0.2-1.2-0.5-1.6s-0.8-0.6-1.4-0.6c-0.6,0-1.1,0.2-1.6,0.7c-0.4,0.5-0.6,1-0.6,1.7v4.4
							H138.9z"/>
						<path class="st5" d="M153.8,19.5h1.6c-0.1,0.8-0.6,1.5-1.2,2c-0.7,0.5-1.5,0.8-2.5,0.8c-1.2,0-2.2-0.4-2.9-1.2s-1.1-1.8-1.1-3
							c0-1.2,0.3-2.2,1-2.9c0.7-0.8,1.6-1.2,2.8-1.2c1.2,0,2.1,0.4,2.8,1.1c0.7,0.7,1,1.6,1,2.7c0,0.2,0,0.4,0,0.6h-6.2
							c0.1,0.8,0.3,1.4,0.8,1.9c0.5,0.5,1,0.7,1.7,0.7C152.8,20.9,153.6,20.5,153.8,19.5z M151.5,15.2c-1.3,0-2.1,0.7-2.3,2h4.6
							c-0.1-0.6-0.3-1.1-0.7-1.5S152.1,15.2,151.5,15.2z"/>
						<path class="st5" d="M161.5,15.4h-1.2c-1.3,0-2,1-2,3.1v3.6h-1.6v-8.1h1.6v1.6c0.2-0.5,0.4-0.9,0.8-1.2
							c0.3-0.2,0.8-0.4,1.4-0.4h1V15.4z"/>
					</g>
				</g>
			</g>
			<g transform="translate(670.000000, 404.000000)">
				<g>
					<path class="st3" d="M6,0h201c3.3,0,6,2.7,6,6v24c0,3.3-2.7,6-6,6H6c-3.3,0-6-2.7-6-6V6C0,2.7,2.7,0,6,0z"/>
					<g class="st4">
						<path class="st5" d="M31.9,10.9h1.7v11.2h-1.7v-5h-5.6v5h-1.7V10.9h1.7v4.7h5.6V10.9z"/>
						<path class="st5" d="M38.4,22.1v-9.7h-3.5v-1.5h8.7v1.5h-3.5v9.7H38.4z"/>
						<path class="st5" d="M44.9,22.1V10.9h2l3.6,8.9l3.6-8.9h2v11.2h-1.6v-8.3l-3.3,8.3h-1.3l-3.4-8.3v8.3H44.9z"/>
						<path class="st5" d="M58.4,22.1V10.9H60v9.7h5.5v1.5H58.4z"/>
						<path class="st5" d="M65.9,22.2l5-11.2h1.4l-5,11.2H65.9z"/>
						<path class="st5" d="M78.1,22.3c-1.5,0-2.8-0.5-3.9-1.5c-1.1-1-1.6-2.4-1.6-4.2c0-1.2,0.3-2.3,0.8-3.2c0.5-0.9,1.2-1.5,2-1.9
							c0.8-0.4,1.7-0.6,2.7-0.6c1.3,0,2.4,0.3,3.3,1s1.4,1.6,1.6,2.7h-1.7c-0.1-0.7-0.4-1.2-1-1.6c-0.6-0.4-1.3-0.6-2.1-0.6
							c-1.1,0-2,0.4-2.7,1.1c-0.7,0.7-1,1.8-1,3.1s0.3,2.4,1,3.1c0.7,0.7,1.6,1.1,2.7,1.1c0.8,0,1.5-0.2,2.1-0.6
							c0.6-0.4,0.9-1,1-1.6h1.7c-0.1,1.1-0.6,2-1.5,2.7S79.4,22.3,78.1,22.3z"/>
						<path class="st5" d="M88.2,22.3c-1.3,0-2.3-0.3-3-1s-1.2-1.6-1.2-2.8h1.6c0.1,0.7,0.3,1.3,0.8,1.7c0.5,0.4,1.1,0.6,1.9,0.6
							c0.7,0,1.3-0.1,1.8-0.4c0.4-0.3,0.7-0.7,0.7-1.3c0-0.4-0.2-0.8-0.5-1c-0.3-0.3-0.7-0.5-1.2-0.6c-0.5-0.1-1-0.3-1.5-0.4
							c-0.5-0.2-1.1-0.4-1.5-0.6s-0.9-0.5-1.2-1s-0.5-1-0.5-1.6c0-0.9,0.4-1.6,1.1-2.2c0.7-0.6,1.6-0.8,2.8-0.8
							c1.1,0,2.1,0.3,2.8,0.9c0.7,0.6,1.1,1.4,1.2,2.5h-1.6c-0.1-0.6-0.3-1-0.7-1.4s-1-0.5-1.7-0.5c-0.7,0-1.2,0.1-1.6,0.4
							C86.2,13,86,13.4,86,13.8c0,0.4,0.1,0.7,0.4,0.9c0.2,0.2,0.5,0.4,0.9,0.6c0.4,0.1,0.8,0.2,1.2,0.4c0.5,0.1,0.9,0.2,1.4,0.4
							c0.5,0.1,0.9,0.3,1.2,0.6c0.4,0.2,0.7,0.5,0.9,0.9c0.2,0.4,0.4,0.9,0.4,1.5c0,1-0.4,1.8-1.1,2.4C90.4,22,89.4,22.3,88.2,22.3z
							"/>
						<path class="st5" d="M97.7,22.3c-1.3,0-2.3-0.3-3-1s-1.2-1.6-1.2-2.8H95c0.1,0.7,0.3,1.3,0.8,1.7c0.5,0.4,1.1,0.6,1.9,0.6
							c0.7,0,1.3-0.1,1.8-0.4c0.4-0.3,0.7-0.7,0.7-1.3c0-0.4-0.2-0.8-0.5-1c-0.3-0.3-0.7-0.5-1.2-0.6c-0.5-0.1-1-0.3-1.5-0.4
							c-0.5-0.2-1.1-0.4-1.5-0.6s-0.9-0.5-1.2-1s-0.5-1-0.5-1.6c0-0.9,0.4-1.6,1.1-2.2c0.7-0.6,1.6-0.8,2.8-0.8
							c1.1,0,2.1,0.3,2.8,0.9c0.7,0.6,1.1,1.4,1.2,2.5H100c-0.1-0.6-0.3-1-0.7-1.4s-1-0.5-1.7-0.5c-0.7,0-1.2,0.1-1.6,0.4
							c-0.4,0.3-0.6,0.7-0.6,1.1c0,0.4,0.1,0.7,0.4,0.9c0.2,0.2,0.5,0.4,0.9,0.6c0.4,0.1,0.8,0.2,1.2,0.4c0.5,0.1,0.9,0.2,1.4,0.4
							c0.5,0.1,0.9,0.3,1.2,0.6c0.4,0.2,0.7,0.5,0.9,0.9c0.2,0.4,0.4,0.9,0.4,1.5c0,1-0.4,1.8-1.1,2.4C99.9,22,98.9,22.3,97.7,22.3z
							"/>
						<path class="st5" d="M106.8,17.7v-1.3h6v1.3H106.8z"/>
						<path class="st5" d="M126,22.1l-1.1-2.8h-4.8l-1.1,2.8h-1.7l4.4-11.2h1.5l4.4,11.2H126z M120.7,17.8h3.6l-1.8-4.8L120.7,17.8z
							"/>
						<path class="st5" d="M132.1,22.3c-1.2,0-2.2-0.4-2.8-1.2c-0.7-0.8-1-1.8-1-3c0-1.2,0.3-2.2,1-3s1.6-1.2,2.8-1.2
							c0.5,0,1,0.1,1.5,0.4s0.8,0.6,1.1,1v-4.6h1.6v11.4h-1.6v-1.2c-0.2,0.4-0.6,0.7-1.1,1C133.1,22.2,132.6,22.3,132.1,22.3z
							 M130.5,20.1c0.4,0.5,1,0.8,1.8,0.8c0.7,0,1.3-0.3,1.8-0.8c0.5-0.5,0.7-1.2,0.7-2c0-0.8-0.2-1.5-0.7-2
							c-0.5-0.5-1.1-0.8-1.8-0.8c-0.7,0-1.3,0.3-1.8,0.8c-0.4,0.5-0.7,1.2-0.7,2C129.8,19,130,19.6,130.5,20.1z"/>
						<path class="st5" d="M140.4,22.1l-3-8.1h1.6l2.1,6.1l2.1-6.1h1.6l-2.9,8.1H140.4z"/>
						<path class="st5" d="M148.9,14c1,0,1.9,0.3,2.5,0.8c0.6,0.5,1,1.3,1,2.2v5.2h-1.6v-1.3c-0.2,0.4-0.5,0.8-1,1
							c-0.5,0.3-1,0.4-1.6,0.4c-0.8,0-1.5-0.2-2-0.7c-0.5-0.4-0.8-1-0.8-1.8c0-0.8,0.3-1.4,0.8-1.8s1.3-0.7,2.3-0.7h1.7
							c0.4,0,0.5-0.2,0.5-0.5c0-0.5-0.2-0.9-0.5-1.2s-0.8-0.4-1.4-0.4c-0.5,0-1,0.1-1.4,0.4s-0.6,0.7-0.6,1.1h-1.4
							c0.1-0.8,0.4-1.5,1.1-2C147.2,14.2,148,14,148.9,14z M148.5,21c0.7,0,1.3-0.2,1.7-0.7c0.4-0.4,0.6-1,0.6-1.8v-0.2h-2.1
							c-0.5,0-1,0.1-1.3,0.4c-0.3,0.2-0.5,0.6-0.5,1c0,0.4,0.1,0.7,0.4,0.9S148,21,148.5,21z"/>
						<path class="st5" d="M154.2,22.1v-8.1h1.6v1.4c0.2-0.5,0.5-0.9,1-1.2c0.5-0.3,1-0.4,1.6-0.4c0.9,0,1.6,0.3,2.2,0.9
							c0.5,0.6,0.8,1.4,0.8,2.3v5h-1.6v-4.7c0-0.6-0.2-1.2-0.5-1.6s-0.8-0.6-1.4-0.6c-0.6,0-1.1,0.2-1.6,0.7c-0.4,0.5-0.6,1-0.6,1.7
							v4.4H154.2z"/>
						<path class="st5" d="M166.8,22.3c-1.2,0-2.2-0.4-2.9-1.2c-0.7-0.8-1.1-1.8-1.1-3c0-1.2,0.4-2.1,1.1-3c0.7-0.8,1.7-1.2,2.9-1.2
							c1,0,1.8,0.3,2.5,0.8c0.7,0.5,1.1,1.2,1.2,2.1H169c-0.1-0.5-0.3-0.8-0.7-1.1c-0.4-0.3-0.9-0.4-1.4-0.4c-0.8,0-1.4,0.3-1.8,0.8
							s-0.6,1.2-0.6,2c0,0.8,0.2,1.5,0.6,2c0.4,0.5,1,0.8,1.8,0.8c0.5,0,1-0.1,1.4-0.4c0.4-0.3,0.6-0.6,0.8-1.1h1.5
							c-0.1,0.9-0.5,1.5-1.2,2.1C168.7,22,167.8,22.3,166.8,22.3z"/>
						<path class="st5" d="M177.8,19.5h1.6c-0.1,0.8-0.6,1.5-1.2,2c-0.7,0.5-1.5,0.8-2.5,0.8c-1.2,0-2.2-0.4-2.9-1.2
							c-0.7-0.8-1.1-1.8-1.1-3c0-1.2,0.3-2.2,1-2.9c0.7-0.8,1.6-1.2,2.8-1.2c1.2,0,2.1,0.4,2.8,1.1s1,1.6,1,2.7c0,0.2,0,0.4,0,0.6
							h-6.2c0.1,0.8,0.3,1.4,0.8,1.9c0.5,0.5,1,0.7,1.7,0.7C176.8,20.9,177.6,20.5,177.8,19.5z M175.5,15.2c-1.3,0-2.1,0.7-2.3,2
							h4.6c-0.1-0.6-0.3-1.1-0.7-1.5S176.1,15.2,175.5,15.2z"/>
						<path class="st5" d="M184.3,22.3c-1.2,0-2.2-0.4-2.8-1.2c-0.7-0.8-1-1.8-1-3c0-1.2,0.3-2.2,1-3s1.6-1.2,2.8-1.2
							c0.5,0,1,0.1,1.5,0.4s0.8,0.6,1.1,1v-4.6h1.6v11.4h-1.6v-1.2c-0.2,0.4-0.6,0.7-1.1,1C185.3,22.2,184.8,22.3,184.3,22.3z
							 M182.7,20.1c0.4,0.5,1,0.8,1.8,0.8c0.7,0,1.3-0.3,1.8-0.8c0.5-0.5,0.7-1.2,0.7-2c0-0.8-0.2-1.5-0.7-2
							c-0.5-0.5-1.1-0.8-1.8-0.8c-0.7,0-1.3,0.3-1.8,0.8c-0.4,0.5-0.7,1.2-0.7,2C182,19,182.2,19.6,182.7,20.1z"/>
					</g>
				</g>
			</g>
			<g transform="translate(0.000000, 246.000000)">
				<g>
					<path class="st3" d="M6,0h201c3.3,0,6,2.7,6,6v24c0,3.3-2.7,6-6,6H6c-3.3,0-6-2.7-6-6V6C0,2.7,2.7,0,6,0z"/>
					<g class="st4">
						<path class="st5" d="M61.9,22.3c-1,0-1.8-0.2-2.6-0.6c-0.8-0.4-1.5-1.1-2-1.9c-0.5-0.9-0.8-1.9-0.8-3.2s0.3-2.3,0.8-3.2
							c0.5-0.9,1.2-1.5,2-1.9c0.8-0.4,1.7-0.6,2.7-0.6c1.3,0,2.4,0.4,3.3,1.1c0.9,0.7,1.4,1.6,1.5,2.7h-1.7c-0.1-0.7-0.5-1.2-1-1.7
							s-1.3-0.6-2.1-0.6c-1.1,0-2.1,0.4-2.8,1.1c-0.7,0.8-1.1,1.8-1.1,3.1c0,1.3,0.4,2.4,1.1,3.2c0.7,0.8,1.6,1.2,2.7,1.2
							c0.9,0,1.7-0.2,2.3-0.7c0.6-0.5,1-1.1,1-1.8c0-0.2-0.1-0.4-0.2-0.5c-0.1-0.1-0.3-0.2-0.6-0.2H62v-1.3h2.8
							c0.5,0,0.9,0.2,1.3,0.5c0.4,0.3,0.6,0.8,0.6,1.4v4h-1.5v-1.9c-0.2,0.6-0.7,1.1-1.3,1.5C63.4,22.1,62.7,22.3,61.9,22.3z"/>
						<path class="st5" d="M68.5,10.7h1.7v2h-1.7V10.7z M68.6,22.1v-8.1h1.6v8.1H68.6z"/>
						<path class="st5" d="M73,11.6h1.6v2.5H77v1.3h-2.4v4c0,0.4,0.1,0.8,0.3,1c0.2,0.2,0.5,0.4,0.9,0.4H77v1.3h-1.3
							c-0.8,0-1.5-0.2-2-0.7C73.3,21,73,20.3,73,19.5v-4.1h-1.6v-1.3H73V11.6z"/>
						<path class="st5" d="M81.8,17.7v-1.3h6v1.3H81.8z"/>
						<path class="st5" d="M93.4,22.1V10.9h4.1c1.1,0,1.9,0.3,2.5,0.8c0.6,0.5,0.9,1.2,0.9,2.1c0,0.5-0.1,0.9-0.4,1.3
							c-0.3,0.4-0.6,0.7-1,0.9c0.6,0.2,1.1,0.6,1.4,1c0.4,0.5,0.5,1.1,0.5,1.8c0,1-0.3,1.8-1,2.4c-0.7,0.6-1.6,0.9-2.8,0.9H93.4z
							 M95,15.5h2.4c1.3,0,1.9-0.5,1.9-1.6c0-1-0.6-1.6-1.9-1.6H95V15.5z M95,20.7h2.5c1.6,0,2.3-0.6,2.3-1.9s-0.8-1.9-2.3-1.9H95
							V20.7z"/>
						<path class="st5" d="M108.9,19.5h1.6c-0.1,0.8-0.6,1.5-1.2,2c-0.7,0.5-1.5,0.8-2.5,0.8c-1.2,0-2.2-0.4-2.9-1.2s-1.1-1.8-1.1-3
							c0-1.2,0.3-2.2,1-2.9c0.7-0.8,1.6-1.2,2.8-1.2c1.2,0,2.1,0.4,2.8,1.1c0.7,0.7,1,1.6,1,2.7c0,0.2,0,0.4,0,0.6h-6.2
							c0.1,0.8,0.3,1.4,0.8,1.9c0.5,0.5,1,0.7,1.7,0.7C107.9,20.9,108.6,20.5,108.9,19.5z M106.5,15.2c-1.3,0-2.1,0.7-2.3,2h4.6
							c-0.1-0.6-0.3-1.1-0.7-1.5S107.2,15.2,106.5,15.2z"/>
						<path class="st5" d="M118,14.1h1.6v8.4c0,0.8-0.3,1.5-0.8,2.1c-0.6,0.5-1.3,0.8-2.2,0.8h-3.9v-1.3h3.7c0.5,0,0.9-0.2,1.2-0.5
							c0.3-0.3,0.4-0.7,0.4-1.2v-1.3c-0.2,0.3-0.5,0.6-1,0.8c-0.5,0.2-1,0.3-1.6,0.3c-1.2,0-2.2-0.4-2.8-1.2c-0.7-0.8-1-1.8-1-3
							c0-1.2,0.3-2.2,1-3s1.6-1.2,2.8-1.2c0.5,0,1,0.1,1.5,0.3c0.5,0.2,0.8,0.5,1.1,0.9V14.1z M113.8,20.1c0.4,0.5,1,0.8,1.8,0.8
							s1.3-0.3,1.8-0.8c0.5-0.5,0.7-1.2,0.7-2c0-0.9-0.2-1.5-0.7-2c-0.5-0.5-1.1-0.8-1.8-0.8s-1.3,0.3-1.8,0.8
							c-0.4,0.5-0.7,1.2-0.7,2C113.1,19,113.4,19.6,113.8,20.1z"/>
						<path class="st5" d="M121.5,10.7h1.7v2h-1.7V10.7z M121.6,22.1v-8.1h1.6v8.1H121.6z"/>
						<path class="st5" d="M125.1,22.1v-8.1h1.6v1.4c0.2-0.5,0.5-0.9,1-1.2c0.5-0.3,1-0.4,1.6-0.4c0.9,0,1.6,0.3,2.2,0.9
							s0.8,1.4,0.8,2.3v5h-1.6v-4.7c0-0.6-0.2-1.2-0.5-1.6s-0.8-0.6-1.4-0.6c-0.6,0-1.1,0.2-1.6,0.7c-0.4,0.5-0.6,1-0.6,1.7v4.4
							H125.1z"/>
						<path class="st5" d="M134.2,22.1v-8.1h1.6v1.4c0.2-0.5,0.5-0.9,1-1.2c0.5-0.3,1-0.4,1.6-0.4c0.9,0,1.6,0.3,2.2,0.9
							s0.8,1.4,0.8,2.3v5h-1.6v-4.7c0-0.6-0.2-1.2-0.5-1.6s-0.8-0.6-1.4-0.6c-0.6,0-1.1,0.2-1.6,0.7c-0.4,0.5-0.6,1-0.6,1.7v4.4
							H134.2z"/>
						<path class="st5" d="M149.1,19.5h1.6c-0.1,0.8-0.6,1.5-1.2,2c-0.7,0.5-1.5,0.8-2.5,0.8c-1.2,0-2.2-0.4-2.9-1.2s-1.1-1.8-1.1-3
							c0-1.2,0.3-2.2,1-2.9c0.7-0.8,1.6-1.2,2.8-1.2c1.2,0,2.1,0.4,2.8,1.1c0.7,0.7,1,1.6,1,2.7c0,0.2,0,0.4,0,0.6h-6.2
							c0.1,0.8,0.3,1.4,0.8,1.9c0.5,0.5,1,0.7,1.7,0.7C148.2,20.9,148.9,20.5,149.1,19.5z M146.8,15.2c-1.3,0-2.1,0.7-2.3,2h4.6
							c-0.1-0.6-0.3-1.1-0.7-1.5S147.5,15.2,146.8,15.2z"/>
						<path class="st5" d="M156.9,15.4h-1.2c-1.3,0-2,1-2,3.1v3.6h-1.6v-8.1h1.6v1.6c0.2-0.5,0.4-0.9,0.8-1.2
							c0.3-0.2,0.8-0.4,1.4-0.4h1V15.4z"/>
					</g>
				</g>
			</g>
			<g transform="translate(894.000000, 246.000000)">
				<g>
					<path class="st3" d="M6,0h201c3.3,0,6,2.7,6,6v24c0,3.3-2.7,6-6,6H6c-3.3,0-6-2.7-6-6V6C0,2.7,2.7,0,6,0z"/>
					<g class="st4">
						<path class="st5" d="M35.5,10.9h1.7v11.2h-1.7v-5H30v5h-1.7V10.9H30v4.7h5.6V10.9z"/>
						<path class="st5" d="M42,22.1v-9.7h-3.5v-1.5h8.7v1.5h-3.5v9.7H42z"/>
						<path class="st5" d="M48.5,22.1V10.9h2l3.6,8.9l3.6-8.9h2v11.2h-1.6v-8.3l-3.3,8.3h-1.3l-3.4-8.3v8.3H48.5z"/>
						<path class="st5" d="M62,22.1V10.9h1.7v9.7h5.5v1.5H62z"/>
						<path class="st5" d="M69.6,22.2l5-11.2H76l-5,11.2H69.6z"/>
						<path class="st5" d="M81.7,22.3c-1.5,0-2.8-0.5-3.9-1.5c-1.1-1-1.6-2.4-1.6-4.2c0-1.2,0.3-2.3,0.8-3.2c0.5-0.9,1.2-1.5,2-1.9
							c0.8-0.4,1.7-0.6,2.7-0.6c1.3,0,2.4,0.3,3.3,1c0.9,0.7,1.4,1.6,1.6,2.7h-1.7c-0.1-0.7-0.4-1.2-1-1.6c-0.6-0.4-1.3-0.6-2.1-0.6
							c-1.1,0-2,0.4-2.7,1.1c-0.7,0.7-1,1.8-1,3.1s0.3,2.4,1,3.1c0.7,0.7,1.6,1.1,2.7,1.1c0.8,0,1.5-0.2,2.1-0.6
							c0.6-0.4,0.9-1,1-1.6h1.7c-0.1,1.1-0.6,2-1.5,2.7S83,22.3,81.7,22.3z"/>
						<path class="st5" d="M91.8,22.3c-1.3,0-2.3-0.3-3-1s-1.2-1.6-1.2-2.8h1.6c0.1,0.7,0.3,1.3,0.8,1.7c0.5,0.4,1.1,0.6,1.9,0.6
							c0.7,0,1.3-0.1,1.8-0.4c0.4-0.3,0.7-0.7,0.7-1.3c0-0.4-0.2-0.8-0.5-1c-0.3-0.3-0.7-0.5-1.2-0.6c-0.5-0.1-1-0.3-1.5-0.4
							c-0.5-0.2-1.1-0.4-1.5-0.6c-0.5-0.2-0.9-0.5-1.2-1s-0.5-1-0.5-1.6c0-0.9,0.4-1.6,1.1-2.2c0.7-0.6,1.6-0.8,2.8-0.8
							c1.1,0,2.1,0.3,2.8,0.9s1.1,1.4,1.2,2.5h-1.6c-0.1-0.6-0.3-1-0.7-1.4c-0.4-0.3-1-0.5-1.7-0.5c-0.7,0-1.2,0.1-1.6,0.4
							c-0.4,0.3-0.6,0.7-0.6,1.1c0,0.4,0.1,0.7,0.4,0.9c0.2,0.2,0.5,0.4,0.9,0.6s0.8,0.2,1.2,0.4c0.5,0.1,0.9,0.2,1.4,0.4
							s0.9,0.3,1.2,0.6c0.4,0.2,0.7,0.5,0.9,0.9C95.8,18,96,18.5,96,19c0,1-0.4,1.8-1.1,2.4C94.1,22,93.1,22.3,91.8,22.3z"/>
						<path class="st5" d="M101.3,22.3c-1.3,0-2.3-0.3-3-1s-1.2-1.6-1.2-2.8h1.6c0.1,0.7,0.3,1.3,0.8,1.7c0.5,0.4,1.1,0.6,1.9,0.6
							c0.7,0,1.3-0.1,1.8-0.4c0.4-0.3,0.7-0.7,0.7-1.3c0-0.4-0.2-0.8-0.5-1c-0.3-0.3-0.7-0.5-1.2-0.6c-0.5-0.1-1-0.3-1.5-0.4
							c-0.5-0.2-1.1-0.4-1.5-0.6c-0.5-0.2-0.9-0.5-1.2-1s-0.5-1-0.5-1.6c0-0.9,0.4-1.6,1.1-2.2c0.7-0.6,1.6-0.8,2.8-0.8
							c1.1,0,2.1,0.3,2.8,0.9s1.1,1.4,1.2,2.5h-1.6c-0.1-0.6-0.3-1-0.7-1.4c-0.4-0.3-1-0.5-1.7-0.5c-0.7,0-1.2,0.1-1.6,0.4
							C99.2,13,99,13.4,99,13.8c0,0.4,0.1,0.7,0.4,0.9c0.2,0.2,0.5,0.4,0.9,0.6s0.8,0.2,1.2,0.4c0.5,0.1,0.9,0.2,1.4,0.4
							s0.9,0.3,1.2,0.6c0.4,0.2,0.7,0.5,0.9,0.9c0.2,0.4,0.4,0.9,0.4,1.5c0,1-0.4,1.8-1.1,2.4C103.5,22,102.5,22.3,101.3,22.3z"/>
						<path class="st5" d="M110.5,17.7v-1.3h6v1.3H110.5z"/>
						<path class="st5" d="M122,22.1V10.9h4.1c1.1,0,1.9,0.3,2.5,0.8c0.6,0.5,0.9,1.2,0.9,2.1c0,0.5-0.1,0.9-0.4,1.3
							c-0.3,0.4-0.6,0.7-1,0.9c0.6,0.2,1.1,0.6,1.4,1c0.4,0.5,0.5,1.1,0.5,1.8c0,1-0.3,1.8-1,2.4s-1.6,0.9-2.8,0.9H122z M123.7,15.5
							h2.4c1.3,0,1.9-0.5,1.9-1.6c0-1-0.6-1.6-1.9-1.6h-2.4V15.5z M123.7,20.7h2.5c1.6,0,2.3-0.6,2.3-1.9s-0.8-1.9-2.3-1.9h-2.5
							V20.7z"/>
						<path class="st5" d="M137.5,19.5h1.6c-0.2,0.8-0.6,1.5-1.2,2c-0.7,0.5-1.5,0.8-2.5,0.8c-1.2,0-2.2-0.4-2.9-1.2
							c-0.7-0.8-1.1-1.8-1.1-3c0-1.2,0.3-2.2,1-2.9c0.7-0.8,1.6-1.2,2.8-1.2c1.2,0,2.1,0.4,2.8,1.1c0.7,0.7,1,1.6,1,2.7
							c0,0.2,0,0.4,0,0.6h-6.2c0.1,0.8,0.3,1.4,0.8,1.9c0.5,0.5,1,0.7,1.7,0.7C136.6,20.9,137.3,20.5,137.5,19.5z M135.2,15.2
							c-1.3,0-2.1,0.7-2.3,2h4.6c-0.1-0.6-0.3-1.1-0.7-1.5S135.9,15.2,135.2,15.2z"/>
						<path class="st5" d="M146.6,14.1h1.6v8.4c0,0.8-0.3,1.5-0.8,2.1c-0.6,0.5-1.3,0.8-2.2,0.8h-3.9v-1.3h3.7
							c0.5,0,0.9-0.2,1.2-0.5s0.4-0.7,0.4-1.2v-1.3c-0.2,0.3-0.5,0.6-1,0.8c-0.5,0.2-1,0.3-1.6,0.3c-1.2,0-2.2-0.4-2.8-1.2
							c-0.7-0.8-1-1.8-1-3c0-1.2,0.3-2.2,1-3s1.6-1.2,2.8-1.2c0.5,0,1,0.1,1.5,0.3c0.5,0.2,0.8,0.5,1.1,0.9V14.1z M142.5,20.1
							c0.4,0.5,1,0.8,1.8,0.8c0.7,0,1.3-0.3,1.8-0.8c0.5-0.5,0.7-1.2,0.7-2c0-0.9-0.2-1.5-0.7-2c-0.5-0.5-1.1-0.8-1.8-0.8
							c-0.7,0-1.3,0.3-1.8,0.8c-0.4,0.5-0.7,1.2-0.7,2C141.8,19,142,19.6,142.5,20.1z"/>
						<path class="st5" d="M150.1,10.7h1.7v2h-1.7V10.7z M150.2,22.1v-8.1h1.6v8.1H150.2z"/>
						<path class="st5" d="M153.8,22.1v-8.1h1.6v1.4c0.2-0.5,0.5-0.9,1-1.2s1-0.4,1.6-0.4c0.9,0,1.6,0.3,2.2,0.9
							c0.5,0.6,0.8,1.4,0.8,2.3v5h-1.6v-4.7c0-0.6-0.2-1.2-0.5-1.6s-0.8-0.6-1.4-0.6c-0.6,0-1.1,0.2-1.6,0.7c-0.4,0.5-0.6,1-0.6,1.7
							v4.4H153.8z"/>
						<path class="st5" d="M162.9,22.1v-8.1h1.6v1.4c0.2-0.5,0.5-0.9,1-1.2s1-0.4,1.6-0.4c0.9,0,1.6,0.3,2.2,0.9
							c0.5,0.6,0.8,1.4,0.8,2.3v5h-1.6v-4.7c0-0.6-0.2-1.2-0.5-1.6s-0.8-0.6-1.4-0.6c-0.6,0-1.1,0.2-1.6,0.7c-0.4,0.5-0.6,1-0.6,1.7
							v4.4H162.9z"/>
						<path class="st5" d="M177.8,19.5h1.6c-0.1,0.8-0.6,1.5-1.2,2c-0.7,0.5-1.5,0.8-2.5,0.8c-1.2,0-2.2-0.4-2.9-1.2
							c-0.7-0.8-1.1-1.8-1.1-3c0-1.2,0.3-2.2,1-2.9c0.7-0.8,1.6-1.2,2.8-1.2c1.2,0,2.1,0.4,2.8,1.1s1,1.6,1,2.7c0,0.2,0,0.4,0,0.6
							h-6.2c0.1,0.8,0.3,1.4,0.8,1.9c0.5,0.5,1,0.7,1.7,0.7C176.8,20.9,177.6,20.5,177.8,19.5z M175.5,15.2c-1.3,0-2.1,0.7-2.3,2
							h4.6c-0.1-0.6-0.3-1.1-0.7-1.5S176.1,15.2,175.5,15.2z"/>
						<path class="st5" d="M185.5,15.4h-1.2c-1.3,0-2,1-2,3.1v3.6h-1.6v-8.1h1.6v1.6c0.2-0.5,0.4-0.9,0.8-1.2
							c0.3-0.2,0.8-0.4,1.4-0.4h1V15.4z"/>
					</g>
				</g>
			</g>
		</g>
	</g>
</g>
</svg>
