<?xml version="1.0" encoding="UTF-8"?>
<svg width="98px" height="105px" viewBox="0 0 98 105" version="1.1" xmlns="http://www.w3.org/2000/svg" xmlns:xlink="http://www.w3.org/1999/xlink">
    <!-- Generator: Sketch 56.2 (81672) - https://sketch.com -->
    <title>Group 23</title>
    <desc>Created with Sketch.</desc>
    <defs>
        <path d="M0.45,10.8866667 C0.45,16.6033333 5.09666667,21.2533333 10.8133333,21.2533333 L10.8133333,21.2533333 C16.5266667,21.2533333 21.1766667,16.6033333 21.1766667,10.8866667 L21.1766667,10.8866667 C21.1766667,5.17333333 16.5266667,0.526666667 10.8133333,0.526666667 L10.8133333,0.526666667 C5.09666667,0.526666667 0.45,5.17333333 0.45,10.8866667 M3.78333333,10.8866667 C3.78333333,7.01333333 6.93666667,3.86 10.8133333,3.86 L10.8133333,3.86 C14.69,3.86 17.8433333,7.01333333 17.8433333,10.8866667 L17.8433333,10.8866667 C17.8433333,14.7633333 14.69,17.92 10.8133333,17.92 L10.8133333,17.92 C6.93666667,17.92 3.78333333,14.7633333 3.78333333,10.8866667" id="path-1"></path>
        <linearGradient x1="-36.7977758%" y1="50.0008315%" x2="110.870425%" y2="50.0008315%" id="linearGradient-3">
            <stop stop-color="#1FC6D6" offset="0%"></stop>
            <stop stop-color="#000462" offset="100%"></stop>
        </linearGradient>
        <path d="M0.316666667,10.8866667 C0.316666667,16.6033333 4.96666667,21.2533333 10.6833333,21.2533333 L10.6833333,21.2533333 C16.3966667,21.2533333 21.0466667,16.6033333 21.0466667,10.8866667 L21.0466667,10.8866667 C21.0466667,5.17333333 16.3966667,0.526666667 10.6833333,0.526666667 L10.6833333,0.526666667 C4.96666667,0.526666667 0.316666667,5.17333333 0.316666667,10.8866667 M3.65,10.8866667 C3.65,7.01333333 6.80666667,3.86 10.6833333,3.86 L10.6833333,3.86 C14.5566667,3.86 17.7133333,7.01333333 17.7133333,10.8866667 L17.7133333,10.8866667 C17.7133333,14.7633333 14.5566667,17.92 10.6833333,17.92 L10.6833333,17.92 C6.80666667,17.92 3.65,14.7633333 3.65,10.8866667" id="path-4"></path>
        <linearGradient x1="164.933513%" y1="50.0008315%" x2="-17.4795723%" y2="50.0008315%" id="linearGradient-6">
            <stop stop-color="#1FC6D6" offset="0%"></stop>
            <stop stop-color="#000462" offset="100%"></stop>
        </linearGradient>
        <path d="M13.1133333,0.28 C7.9,0.28 3.47666667,4.18333333 2.83,9.36 L2.83,9.36 L0.0466666667,31.6333333 C-0.166666667,33.3466667 0.363333333,35.07 1.50666667,36.3633333 L1.50666667,36.3633333 C2.64666667,37.65 4.29,38.3966667 6.01666667,38.3966667 L6.01666667,38.3966667 L8.12,67.2833333 C8.18,68.1566667 8.90666667,68.83 9.78333333,68.83 L9.78333333,68.83 L27.1766667,68.83 C28.0533333,68.83 28.78,68.1566667 28.84,67.2833333 L28.84,67.2833333 L30.5133333,43.8633333 C30.58,42.9433333 29.89,42.1466667 28.9633333,42.08 L28.9633333,42.08 C28.1466667,42.0166667 27.2533333,42.7033333 27.1866667,43.6266667 L27.1866667,43.6266667 L25.6233333,65.4966667 L11.3366667,65.4966667 L9.27666667,36.61 C9.21333333,35.7366667 8.48666667,35.0633333 7.61,35.0633333 L7.61,35.0633333 L6.01666667,35.0633333 C5.23333333,35.0633333 4.52,34.74 4.00333333,34.1533333 L4.00333333,34.1533333 C3.49,33.57 3.25666667,32.8233333 3.35333333,32.0466667 L3.35333333,32.0466667 L6.13666667,9.77 C6.57666667,6.26 9.57666667,3.61333333 13.1133333,3.61333333 L13.1133333,3.61333333 L23.8466667,3.61333333 C24.3766667,3.61333333 24.94,3.69333333 25.6166667,3.87333333 L25.6166667,3.87333333 C26.51,4.11666667 27.4166667,3.57666667 27.65,2.68666667 L27.65,2.68666667 C27.8833333,1.79666667 27.3533333,0.886666667 26.4633333,0.65 L26.4633333,0.65 C25.5033333,0.396666667 24.67,0.28 23.8466667,0.28 L23.8466667,0.28 L13.1133333,0.28 Z" id="path-7"></path>
        <linearGradient x1="1.6035378%" y1="50.0026779%" x2="101.896051%" y2="50.0026779%" id="linearGradient-9">
            <stop stop-color="#1FC6D6" offset="0%"></stop>
            <stop stop-color="#000462" offset="100%"></stop>
        </linearGradient>
        <path d="M7.31666667,0.28 C6.17,0.28 5.01,0.483333333 3.86333333,0.89 L3.86333333,0.89 C2.99666667,1.2 2.54,2.15 2.84666667,3.01666667 L2.84666667,3.01666667 C3.15666667,3.88666667 4.1,4.33333333 4.97666667,4.03333333 L4.97666667,4.03333333 C5.76,3.75333333 6.55,3.61333333 7.31666667,3.61333333 L7.31666667,3.61333333 L18.0466667,3.61333333 C21.5866667,3.61333333 24.5833333,6.26 25.0266667,9.77333333 L25.0266667,9.77333333 L27.81,32.0466667 C27.9066667,32.8233333 27.6733333,33.57 27.16,34.1566667 L27.16,34.1566667 C26.6433333,34.74 25.93,35.0633333 25.1466667,35.0633333 L25.1466667,35.0633333 L23.5533333,35.0633333 C22.6766667,35.0633333 21.95,35.7366667 21.89,36.61 L21.89,36.61 L19.8266667,65.4966667 L5.53666667,65.4966667 L3.94333333,43.1333333 C3.87666667,42.2133333 2.97333333,41.5233333 2.16333333,41.5833333 L2.16333333,41.5833333 C1.24333333,41.65 0.55,42.45 0.616666667,43.3666667 L0.616666667,43.3666667 L2.32,67.2833333 C2.38333333,68.1566667 3.11,68.83 3.98666667,68.83 L3.98666667,68.83 L21.3766667,68.83 C22.2533333,68.83 22.98,68.1566667 23.0433333,67.2833333 L23.0433333,67.2833333 L25.1066667,38.3966667 L25.1466667,38.3966667 C26.8733333,38.3966667 28.5166667,37.65 29.6566667,36.3633333 L29.6566667,36.3633333 C30.6333333,35.2633333 31.16,33.8466667 31.1633333,32.3933333 L31.1633333,32.3933333 L31.1633333,32.3433333 C31.1633333,32.1066667 31.1466667,31.87 31.1166667,31.6333333 L31.1166667,31.6333333 L28.33,9.36 C27.6833333,4.18333333 23.2633333,0.28 18.0466667,0.28 L18.0466667,0.28 L7.31666667,0.28 Z" id="path-10"></path>
        <linearGradient x1="117.492172%" y1="50.0026779%" x2="-6.28155248%" y2="50.0026779%" id="linearGradient-12">
            <stop stop-color="#1FC6D6" offset="0%"></stop>
            <stop stop-color="#000462" offset="100%"></stop>
        </linearGradient>
    </defs>
    <g id="Designs-V2" stroke="none" stroke-width="1" fill="none" fill-rule="evenodd">
        <g id="Bit-Academy---Manifest" transform="translate(-894.000000, -429.000000)">
            <g id="Group-23" transform="translate(894.000000, 428.000000)">
                <g id="Group-3" transform="translate(7.666667, 5.155000)">
                    <mask id="mask-2" fill="white">
                        <use xlink:href="#path-1"></use>
                    </mask>
                    <g id="Clip-2"></g>
                    <path d="M0.45,10.8866667 C0.45,16.6033333 5.09666667,21.2533333 10.8133333,21.2533333 L10.8133333,21.2533333 C16.5266667,21.2533333 21.1766667,16.6033333 21.1766667,10.8866667 L21.1766667,10.8866667 C21.1766667,5.17333333 16.5266667,0.526666667 10.8133333,0.526666667 L10.8133333,0.526666667 C5.09666667,0.526666667 0.45,5.17333333 0.45,10.8866667 M3.78333333,10.8866667 C3.78333333,7.01333333 6.93666667,3.86 10.8133333,3.86 L10.8133333,3.86 C14.69,3.86 17.8433333,7.01333333 17.8433333,10.8866667 L17.8433333,10.8866667 C17.8433333,14.7633333 14.69,17.92 10.8133333,17.92 L10.8133333,17.92 C6.93666667,17.92 3.78333333,14.7633333 3.78333333,10.8866667" id="Fill-1" fill="url(#linearGradient-3)" mask="url(#mask-2)"></path>
                </g>
                <g id="Group-6" transform="translate(68.666667, 5.155000)">
                    <mask id="mask-5" fill="white">
                        <use xlink:href="#path-4"></use>
                    </mask>
                    <g id="Clip-5"></g>
                    <path d="M0.316666667,10.8866667 C0.316666667,16.6033333 4.96666667,21.2533333 10.6833333,21.2533333 L10.6833333,21.2533333 C16.3966667,21.2533333 21.0466667,16.6033333 21.0466667,10.8866667 L21.0466667,10.8866667 C21.0466667,5.17333333 16.3966667,0.526666667 10.6833333,0.526666667 L10.6833333,0.526666667 C4.96666667,0.526666667 0.316666667,5.17333333 0.316666667,10.8866667 M3.65,10.8866667 C3.65,7.01333333 6.80666667,3.86 10.6833333,3.86 L10.6833333,3.86 C14.5566667,3.86 17.7133333,7.01333333 17.7133333,10.8866667 L17.7133333,10.8866667 C17.7133333,14.7633333 14.5566667,17.92 10.6833333,17.92 L10.6833333,17.92 C6.80666667,17.92 3.65,14.7633333 3.65,10.8866667" id="Fill-4" fill="url(#linearGradient-6)" mask="url(#mask-5)"></path>
                </g>
                <g id="Group-11" transform="translate(28.666667, 0.488333)" fill="#FFFFFF">
                    <path d="M10.7816667,97.4126667 C9.92166667,97.4126667 9.18833333,96.7493333 9.125,95.876 L6.98166667,69.686 C5.28166667,69.686 3.69833333,68.9626667 2.52166667,67.646 C1.245,66.2126667 0.638333333,64.2626667 0.861666667,62.2926667 L3.745,37.0426667 C4.40166667,31.276 8.95166667,26.9293333 14.3216667,26.9293333 L25.4283333,26.9293333 C30.8016667,26.9293333 35.3516667,31.276 36.0083333,37.0426667 L38.8883333,62.2926667 C39.1116667,64.2626667 38.505,66.216 37.2283333,67.646 C36.055,68.9626667 34.4716667,69.686 32.7716667,69.686 L32.6583333,69.686 L30.645,95.636 C30.575,96.5526667 29.745,97.3126667 28.855,97.166 C27.935,97.096 27.2516667,96.2926667 27.325,95.376 L29.4583333,67.8893333 C29.5216667,67.0226667 30.2483333,66.3526667 31.1183333,66.3526667 L32.7716667,66.3526667 C33.5083333,66.3526667 34.2083333,66.0226667 34.7383333,65.4293333 C35.3883333,64.7026667 35.6916667,63.6993333 35.5716667,62.6693333 L32.695,37.4193333 C32.2316667,33.3393333 29.105,30.2626667 25.4283333,30.2626667 L14.3216667,30.2626667 C10.645,30.2626667 7.52166667,33.3393333 7.05833333,37.4193333 L4.17833333,62.6693333 C4.05833333,63.696 4.36166667,64.7026667 5.01166667,65.426 C5.545,66.0226667 6.245,66.3526667 6.98166667,66.3526667 L8.63166667,66.3526667 C9.50166667,66.3526667 10.2283333,67.0226667 10.295,67.8893333 L12.445,95.616 C12.5183333,96.5326667 11.8316667,97.3393333 10.915,97.406 C10.8683333,97.4126667 10.8283333,97.4126667 10.7816667,97.4126667" id="Fill-7"></path>
                    <path d="M19.8766667,4.177 C16,4.177 12.8466667,7.33033333 12.8466667,11.207 C12.8466667,15.0803333 16,18.237 19.8766667,18.237 C23.75,18.237 26.9033333,15.0803333 26.9033333,11.207 C26.9033333,7.33033333 23.75,4.177 19.8766667,4.177 M19.8766667,21.5703333 C14.16,21.5703333 9.51333333,16.9203333 9.51333333,11.207 C9.51333333,5.49366667 14.16,0.843666667 19.8766667,0.843666667 C25.59,0.843666667 30.2366667,5.49366667 30.2366667,11.207 C30.2366667,16.9203333 25.59,21.5703333 19.8766667,21.5703333" id="Fill-9"></path>
                </g>
                <g id="Group-14" transform="translate(0.000000, 31.488333)">
                    <mask id="mask-8" fill="white">
                        <use xlink:href="#path-7"></use>
                    </mask>
                    <g id="Clip-13"></g>
                    <path d="M13.1133333,0.28 C7.9,0.28 3.47666667,4.18333333 2.83,9.36 L2.83,9.36 L0.0466666667,31.6333333 C-0.166666667,33.3466667 0.363333333,35.07 1.50666667,36.3633333 L1.50666667,36.3633333 C2.64666667,37.65 4.29,38.3966667 6.01666667,38.3966667 L6.01666667,38.3966667 L8.12,67.2833333 C8.18,68.1566667 8.90666667,68.83 9.78333333,68.83 L9.78333333,68.83 L27.1766667,68.83 C28.0533333,68.83 28.78,68.1566667 28.84,67.2833333 L28.84,67.2833333 L30.5133333,43.8633333 C30.58,42.9433333 29.89,42.1466667 28.9633333,42.08 L28.9633333,42.08 C28.1466667,42.0166667 27.2533333,42.7033333 27.1866667,43.6266667 L27.1866667,43.6266667 L25.6233333,65.4966667 L11.3366667,65.4966667 L9.27666667,36.61 C9.21333333,35.7366667 8.48666667,35.0633333 7.61,35.0633333 L7.61,35.0633333 L6.01666667,35.0633333 C5.23333333,35.0633333 4.52,34.74 4.00333333,34.1533333 L4.00333333,34.1533333 C3.49,33.57 3.25666667,32.8233333 3.35333333,32.0466667 L3.35333333,32.0466667 L6.13666667,9.77 C6.57666667,6.26 9.57666667,3.61333333 13.1133333,3.61333333 L13.1133333,3.61333333 L23.8466667,3.61333333 C24.3766667,3.61333333 24.94,3.69333333 25.6166667,3.87333333 L25.6166667,3.87333333 C26.51,4.11666667 27.4166667,3.57666667 27.65,2.68666667 L27.65,2.68666667 C27.8833333,1.79666667 27.3533333,0.886666667 26.4633333,0.65 L26.4633333,0.65 C25.5033333,0.396666667 24.67,0.28 23.8466667,0.28 L23.8466667,0.28 L13.1133333,0.28 Z" id="Fill-12" fill="url(#linearGradient-9)" mask="url(#mask-8)"></path>
                </g>
                <g id="Group-17" transform="translate(66.666667, 31.488333)">
                    <mask id="mask-11" fill="white">
                        <use xlink:href="#path-10"></use>
                    </mask>
                    <g id="Clip-16"></g>
                    <path d="M7.31666667,0.28 C6.17,0.28 5.01,0.483333333 3.86333333,0.89 L3.86333333,0.89 C2.99666667,1.2 2.54,2.15 2.84666667,3.01666667 L2.84666667,3.01666667 C3.15666667,3.88666667 4.1,4.33333333 4.97666667,4.03333333 L4.97666667,4.03333333 C5.76,3.75333333 6.55,3.61333333 7.31666667,3.61333333 L7.31666667,3.61333333 L18.0466667,3.61333333 C21.5866667,3.61333333 24.5833333,6.26 25.0266667,9.77333333 L25.0266667,9.77333333 L27.81,32.0466667 C27.9066667,32.8233333 27.6733333,33.57 27.16,34.1566667 L27.16,34.1566667 C26.6433333,34.74 25.93,35.0633333 25.1466667,35.0633333 L25.1466667,35.0633333 L23.5533333,35.0633333 C22.6766667,35.0633333 21.95,35.7366667 21.89,36.61 L21.89,36.61 L19.8266667,65.4966667 L5.53666667,65.4966667 L3.94333333,43.1333333 C3.87666667,42.2133333 2.97333333,41.5233333 2.16333333,41.5833333 L2.16333333,41.5833333 C1.24333333,41.65 0.55,42.45 0.616666667,43.3666667 L0.616666667,43.3666667 L2.32,67.2833333 C2.38333333,68.1566667 3.11,68.83 3.98666667,68.83 L3.98666667,68.83 L21.3766667,68.83 C22.2533333,68.83 22.98,68.1566667 23.0433333,67.2833333 L23.0433333,67.2833333 L25.1066667,38.3966667 L25.1466667,38.3966667 C26.8733333,38.3966667 28.5166667,37.65 29.6566667,36.3633333 L29.6566667,36.3633333 C30.6333333,35.2633333 31.16,33.8466667 31.1633333,32.3933333 L31.1633333,32.3933333 L31.1633333,32.3433333 C31.1633333,32.1066667 31.1466667,31.87 31.1166667,31.6333333 L31.1166667,31.6333333 L28.33,9.36 C27.6833333,4.18333333 23.2633333,0.28 18.0466667,0.28 L18.0466667,0.28 L7.31666667,0.28 Z" id="Fill-15" fill="url(#linearGradient-12)" mask="url(#mask-11)"></path>
                </g>
                <g id="Group-22" transform="translate(37.666667, 100.488333)" fill="#EE5764">
                    <polygon id="Fill-18" points="0.51 4.66666667 4.74 4.66666667 4.74 0.436666667 0.51 0.436666667"></polygon>
                    <polygon id="Fill-20" points="8.63666667 4.66666667 12.8666667 4.66666667 12.8666667 0.436666667 8.63666667 0.436666667"></polygon>
                    <polygon id="Fill-21" points="16.76 4.66666667 20.99 4.66666667 20.99 0.436666667 16.76 0.436666667"></polygon>
                </g>
            </g>
        </g>
    </g>
</svg>