<?xml version="1.0" encoding="utf-8"?>
<!-- Generator: Adobe Illustrator 23.0.2, SVG Export Plug-In . SVG Version: 6.00 Build 0)  -->
<svg version="1.1" id="Capa_1" xmlns="http://www.w3.org/2000/svg" xmlns:xlink="http://www.w3.org/1999/xlink" x="0px" y="0px"
	 viewBox="0 0 660 544" style="enable-background:new 0 0 660 544;" xml:space="preserve">
<style type="text/css">
	.st0{fill:none;stroke:#6669A1;stroke-width:3;}
	.st1{fill-rule:evenodd;clip-rule:evenodd;fill:#000563;stroke:#FFFFFF;stroke-width:2.814;}
	.st2{fill-rule:evenodd;clip-rule:evenodd;fill:#20C6D7;}
	.st3{enable-background:new    ;}
	.st4{fill:#FFFFFF;}
</style>
<title>Group 5</title>
<desc>Created with Sketch.</desc>
<g id="Designs-V2">
	<g id="Bit-Academy---Programma" transform="translate(-390.000000, -3509.000000)">
		<g id="Group-5" transform="translate(390.000000, 3509.000000)">
			<g id="Group-4">
				<polyline id="Path-21" class="st0" points="554,227 554,385 330,385 				"/>
				<polyline id="Path-24" class="st0" points="107,227 107,385 330,385 				"/>
				<polyline id="Path-35" class="st0" points="330,69 554,69 554,227 				"/>
				<polyline id="Path-36" class="st0" points="330,69 107,69 107,227 				"/>
				
					<g id="Cirkel" transform="translate(107.000000, 227.000000) rotate(-45.000000) translate(-107.000000, -227.000000) translate(72.000000, 192.000000)">
					
						<g id="Group" transform="translate(35.000000, 35.000000) rotate(-45.000000) translate(-35.000000, -35.000000) translate(-3.281250, -3.281250)">
						<circle id="Oval-Copy-2" class="st1" cx="38.3" cy="38.3" r="33.6"/>
						<g id="Mask" transform="translate(38.281250, 38.281250) rotate(90.000000) translate(-38.281250, -38.281250) ">
						</g>
					</g>
				</g>
				
					<g transform="translate(554.000000, 227.000000) rotate(-45.000000) translate(-554.000000, -227.000000) translate(519.000000, 192.000000)">
					
						<g transform="translate(35.000000, 35.000000) rotate(-45.000000) translate(-35.000000, -35.000000) translate(-3.281250, -3.281250)">
						<circle class="st1" cx="38.3" cy="38.3" r="33.6"/>
						<g transform="translate(38.281250, 38.281250) rotate(90.000000) translate(-38.281250, -38.281250) ">
						</g>
					</g>
				</g>
				<polyline id="Path-37-Copy-39" class="st0" points="97,180 107,190 117,180 				"/>
				<polyline id="Path-37-Copy-40" class="st0" points="544,172 554,182 564,172 				"/>
				<g id="Label" transform="translate(0.000000, 280.000000)">
					<g id="Group-3">
						<path id="Rectangle-Copy-9" class="st2" d="M6,0h201c3.3,0,6,2.7,6,6v24c0,3.3-2.7,6-6,6H6c-3.3,0-6-2.7-6-6V6
							C0,2.7,2.7,0,6,0z"/>
						<g class="st3">
							<path class="st4" d="M28.8,22.1l-3.8-5.5l-1.6,1.7v3.8h-1.7V10.9h1.7v5.2l4.9-5.2h2.1l-4.3,4.5l4.7,6.7H28.8z"/>
							<path class="st4" d="M32.1,22.1V10.9h3.4c1.6,0,3,0.5,4,1.5c1.1,1,1.6,2.4,1.6,4.1c0,1.8-0.5,3.1-1.6,4.1
								c-1.1,1-2.4,1.5-4,1.5H32.1z M33.8,20.7h1.7c1.1,0,2.1-0.3,2.9-1s1.2-1.7,1.2-3.1s-0.4-2.4-1.2-3.1s-1.7-1-2.9-1h-1.7V20.7z"
								/>
							<path class="st4" d="M43,14.6h1.7v1.7H43V14.6z M43,20.4h1.7v1.7H43V20.4z"/>
							<path class="st4" d="M55.7,22.3c-1,0-1.8-0.2-2.6-0.6c-0.8-0.4-1.5-1.1-2-1.9c-0.5-0.9-0.8-1.9-0.8-3.2s0.3-2.3,0.8-3.2
								c0.5-0.9,1.2-1.5,2-1.9c0.8-0.4,1.7-0.6,2.7-0.6c1.3,0,2.4,0.4,3.3,1.1c0.9,0.7,1.4,1.6,1.5,2.7h-1.7c-0.1-0.7-0.5-1.2-1-1.7
								s-1.3-0.6-2.1-0.6c-1.1,0-2.1,0.4-2.8,1.1c-0.7,0.8-1.1,1.8-1.1,3.1c0,1.3,0.4,2.4,1.1,3.2c0.7,0.8,1.6,1.2,2.7,1.2
								c0.9,0,1.7-0.2,2.3-0.7c0.6-0.5,1-1.1,1-1.8c0-0.2-0.1-0.4-0.2-0.5c-0.1-0.1-0.3-0.2-0.6-0.2h-2.4v-1.3h2.8
								c0.5,0,0.9,0.2,1.3,0.5c0.4,0.3,0.6,0.8,0.6,1.4v4h-1.5v-1.9c-0.2,0.6-0.7,1.1-1.3,1.5C57.2,22.1,56.5,22.3,55.7,22.3z"/>
							<path class="st4" d="M65.6,14c1,0,1.9,0.3,2.5,0.8c0.6,0.5,1,1.3,1,2.2v5.2h-1.6v-1.3c-0.2,0.4-0.5,0.8-1,1
								c-0.5,0.3-1,0.4-1.6,0.4c-0.8,0-1.5-0.2-2-0.7c-0.5-0.4-0.8-1-0.8-1.8c0-0.8,0.3-1.4,0.8-1.8s1.3-0.7,2.3-0.7h1.7
								c0.4,0,0.5-0.2,0.5-0.5c0-0.5-0.2-0.9-0.5-1.2s-0.8-0.4-1.4-0.4c-0.5,0-1,0.1-1.4,0.4c-0.4,0.3-0.6,0.7-0.6,1.1h-1.4
								c0.1-0.8,0.4-1.5,1.1-2C63.8,14.2,64.6,14,65.6,14z M65.1,21c0.7,0,1.3-0.2,1.7-0.7c0.4-0.4,0.6-1,0.6-1.8v-0.2h-2.1
								c-0.5,0-1,0.1-1.3,0.4c-0.3,0.2-0.5,0.6-0.5,1c0,0.4,0.1,0.7,0.4,0.9S64.7,21,65.1,21z"/>
							<path class="st4" d="M70.8,22.1v-8.1h1.6v1.4c0.2-0.5,0.5-0.8,0.9-1.1c0.4-0.3,0.9-0.4,1.5-0.4c0.7,0,1.2,0.1,1.7,0.4
								s0.8,0.7,0.9,1.2c0.2-0.5,0.5-0.9,1-1.2c0.5-0.3,1-0.5,1.6-0.5c0.9,0,1.6,0.3,2.1,0.8c0.5,0.6,0.8,1.3,0.8,2.2v5.1h-1.6v-4.7
								c0-0.7-0.2-1.2-0.5-1.6c-0.3-0.4-0.7-0.6-1.3-0.6c-0.6,0-1.1,0.2-1.4,0.6s-0.5,0.9-0.5,1.6v4.7H76v-4.7
								c0-0.7-0.2-1.2-0.5-1.6c-0.3-0.4-0.7-0.6-1.2-0.6c-0.6,0-1.1,0.2-1.4,0.6c-0.4,0.4-0.5,0.9-0.5,1.6v4.7H70.8z"/>
							<path class="st4" d="M90.5,19.5h1.6c-0.1,0.8-0.6,1.5-1.2,2c-0.7,0.5-1.5,0.8-2.5,0.8c-1.2,0-2.2-0.4-2.9-1.2s-1.1-1.8-1.1-3
								c0-1.2,0.3-2.2,1-2.9c0.7-0.8,1.6-1.2,2.8-1.2c1.2,0,2.1,0.4,2.8,1.1c0.7,0.7,1,1.6,1,2.7c0,0.2,0,0.4,0,0.6h-6.2
								c0.1,0.8,0.3,1.4,0.8,1.9c0.5,0.5,1,0.7,1.7,0.7C89.6,20.9,90.3,20.5,90.5,19.5z M88.2,15.2c-1.3,0-2.1,0.7-2.3,2h4.6
								c-0.1-0.6-0.3-1.1-0.7-1.5S88.9,15.2,88.2,15.2z"/>
							<path class="st4" d="M97.4,22.1V10.9h3.4c1.6,0,3,0.5,4,1.5c1.1,1,1.6,2.4,1.6,4.1c0,1.8-0.5,3.1-1.6,4.1
								c-1.1,1-2.4,1.5-4,1.5H97.4z M99.1,20.7h1.7c1.1,0,2.1-0.3,2.9-1s1.2-1.7,1.2-3.1s-0.4-2.4-1.2-3.1s-1.7-1-2.9-1h-1.7V20.7z"
								/>
							<path class="st4" d="M113.9,19.5h1.6c-0.1,0.8-0.6,1.5-1.2,2c-0.7,0.5-1.5,0.8-2.5,0.8c-1.2,0-2.2-0.4-2.9-1.2
								s-1.1-1.8-1.1-3c0-1.2,0.3-2.2,1-2.9c0.7-0.8,1.6-1.2,2.8-1.2c1.2,0,2.1,0.4,2.8,1.1c0.7,0.7,1,1.6,1,2.7c0,0.2,0,0.4,0,0.6
								h-6.2c0.1,0.8,0.3,1.4,0.8,1.9c0.5,0.5,1,0.7,1.7,0.7C112.9,20.9,113.7,20.5,113.9,19.5z M111.6,15.2c-1.3,0-2.1,0.7-2.3,2
								h4.6c-0.1-0.6-0.3-1.1-0.7-1.5S112.2,15.2,111.6,15.2z"/>
							<path class="st4" d="M118.8,22.1l-3-8.1h1.6l2.1,6.1l2.1-6.1h1.6l-2.9,8.1H118.8z"/>
							<path class="st4" d="M130,19.5h1.6c-0.1,0.8-0.6,1.5-1.2,2c-0.7,0.5-1.5,0.8-2.5,0.8c-1.2,0-2.2-0.4-2.9-1.2s-1.1-1.8-1.1-3
								c0-1.2,0.3-2.2,1-2.9c0.7-0.8,1.6-1.2,2.8-1.2c1.2,0,2.1,0.4,2.8,1.1c0.7,0.7,1,1.6,1,2.7c0,0.2,0,0.4,0,0.6h-6.2
								c0.1,0.8,0.3,1.4,0.8,1.9c0.5,0.5,1,0.7,1.7,0.7C129,20.9,129.7,20.5,130,19.5z M127.6,15.2c-1.3,0-2.1,0.7-2.3,2h4.6
								c-0.1-0.6-0.3-1.1-0.7-1.5S128.3,15.2,127.6,15.2z"/>
							<path class="st4" d="M133.1,22.1V10.7h1.6v11.4H133.1z"/>
							<path class="st4" d="M143.4,21.1c-0.8,0.8-1.8,1.2-3,1.2c-1.2,0-2.2-0.4-3-1.2c-0.8-0.8-1.2-1.8-1.2-3c0-1.2,0.4-2.2,1.2-3
								c0.8-0.8,1.8-1.2,3-1.2c1.2,0,2.2,0.4,3,1.2c0.8,0.8,1.2,1.8,1.2,3C144.5,19.3,144.2,20.3,143.4,21.1z M140.4,20.9
								c0.8,0,1.4-0.3,1.8-0.8c0.5-0.5,0.7-1.2,0.7-2s-0.2-1.5-0.7-2c-0.5-0.5-1.1-0.8-1.8-0.8c-0.8,0-1.4,0.3-1.9,0.8
								c-0.5,0.5-0.7,1.2-0.7,2s0.2,1.5,0.7,2C139,20.7,139.6,20.9,140.4,20.9z"/>
							<path class="st4" d="M146.1,25.4V14.1h1.6v1.2c0.2-0.4,0.6-0.7,1.1-1c0.5-0.2,1-0.4,1.5-0.4c1.2,0,2.1,0.4,2.8,1.2s1,1.8,1,3
								s-0.3,2.2-1,3c-0.7,0.8-1.7,1.2-2.9,1.2c-0.5,0-1-0.1-1.5-0.3c-0.4-0.2-0.8-0.5-1-0.9v4.4H146.1z M148.3,20.1
								c0.5,0.5,1.1,0.8,1.8,0.8s1.3-0.3,1.8-0.8s0.7-1.2,0.7-2c0-0.8-0.2-1.5-0.7-2c-0.5-0.5-1.1-0.8-1.8-0.8s-1.3,0.3-1.8,0.8
								c-0.5,0.5-0.7,1.2-0.7,2C147.6,19,147.8,19.6,148.3,20.1z"/>
							<path class="st4" d="M155.6,22.1v-8.1h1.6v1.4c0.2-0.5,0.5-0.8,0.9-1.1c0.4-0.3,0.9-0.4,1.5-0.4c0.7,0,1.2,0.1,1.7,0.4
								s0.8,0.7,0.9,1.2c0.2-0.5,0.5-0.9,1-1.2c0.5-0.3,1-0.5,1.6-0.5c0.9,0,1.6,0.3,2.1,0.8c0.5,0.6,0.8,1.3,0.8,2.2v5.1h-1.6v-4.7
								c0-0.7-0.2-1.2-0.5-1.6c-0.3-0.4-0.7-0.6-1.3-0.6c-0.6,0-1.1,0.2-1.4,0.6s-0.5,0.9-0.5,1.6v4.7h-1.6v-4.7
								c0-0.7-0.2-1.2-0.5-1.6c-0.3-0.4-0.7-0.6-1.2-0.6c-0.6,0-1.1,0.2-1.4,0.6c-0.4,0.4-0.5,0.9-0.5,1.6v4.7H155.6z"/>
							<path class="st4" d="M175.4,19.5h1.6c-0.1,0.8-0.6,1.5-1.2,2c-0.7,0.5-1.5,0.8-2.5,0.8c-1.2,0-2.2-0.4-2.9-1.2
								s-1.1-1.8-1.1-3c0-1.2,0.3-2.2,1-2.9c0.7-0.8,1.6-1.2,2.8-1.2c1.2,0,2.1,0.4,2.8,1.1c0.7,0.7,1,1.6,1,2.7c0,0.2,0,0.4,0,0.6
								h-6.2c0.1,0.8,0.3,1.4,0.8,1.9c0.5,0.5,1,0.7,1.7,0.7C174.4,20.9,175.1,20.5,175.4,19.5z M173,15.2c-1.3,0-2.1,0.7-2.3,2h4.6
								c-0.1-0.6-0.3-1.1-0.7-1.5S173.7,15.2,173,15.2z"/>
							<path class="st4" d="M178.4,22.1v-8.1h1.6v1.4c0.2-0.5,0.5-0.9,1-1.2c0.5-0.3,1-0.4,1.6-0.4c0.9,0,1.6,0.3,2.2,0.9
								s0.8,1.4,0.8,2.3v5H184v-4.7c0-0.6-0.2-1.2-0.5-1.6s-0.8-0.6-1.4-0.6c-0.6,0-1.1,0.2-1.6,0.7c-0.4,0.5-0.6,1-0.6,1.7v4.4
								H178.4z"/>
							<path class="st4" d="M188.2,11.6h1.6v2.5h2.4v1.3h-2.4v4c0,0.4,0.1,0.8,0.3,1c0.2,0.2,0.5,0.4,0.9,0.4h1.1v1.3h-1.3
								c-0.8,0-1.5-0.2-2-0.7c-0.5-0.5-0.7-1.1-0.7-1.9v-4.1h-1.6v-1.3h1.6V11.6z"/>
						</g>
					</g>
				</g>
				<g transform="translate(447.000000, 280.000000)">
					<g>
						<path class="st2" d="M6,0h201c3.3,0,6,2.7,6,6v24c0,3.3-2.7,6-6,6H6c-3.3,0-6-2.7-6-6V6C0,2.7,2.7,0,6,0z"/>
						<g class="st3">
							<path class="st4" d="M34.2,22.1l-3.8-5.5l-1.6,1.7v3.8h-1.7V10.9h1.7v5.2l4.9-5.2h2.1l-4.3,4.5l4.7,6.7H34.2z"/>
							<path class="st4" d="M37.5,22.1V10.9h3.4c1.6,0,3,0.5,4,1.5s1.6,2.4,1.6,4.1c0,1.8-0.5,3.1-1.6,4.1c-1.1,1-2.4,1.5-4,1.5
								H37.5z M39.2,20.7h1.7c1.1,0,2.1-0.3,2.9-1s1.2-1.7,1.2-3.1s-0.4-2.4-1.2-3.1s-1.7-1-2.9-1h-1.7V20.7z"/>
							<path class="st4" d="M48.4,14.6h1.7v1.7h-1.7V14.6z M48.4,20.4h1.7v1.7h-1.7V20.4z"/>
							<path class="st4" d="M56.2,22.1V10.9h7.2v1.5h-5.5v3.2h4.5v1.5h-4.5v3.6h5.7v1.5H56.2z"/>
							<path class="st4" d="M65.2,22.1v-8.1h1.6v1.4c0.2-0.5,0.5-0.8,0.9-1.1c0.4-0.3,0.9-0.4,1.5-0.4c0.7,0,1.2,0.1,1.7,0.4
								c0.5,0.3,0.8,0.7,0.9,1.2c0.2-0.5,0.5-0.9,1-1.2s1-0.5,1.6-0.5c0.9,0,1.6,0.3,2.1,0.8c0.5,0.6,0.8,1.3,0.8,2.2v5.1h-1.6v-4.7
								c0-0.7-0.2-1.2-0.5-1.6c-0.3-0.4-0.7-0.6-1.3-0.6c-0.6,0-1.1,0.2-1.4,0.6s-0.5,0.9-0.5,1.6v4.7h-1.6v-4.7
								c0-0.7-0.2-1.2-0.5-1.6c-0.3-0.4-0.7-0.6-1.2-0.6c-0.6,0-1.1,0.2-1.4,0.6s-0.5,0.9-0.5,1.6v4.7H65.2z"/>
							<path class="st4" d="M83.3,22.3c-0.5,0-1-0.1-1.5-0.4c-0.5-0.2-0.8-0.6-1-1v1.2h-1.6V10.7h1.6v4.6c0.2-0.4,0.6-0.7,1-1
								c0.5-0.2,1-0.4,1.5-0.4c1.2,0,2.1,0.4,2.8,1.2s1,1.8,1,3c0,1.2-0.3,2.2-1,3C85.5,21.9,84.5,22.3,83.3,22.3z M81.3,20.1
								c0.5,0.5,1.1,0.8,1.8,0.8c0.7,0,1.3-0.3,1.8-0.8c0.5-0.5,0.7-1.2,0.7-2c0-0.8-0.2-1.5-0.7-2c-0.5-0.5-1.1-0.8-1.8-0.8
								c-0.7,0-1.3,0.3-1.8,0.8c-0.5,0.5-0.7,1.2-0.7,2C80.7,19,80.9,19.6,81.3,20.1z"/>
							<path class="st4" d="M94.5,19.5H96c-0.1,0.8-0.6,1.5-1.2,2c-0.7,0.5-1.5,0.8-2.5,0.8c-1.2,0-2.2-0.4-2.9-1.2
								c-0.7-0.8-1.1-1.8-1.1-3c0-1.2,0.3-2.2,1-2.9c0.7-0.8,1.6-1.2,2.8-1.2c1.2,0,2.1,0.4,2.8,1.1s1,1.6,1,2.7c0,0.2,0,0.4,0,0.6
								h-6.2c0.1,0.8,0.3,1.4,0.8,1.9c0.5,0.5,1,0.7,1.7,0.7C93.5,20.9,94.2,20.5,94.5,19.5z M92.1,15.2c-1.3,0-2.1,0.7-2.3,2h4.6
								c-0.1-0.6-0.3-1.1-0.7-1.5S92.8,15.2,92.1,15.2z"/>
							<path class="st4" d="M101,22.3c-1.2,0-2.2-0.4-2.8-1.2c-0.7-0.8-1-1.8-1-3c0-1.2,0.3-2.2,1-3c0.7-0.8,1.6-1.2,2.8-1.2
								c0.5,0,1,0.1,1.5,0.4s0.8,0.6,1.1,1v-4.6h1.6v11.4h-1.6v-1.2c-0.2,0.4-0.6,0.7-1.1,1C102,22.2,101.5,22.3,101,22.3z
								 M99.3,20.1c0.4,0.5,1,0.8,1.8,0.8s1.3-0.3,1.8-0.8c0.5-0.5,0.7-1.2,0.7-2c0-0.8-0.2-1.5-0.7-2c-0.5-0.5-1.1-0.8-1.8-0.8
								s-1.3,0.3-1.8,0.8c-0.4,0.5-0.7,1.2-0.7,2C98.7,19,98.9,19.6,99.3,20.1z"/>
							<path class="st4" d="M110.5,22.3c-1.2,0-2.2-0.4-2.8-1.2c-0.7-0.8-1-1.8-1-3c0-1.2,0.3-2.2,1-3c0.7-0.8,1.6-1.2,2.8-1.2
								c0.5,0,1,0.1,1.5,0.4c0.5,0.2,0.8,0.6,1.1,1v-4.6h1.6v11.4h-1.6v-1.2c-0.2,0.4-0.6,0.7-1.1,1C111.5,22.2,111,22.3,110.5,22.3
								z M108.9,20.1c0.4,0.5,1,0.8,1.8,0.8c0.7,0,1.3-0.3,1.8-0.8s0.7-1.2,0.7-2c0-0.8-0.2-1.5-0.7-2c-0.5-0.5-1.1-0.8-1.8-0.8
								c-0.7,0-1.3,0.3-1.8,0.8c-0.4,0.5-0.7,1.2-0.7,2C108.2,19,108.4,19.6,108.9,20.1z"/>
							<path class="st4" d="M122.4,19.5h1.6c-0.2,0.8-0.6,1.5-1.2,2c-0.7,0.5-1.5,0.8-2.5,0.8c-1.2,0-2.2-0.4-2.9-1.2
								s-1.1-1.8-1.1-3c0-1.2,0.3-2.2,1-2.9c0.7-0.8,1.6-1.2,2.8-1.2c1.2,0,2.1,0.4,2.8,1.1s1,1.6,1,2.7c0,0.2,0,0.4,0,0.6h-6.2
								c0.1,0.8,0.3,1.4,0.8,1.9c0.5,0.5,1,0.7,1.7,0.7C121.5,20.9,122.2,20.5,122.4,19.5z M120.1,15.2c-1.3,0-2.1,0.7-2.3,2h4.6
								c-0.1-0.6-0.3-1.1-0.7-1.5S120.7,15.2,120.1,15.2z"/>
							<path class="st4" d="M128.9,22.3c-1.2,0-2.2-0.4-2.8-1.2c-0.7-0.8-1-1.8-1-3c0-1.2,0.3-2.2,1-3s1.6-1.2,2.8-1.2
								c0.5,0,1,0.1,1.5,0.4c0.5,0.2,0.8,0.6,1.1,1v-4.6h1.6v11.4h-1.6v-1.2c-0.2,0.4-0.6,0.7-1.1,1
								C129.9,22.2,129.4,22.3,128.9,22.3z M127.3,20.1c0.4,0.5,1,0.8,1.8,0.8c0.7,0,1.3-0.3,1.8-0.8c0.5-0.5,0.7-1.2,0.7-2
								c0-0.8-0.2-1.5-0.7-2c-0.5-0.5-1.1-0.8-1.8-0.8c-0.7,0-1.3,0.3-1.8,0.8c-0.4,0.5-0.7,1.2-0.7,2
								C126.6,19,126.8,19.6,127.3,20.1z"/>
							<path class="st4" d="M138.9,22.1V10.9h3.4c1.6,0,3,0.5,4,1.5s1.6,2.4,1.6,4.1c0,1.8-0.5,3.1-1.6,4.1c-1.1,1-2.4,1.5-4,1.5
								H138.9z M140.5,20.7h1.7c1.1,0,2.1-0.3,2.9-1s1.2-1.7,1.2-3.1s-0.4-2.4-1.2-3.1s-1.7-1-2.9-1h-1.7V20.7z"/>
							<path class="st4" d="M155.3,19.5h1.6c-0.2,0.8-0.6,1.5-1.2,2c-0.7,0.5-1.5,0.8-2.5,0.8c-1.2,0-2.2-0.4-2.9-1.2
								c-0.7-0.8-1.1-1.8-1.1-3c0-1.2,0.3-2.2,1-2.9c0.7-0.8,1.6-1.2,2.8-1.2c1.2,0,2.1,0.4,2.8,1.1c0.7,0.7,1,1.6,1,2.7
								c0,0.2,0,0.4,0,0.6h-6.2c0.1,0.8,0.3,1.4,0.8,1.9c0.5,0.5,1,0.7,1.7,0.7C154.4,20.9,155.1,20.5,155.3,19.5z M153,15.2
								c-1.3,0-2.1,0.7-2.3,2h4.6c-0.1-0.6-0.3-1.1-0.7-1.5S153.6,15.2,153,15.2z"/>
							<path class="st4" d="M161.1,22.3c-0.9,0-1.7-0.2-2.3-0.7c-0.6-0.5-0.9-1.2-1-2h1.5c0,0.5,0.2,0.8,0.5,1.1
								c0.3,0.3,0.7,0.4,1.3,0.4c0.4,0,0.8-0.1,1.1-0.3s0.4-0.5,0.4-0.8c0-0.4-0.2-0.7-0.5-0.9c-0.3-0.2-0.7-0.3-1.1-0.4
								c-0.4-0.1-0.9-0.1-1.3-0.2s-0.8-0.3-1.1-0.7s-0.5-0.8-0.5-1.5c0-0.7,0.3-1.3,0.8-1.7s1.2-0.6,2.1-0.6c0.9,0,1.6,0.2,2.2,0.7
								s0.9,1.1,0.9,1.8h-1.5c-0.1-0.4-0.3-0.7-0.6-1c-0.3-0.2-0.7-0.3-1.1-0.3c-0.4,0-0.8,0.1-1,0.3c-0.3,0.2-0.4,0.4-0.4,0.8
								c0,0.4,0.2,0.6,0.5,0.8s0.7,0.3,1.2,0.3c0.5,0,0.9,0.1,1.4,0.2c0.5,0.1,0.8,0.3,1.2,0.7c0.3,0.4,0.5,0.9,0.5,1.6
								c0,0.7-0.3,1.3-0.8,1.8C162.8,22.1,162.1,22.3,161.1,22.3z"/>
							<path class="st4" d="M165.7,10.7h1.7v2h-1.7V10.7z M165.8,22.1v-8.1h1.6v8.1H165.8z"/>
							<path class="st4" d="M175.3,14.1h1.6v8.4c0,0.8-0.3,1.5-0.8,2.1c-0.6,0.5-1.3,0.8-2.2,0.8H170v-1.3h3.7
								c0.5,0,0.9-0.2,1.2-0.5c0.3-0.3,0.4-0.7,0.4-1.2v-1.3c-0.2,0.3-0.5,0.6-1,0.8c-0.5,0.2-1,0.3-1.6,0.3c-1.2,0-2.2-0.4-2.8-1.2
								c-0.7-0.8-1-1.8-1-3c0-1.2,0.3-2.2,1-3s1.6-1.2,2.8-1.2c0.5,0,1,0.1,1.5,0.3c0.5,0.2,0.8,0.5,1.1,0.9V14.1z M171.2,20.1
								c0.4,0.5,1,0.8,1.8,0.8c0.7,0,1.3-0.3,1.8-0.8c0.5-0.5,0.7-1.2,0.7-2c0-0.9-0.2-1.5-0.7-2c-0.5-0.5-1.1-0.8-1.8-0.8
								c-0.7,0-1.3,0.3-1.8,0.8c-0.4,0.5-0.7,1.2-0.7,2C170.5,19,170.7,19.6,171.2,20.1z"/>
							<path class="st4" d="M178.9,22.1v-8.1h1.6v1.4c0.2-0.5,0.5-0.9,1-1.2c0.5-0.3,1-0.4,1.6-0.4c0.9,0,1.6,0.3,2.2,0.9
								c0.5,0.6,0.8,1.4,0.8,2.3v5h-1.6v-4.7c0-0.6-0.2-1.2-0.5-1.6c-0.3-0.4-0.8-0.6-1.4-0.6c-0.6,0-1.1,0.2-1.6,0.7
								c-0.4,0.5-0.6,1-0.6,1.7v4.4H178.9z"/>
						</g>
					</g>
				</g>
				<path id="Path-34-Copy-2" class="st0" d="M330,0v69"/>
				<path id="Path-34-Copy-3" class="st0" d="M330,385v158"/>
			</g>
			<polyline id="Path-37-Copy-41" class="st0" points="320,531 330,541 340,531 			"/>
		</g>
	</g>
</g>
</svg>
