<?xml version="1.0" encoding="utf-8"?>
<!-- Generator: Adobe Illustrator 23.0.2, SVG Export Plug-In . SVG Version: 6.00 Build 0)  -->
<svg version="1.1" id="Capa_1" xmlns="http://www.w3.org/2000/svg" xmlns:xlink="http://www.w3.org/1999/xlink" x="0px" y="0px"
	 viewBox="0 0 660 1063" style="enable-background:new 0 0 660 1063;" xml:space="preserve">
<style type="text/css">
	.st0{fill:none;stroke:#6669A1;stroke-width:3;}
	.st1{fill-rule:evenodd;clip-rule:evenodd;fill:#000563;stroke:#FFFFFF;stroke-width:2.814;}
	.st2{fill-rule:evenodd;clip-rule:evenodd;fill:#20C6D7;}
	.st3{enable-background:new    ;}
	.st4{fill:#FFFFFF;}
</style>
<title>Group 6</title>
<desc>Created with Sketch.</desc>
<g id="Designs-V2">
	<g id="Bit-Academy---Programma" transform="translate(-390.000000, -2184.000000)">
		<g id="Group-6" transform="translate(390.000000, 2184.000000)">
			<g id="Group-2">
				<path id="Path-27" class="st0" d="M330,114v158"/>
				<path id="Path-33" class="st0" d="M330,588v158"/>
				<path id="Path-34" class="st0" d="M330,746v158"/>
				<path id="Path-34-Copy" class="st0" d="M330,904v158"/>
				<polyline id="Path-28" class="st0" points="330,272 554,272 554,430 				"/>
				<polyline id="Path-29" class="st0" points="330,272 107,272 107,430 				"/>
				<polyline id="Path-30" class="st0" points="330,588 554,588 554,430 				"/>
				<polyline id="Path-32" class="st0" points="107,430 107,746 330,746 				"/>
				
					<g id="Cirkel" transform="translate(331.000000, 114.000000) rotate(-45.000000) translate(-331.000000, -114.000000) translate(296.000000, 79.000000)">
					
						<g id="Group" transform="translate(35.000000, 35.000000) rotate(-45.000000) translate(-35.000000, -35.000000) translate(-3.281250, -3.281250)">
						<circle id="Oval-Copy-2" class="st1" cx="38.3" cy="38.3" r="33.6"/>
						<g id="Mask" transform="translate(38.281250, 38.281250) rotate(90.000000) translate(-38.281250, -38.281250) ">
						</g>
					</g>
				</g>
				
					<g transform="translate(331.000000, 272.000000) rotate(-45.000000) translate(-331.000000, -272.000000) translate(296.000000, 237.000000)">
					
						<g transform="translate(35.000000, 35.000000) rotate(-45.000000) translate(-35.000000, -35.000000) translate(-3.281250, -3.281250)">
						<circle class="st1" cx="38.3" cy="38.3" r="33.6"/>
						<g transform="translate(38.281250, 38.281250) rotate(90.000000) translate(-38.281250, -38.281250) ">
						</g>
					</g>
				</g>
				
					<g transform="translate(330.000000, 588.000000) rotate(-45.000000) translate(-330.000000, -588.000000) translate(295.000000, 553.000000)">
					
						<g transform="translate(35.000000, 35.000000) rotate(-45.000000) translate(-35.000000, -35.000000) translate(-3.281250, -3.281250)">
						<circle class="st1" cx="38.3" cy="38.3" r="33.6"/>
						<g transform="translate(38.281250, 38.281250) rotate(90.000000) translate(-38.281250, -38.281250) ">
						</g>
					</g>
				</g>
				
					<g transform="translate(331.000000, 746.000000) rotate(-45.000000) translate(-331.000000, -746.000000) translate(296.000000, 711.000000)">
					
						<g transform="translate(35.000000, 35.000000) rotate(-45.000000) translate(-35.000000, -35.000000) translate(-3.281250, -3.281250)">
						<circle class="st1" cx="38.3" cy="38.3" r="33.6"/>
						<g transform="translate(38.281250, 38.281250) rotate(90.000000) translate(-38.281250, -38.281250) ">
						</g>
					</g>
				</g>
				
					<g transform="translate(331.000000, 903.000000) rotate(-45.000000) translate(-331.000000, -903.000000) translate(296.000000, 868.000000)">
					
						<g transform="translate(35.000000, 35.000000) rotate(-45.000000) translate(-35.000000, -35.000000) translate(-3.281250, -3.281250)">
						<circle class="st1" cx="38.3" cy="38.3" r="33.6"/>
						<g transform="translate(38.281250, 38.281250) rotate(90.000000) translate(-38.281250, -38.281250) ">
						</g>
					</g>
				</g>
				
					<g transform="translate(107.000000, 430.000000) rotate(-45.000000) translate(-107.000000, -430.000000) translate(72.000000, 395.000000)">
					
						<g transform="translate(35.000000, 35.000000) rotate(-45.000000) translate(-35.000000, -35.000000) translate(-3.281250, -3.281250)">
						<circle class="st1" cx="38.3" cy="38.3" r="33.6"/>
						<g transform="translate(38.281250, 38.281250) rotate(90.000000) translate(-38.281250, -38.281250) ">
						</g>
					</g>
				</g>
				
					<g transform="translate(554.000000, 430.000000) rotate(-45.000000) translate(-554.000000, -430.000000) translate(519.000000, 395.000000)">
					
						<g transform="translate(35.000000, 35.000000) rotate(-45.000000) translate(-35.000000, -35.000000) translate(-3.281250, -3.281250)">
						<circle class="st1" cx="38.3" cy="38.3" r="33.6"/>
						<g transform="translate(38.281250, 38.281250) rotate(90.000000) translate(-38.281250, -38.281250) ">
						</g>
					</g>
				</g>
				<polyline id="Path-37-Copy-47" class="st0" points="284,736 294,746 284,756 				"/>
				<polyline id="Path-37-Copy-27" class="st0" points="97,383 107,393 117,383 				"/>
				<polyline id="Path-37-Copy-22" class="st0" points="320,66 330,76 340,66 				"/>
				<polyline id="Path-37-Copy-25" class="st0" points="320,225 330,235 340,225 				"/>
				<polyline id="Path-37-Copy-31" class="st0" points="377,578 367,588 377,598 				"/>
				<polyline id="Path-37-Copy-34" class="st0" points="320,699 330,709 340,699 				"/>
				<polyline id="Path-37-Copy-37" class="st0" points="320,856 330,866 340,856 				"/>
				<polyline id="Path-37-Copy-29" class="st0" points="544,383 554,393 564,383 				"/>
				<g id="Label" transform="translate(224.000000, 325.000000)">
					<g id="Group-3">
						<path id="Rectangle-Copy-9" class="st2" d="M6,0h201c3.3,0,6,2.7,6,6v24c0,3.3-2.7,6-6,6H6c-3.3,0-6-2.7-6-6V6
							C0,2.7,2.7,0,6,0z"/>
						<g class="st3">
							<path class="st4" d="M54.3,22.3c-1.6,0-2.9-0.5-4-1.6s-1.6-2.5-1.6-4.1s0.5-3,1.6-4.1s2.4-1.6,4-1.6c1.6,0,2.9,0.5,4,1.6
								c1.1,1.1,1.6,2.5,1.6,4.1s-0.5,3-1.6,4.1C57.2,21.7,55.9,22.3,54.3,22.3z M51.6,19.6c0.7,0.8,1.7,1.2,2.8,1.2s2-0.4,2.8-1.2
								c0.7-0.8,1.1-1.8,1.1-3s-0.4-2.2-1.1-3c-0.7-0.8-1.7-1.2-2.8-1.2s-2,0.4-2.8,1.2c-0.7,0.8-1.1,1.8-1.1,3S50.8,18.8,51.6,19.6
								z"/>
							<path class="st4" d="M65.7,22.3c-0.5,0-1-0.1-1.5-0.4c-0.5-0.2-0.8-0.6-1-1v1.2h-1.6V10.7h1.6v4.6c0.2-0.4,0.6-0.7,1-1
								c0.5-0.2,1-0.4,1.5-0.4c1.2,0,2.1,0.4,2.8,1.2s1,1.8,1,3c0,1.2-0.3,2.2-1,3C67.8,21.9,66.9,22.3,65.7,22.3z M63.7,20.1
								c0.5,0.5,1.1,0.8,1.8,0.8s1.3-0.3,1.8-0.8s0.7-1.2,0.7-2c0-0.8-0.2-1.5-0.7-2c-0.5-0.5-1.1-0.8-1.8-0.8s-1.3,0.3-1.8,0.8
								c-0.5,0.5-0.7,1.2-0.7,2C63,19,63.2,19.6,63.7,20.1z"/>
							<path class="st4" d="M71.1,14.1h1.5v8.7c0,0.9-0.2,1.5-0.6,2s-1,0.7-1.9,0.7h-0.8v-1.3H70c0.4,0,0.7-0.1,0.9-0.3
								c0.1-0.2,0.2-0.6,0.2-1.1V14.1z M71,10.7h1.7v2H71V10.7z"/>
							<path class="st4" d="M80.4,19.5h1.6c-0.1,0.8-0.6,1.5-1.2,2c-0.7,0.5-1.5,0.8-2.5,0.8c-1.2,0-2.2-0.4-2.9-1.2s-1.1-1.8-1.1-3
								c0-1.2,0.3-2.2,1-2.9c0.7-0.8,1.6-1.2,2.8-1.2c1.2,0,2.1,0.4,2.8,1.1c0.7,0.7,1,1.6,1,2.7c0,0.2,0,0.4,0,0.6h-6.2
								c0.1,0.8,0.3,1.4,0.8,1.9c0.5,0.5,1,0.7,1.7,0.7C79.4,20.9,80.1,20.5,80.4,19.5z M78,15.2c-1.3,0-2.1,0.7-2.3,2h4.6
								c-0.1-0.6-0.3-1.1-0.7-1.5S78.7,15.2,78,15.2z"/>
							<path class="st4" d="M87,22.3c-1.2,0-2.2-0.4-2.9-1.2c-0.7-0.8-1.1-1.8-1.1-3c0-1.2,0.4-2.1,1.1-3c0.7-0.8,1.7-1.2,2.9-1.2
								c1,0,1.8,0.3,2.5,0.8s1.1,1.2,1.2,2.1h-1.6c-0.1-0.5-0.3-0.8-0.7-1.1c-0.4-0.3-0.9-0.4-1.4-0.4c-0.8,0-1.4,0.3-1.8,0.8
								s-0.6,1.2-0.6,2c0,0.8,0.2,1.5,0.6,2c0.4,0.5,1,0.8,1.8,0.8c0.5,0,1-0.1,1.4-0.4c0.4-0.3,0.6-0.6,0.8-1.1h1.5
								c-0.1,0.9-0.5,1.5-1.2,2.1C88.8,22,88,22.3,87,22.3z"/>
							<path class="st4" d="M93,11.6h1.6v2.5h2.4v1.3h-2.4v4c0,0.4,0.1,0.8,0.3,1c0.2,0.2,0.5,0.4,0.9,0.4h1.1v1.3h-1.3
								c-0.8,0-1.5-0.2-2-0.7C93.2,21,93,20.3,93,19.5v-4.1h-1.6v-1.3H93V11.6z"/>
							<path class="st4" d="M107.1,22.3c-1.6,0-2.9-0.5-4-1.6s-1.6-2.5-1.6-4.1s0.5-3,1.6-4.1s2.4-1.6,4-1.6c1.6,0,2.9,0.5,4,1.6
								s1.6,2.5,1.6,4.1s-0.5,3-1.6,4.1S108.7,22.3,107.1,22.3z M104.4,19.6c0.7,0.8,1.7,1.2,2.8,1.2s2-0.4,2.8-1.2s1.1-1.8,1.1-3
								s-0.4-2.2-1.1-3c-0.7-0.8-1.7-1.2-2.8-1.2s-2,0.4-2.8,1.2c-0.7,0.8-1.1,1.8-1.1,3S103.6,18.8,104.4,19.6z"/>
							<path class="st4" d="M119,15.4h-1.2c-1.3,0-2,1-2,3.1v3.6h-1.6v-8.1h1.6v1.6c0.2-0.5,0.4-0.9,0.8-1.2
								c0.3-0.2,0.8-0.4,1.4-0.4h1V15.4z"/>
							<path class="st4" d="M120.2,10.7h1.7v2h-1.7V10.7z M120.3,22.1v-8.1h1.6v8.1H120.3z"/>
							<path class="st4" d="M129.6,19.5h1.6c-0.2,0.8-0.6,1.5-1.2,2c-0.7,0.5-1.5,0.8-2.5,0.8c-1.2,0-2.2-0.4-2.9-1.2
								c-0.7-0.8-1.1-1.8-1.1-3c0-1.2,0.3-2.2,1-2.9c0.7-0.8,1.6-1.2,2.8-1.2c1.2,0,2.1,0.4,2.8,1.1c0.7,0.7,1,1.6,1,2.7
								c0,0.2,0,0.4,0,0.6h-6.2c0.1,0.8,0.3,1.4,0.8,1.9c0.5,0.5,1,0.7,1.7,0.7C128.6,20.9,129.3,20.5,129.6,19.5z M127.2,15.2
								c-1.3,0-2.1,0.7-2.3,2h4.6c-0.1-0.6-0.3-1.1-0.7-1.5S127.9,15.2,127.2,15.2z"/>
							<path class="st4" d="M132.6,22.1v-8.1h1.6v1.4c0.2-0.5,0.5-0.9,1-1.2c0.5-0.3,1-0.4,1.6-0.4c0.9,0,1.6,0.3,2.2,0.9
								c0.5,0.6,0.8,1.4,0.8,2.3v5h-1.6v-4.7c0-0.6-0.2-1.2-0.5-1.6s-0.8-0.6-1.4-0.6c-0.6,0-1.1,0.2-1.6,0.7
								c-0.4,0.5-0.6,1-0.6,1.7v4.4H132.6z"/>
							<path class="st4" d="M142.4,11.6h1.6v2.5h2.4v1.3H144v4c0,0.4,0.1,0.8,0.3,1c0.2,0.2,0.5,0.4,0.9,0.4h1.1v1.3h-1.3
								c-0.8,0-1.5-0.2-2-0.7c-0.5-0.5-0.7-1.1-0.7-1.9v-4.1h-1.6v-1.3h1.6V11.6z"/>
							<path class="st4" d="M153.2,19.5h1.6c-0.2,0.8-0.6,1.5-1.2,2c-0.7,0.5-1.5,0.8-2.5,0.8c-1.2,0-2.2-0.4-2.9-1.2
								c-0.7-0.8-1.1-1.8-1.1-3c0-1.2,0.3-2.2,1-2.9c0.7-0.8,1.6-1.2,2.8-1.2c1.2,0,2.1,0.4,2.8,1.1c0.7,0.7,1,1.6,1,2.7
								c0,0.2,0,0.4,0,0.6h-6.2c0.1,0.8,0.3,1.4,0.8,1.9c0.5,0.5,1,0.7,1.7,0.7C152.3,20.9,153,20.5,153.2,19.5z M150.9,15.2
								c-1.3,0-2.1,0.7-2.3,2h4.6c-0.1-0.6-0.3-1.1-0.7-1.5S151.6,15.2,150.9,15.2z"/>
							<path class="st4" d="M159.7,22.3c-1.2,0-2.2-0.4-2.8-1.2c-0.7-0.8-1-1.8-1-3c0-1.2,0.3-2.2,1-3s1.6-1.2,2.8-1.2
								c0.5,0,1,0.1,1.5,0.4c0.5,0.2,0.8,0.6,1.1,1v-4.6h1.6v11.4h-1.6v-1.2c-0.2,0.4-0.6,0.7-1.1,1
								C160.7,22.2,160.2,22.3,159.7,22.3z M158.1,20.1c0.4,0.5,1,0.8,1.8,0.8c0.7,0,1.3-0.3,1.8-0.8s0.7-1.2,0.7-2
								c0-0.8-0.2-1.5-0.7-2c-0.5-0.5-1.1-0.8-1.8-0.8c-0.7,0-1.3,0.3-1.8,0.8c-0.4,0.5-0.7,1.2-0.7,2
								C157.4,19,157.7,19.6,158.1,20.1z"/>
						</g>
					</g>
				</g>
				<g transform="translate(0.000000, 483.000000)">
					<g>
						<path class="st2" d="M6,0h201c3.3,0,6,2.7,6,6v24c0,3.3-2.7,6-6,6H6c-3.3,0-6-2.7-6-6V6C0,2.7,2.7,0,6,0z"/>
						<g class="st3">
							<path class="st4" d="M81.5,22.3c-1.3,0-2.3-0.3-3-1s-1.2-1.6-1.2-2.8h1.6c0.1,0.7,0.3,1.3,0.8,1.7c0.5,0.4,1.1,0.6,1.9,0.6
								c0.7,0,1.3-0.1,1.8-0.4c0.4-0.3,0.7-0.7,0.7-1.3c0-0.4-0.2-0.8-0.5-1c-0.3-0.3-0.7-0.5-1.2-0.6c-0.5-0.1-1-0.3-1.5-0.4
								s-1.1-0.4-1.5-0.6c-0.5-0.2-0.9-0.5-1.2-1s-0.5-1-0.5-1.6c0-0.9,0.4-1.6,1.1-2.2c0.7-0.6,1.6-0.8,2.8-0.8
								c1.1,0,2.1,0.3,2.8,0.9c0.7,0.6,1.1,1.4,1.2,2.5h-1.6c-0.1-0.6-0.3-1-0.7-1.4c-0.4-0.3-1-0.5-1.7-0.5c-0.7,0-1.2,0.1-1.6,0.4
								c-0.4,0.3-0.6,0.7-0.6,1.1c0,0.4,0.1,0.7,0.4,0.9c0.2,0.2,0.5,0.4,0.9,0.6c0.4,0.1,0.8,0.2,1.2,0.4c0.5,0.1,0.9,0.2,1.4,0.4
								c0.5,0.1,0.9,0.3,1.2,0.6s0.7,0.5,0.9,0.9c0.2,0.4,0.4,0.9,0.4,1.5c0,1-0.4,1.8-1.1,2.4C83.7,22,82.7,22.3,81.5,22.3z"/>
							<path class="st4" d="M92.9,19.5h1.6c-0.1,0.8-0.6,1.5-1.2,2c-0.7,0.5-1.5,0.8-2.5,0.8c-1.2,0-2.2-0.4-2.9-1.2s-1.1-1.8-1.1-3
								c0-1.2,0.3-2.2,1-2.9c0.7-0.8,1.6-1.2,2.8-1.2c1.2,0,2.1,0.4,2.8,1.1c0.7,0.7,1,1.6,1,2.7c0,0.2,0,0.4,0,0.6h-6.2
								c0.1,0.8,0.3,1.4,0.8,1.9c0.5,0.5,1,0.7,1.7,0.7C91.9,20.9,92.7,20.5,92.9,19.5z M90.6,15.2c-1.3,0-2.1,0.7-2.3,2h4.6
								c-0.1-0.6-0.3-1.1-0.7-1.5S91.2,15.2,90.6,15.2z"/>
							<path class="st4" d="M99.5,22.3c-1.2,0-2.2-0.4-2.9-1.2c-0.7-0.8-1.1-1.8-1.1-3c0-1.2,0.4-2.1,1.1-3c0.7-0.8,1.7-1.2,2.9-1.2
								c1,0,1.8,0.3,2.5,0.8s1.1,1.2,1.2,2.1h-1.6c-0.1-0.5-0.3-0.8-0.7-1.1c-0.4-0.3-0.9-0.4-1.4-0.4c-0.8,0-1.4,0.3-1.8,0.8
								s-0.6,1.2-0.6,2c0,0.8,0.2,1.5,0.6,2c0.4,0.5,1,0.8,1.8,0.8c0.5,0,1-0.1,1.4-0.4c0.4-0.3,0.6-0.6,0.8-1.1h1.5
								c-0.1,0.9-0.5,1.5-1.2,2.1C101.4,22,100.5,22.3,99.5,22.3z"/>
							<path class="st4" d="M111.9,14.1v8.1h-1.6v-1.4c-0.2,0.5-0.5,0.9-1,1.2c-0.5,0.3-1,0.4-1.6,0.4c-0.9,0-1.6-0.3-2.2-0.9
								c-0.5-0.6-0.8-1.4-0.8-2.3v-5h1.6v4.7c0,0.6,0.2,1.2,0.5,1.6c0.3,0.4,0.8,0.6,1.4,0.6c0.6,0,1.1-0.2,1.6-0.7
								c0.4-0.5,0.6-1,0.6-1.7v-4.4H111.9z"/>
							<path class="st4" d="M118.5,15.4h-1.2c-1.3,0-2,1-2,3.1v3.6h-1.6v-8.1h1.6v1.6c0.2-0.5,0.4-0.9,0.8-1.2
								c0.3-0.2,0.8-0.4,1.4-0.4h1V15.4z"/>
							<path class="st4" d="M119.7,10.7h1.7v2h-1.7V10.7z M119.8,22.1v-8.1h1.6v8.1H119.8z"/>
							<path class="st4" d="M124.3,11.6h1.6v2.5h2.4v1.3h-2.4v4c0,0.4,0.1,0.8,0.3,1c0.2,0.2,0.5,0.4,0.9,0.4h1.1v1.3h-1.3
								c-0.8,0-1.5-0.2-2-0.7c-0.5-0.5-0.7-1.1-0.7-1.9v-4.1h-1.6v-1.3h1.6V11.6z"/>
							<path class="st4" d="M136.1,14.1l-2.8,7.8l-1.2,3.6h-1.5l1.1-3.2l-3-8.1h1.6l2.1,6l2.1-6H136.1z"/>
						</g>
					</g>
				</g>
				<g transform="translate(447.000000, 483.000000)">
					<g>
						<path class="st2" d="M6,0h201c3.3,0,6,2.7,6,6v24c0,3.3-2.7,6-6,6H6c-3.3,0-6-2.7-6-6V6C0,2.7,2.7,0,6,0z"/>
						<g class="st3">
							<path class="st4" d="M72.3,21.2c-0.8,0.7-1.8,1.1-3.1,1.1c-1.3,0-2.3-0.4-3.1-1.1c-0.8-0.7-1.2-1.7-1.2-3v-7.3h1.6v7.3
								c0,0.8,0.2,1.4,0.7,1.8c0.5,0.4,1.1,0.7,2,0.7c0.8,0,1.5-0.2,2-0.7c0.5-0.4,0.7-1.1,0.7-1.8v-7.3h1.6v7.3
								C73.5,19.5,73.1,20.5,72.3,21.2z"/>
							<path class="st4" d="M75.4,22.1v-8.1H77v1.4c0.2-0.5,0.5-0.9,1-1.2c0.5-0.3,1-0.4,1.6-0.4c0.9,0,1.6,0.3,2.2,0.9
								c0.5,0.6,0.8,1.4,0.8,2.3v5H81v-4.7c0-0.6-0.2-1.2-0.5-1.6s-0.8-0.6-1.4-0.6c-0.6,0-1.1,0.2-1.6,0.7c-0.4,0.5-0.6,1-0.6,1.7
								v4.4H75.4z"/>
							<path class="st4" d="M84.4,10.7h1.7v2h-1.7V10.7z M84.5,22.1v-8.1h1.6v8.1H84.5z"/>
							<path class="st4" d="M89,11.6h1.6v2.5h2.4v1.3h-2.4v4c0,0.4,0.1,0.8,0.3,1c0.2,0.2,0.5,0.4,0.9,0.4h1.1v1.3h-1.3
								c-0.8,0-1.5-0.2-2-0.7C89.2,21,89,20.3,89,19.5v-4.1h-1.6v-1.3H89V11.6z"/>
							<path class="st4" d="M100.6,22.1v-9.7h-3.5v-1.5h8.7v1.5h-3.5v9.7H100.6z"/>
							<path class="st4" d="M111.2,19.5h1.6c-0.1,0.8-0.6,1.5-1.2,2c-0.7,0.5-1.5,0.8-2.5,0.8c-1.2,0-2.2-0.4-2.9-1.2
								c-0.7-0.8-1.1-1.8-1.1-3c0-1.2,0.3-2.2,1-2.9c0.7-0.8,1.6-1.2,2.8-1.2c1.2,0,2.1,0.4,2.8,1.1s1,1.6,1,2.7c0,0.2,0,0.4,0,0.6
								h-6.2c0.1,0.8,0.3,1.4,0.8,1.9c0.5,0.5,1,0.7,1.7,0.7C110.3,20.9,111,20.5,111.2,19.5z M108.9,15.2c-1.3,0-2.1,0.7-2.3,2h4.6
								c-0.1-0.6-0.3-1.1-0.7-1.5S109.5,15.2,108.9,15.2z"/>
							<path class="st4" d="M117,22.3c-1,0-1.7-0.2-2.3-0.7s-0.9-1.2-1-2h1.5c0,0.5,0.2,0.8,0.5,1.1c0.3,0.3,0.7,0.4,1.3,0.4
								c0.4,0,0.8-0.1,1.1-0.3c0.3-0.2,0.4-0.5,0.4-0.8c0-0.4-0.2-0.7-0.5-0.9c-0.3-0.2-0.7-0.3-1.1-0.4c-0.4-0.1-0.9-0.1-1.3-0.2
								s-0.8-0.3-1.1-0.7c-0.3-0.3-0.5-0.8-0.5-1.5c0-0.7,0.3-1.3,0.8-1.7s1.2-0.6,2.1-0.6c0.9,0,1.6,0.2,2.2,0.7s0.9,1.1,0.9,1.8
								h-1.5c-0.1-0.4-0.3-0.7-0.6-1c-0.3-0.2-0.7-0.3-1.1-0.3c-0.4,0-0.8,0.1-1,0.3c-0.3,0.2-0.4,0.4-0.4,0.8
								c0,0.4,0.2,0.6,0.5,0.8s0.7,0.3,1.2,0.3c0.5,0,0.9,0.1,1.4,0.2s0.8,0.3,1.2,0.7c0.3,0.4,0.5,0.9,0.5,1.6
								c0,0.7-0.3,1.3-0.8,1.8C118.7,22.1,118,22.3,117,22.3z"/>
							<path class="st4" d="M122.5,11.6h1.6v2.5h2.4v1.3H124v4c0,0.4,0.1,0.8,0.3,1c0.2,0.2,0.5,0.4,0.9,0.4h1.1v1.3h-1.3
								c-0.8,0-1.5-0.2-2-0.7c-0.5-0.5-0.7-1.1-0.7-1.9v-4.1h-1.6v-1.3h1.6V11.6z"/>
							<path class="st4" d="M127.7,10.7h1.7v2h-1.7V10.7z M127.8,22.1v-8.1h1.6v8.1H127.8z"/>
							<path class="st4" d="M131.3,22.1v-8.1h1.6v1.4c0.2-0.5,0.5-0.9,1-1.2c0.5-0.3,1-0.4,1.6-0.4c0.9,0,1.6,0.3,2.2,0.9
								c0.5,0.6,0.8,1.4,0.8,2.3v5h-1.6v-4.7c0-0.6-0.2-1.2-0.5-1.6s-0.8-0.6-1.4-0.6c-0.6,0-1.1,0.2-1.6,0.7
								c-0.4,0.5-0.6,1-0.6,1.7v4.4H131.3z"/>
							<path class="st4" d="M146.4,14.1h1.6v8.4c0,0.8-0.3,1.5-0.8,2.1c-0.6,0.5-1.3,0.8-2.2,0.8h-3.9v-1.3h3.7
								c0.5,0,0.9-0.2,1.2-0.5s0.4-0.7,0.4-1.2v-1.3c-0.2,0.3-0.5,0.6-1,0.8c-0.5,0.2-1,0.3-1.6,0.3c-1.2,0-2.2-0.4-2.8-1.2
								c-0.7-0.8-1-1.8-1-3c0-1.2,0.3-2.2,1-3s1.6-1.2,2.8-1.2c0.5,0,1,0.1,1.5,0.3c0.5,0.2,0.8,0.5,1.1,0.9V14.1z M142.3,20.1
								c0.4,0.5,1,0.8,1.8,0.8c0.7,0,1.3-0.3,1.8-0.8c0.5-0.5,0.7-1.2,0.7-2c0-0.9-0.2-1.5-0.7-2c-0.5-0.5-1.1-0.8-1.8-0.8
								c-0.7,0-1.3,0.3-1.8,0.8c-0.4,0.5-0.7,1.2-0.7,2C141.6,19,141.8,19.6,142.3,20.1z"/>
						</g>
					</g>
				</g>
				<path id="Path-27-Copy" class="st0" d="M330,0v75"/>
				<g transform="translate(224.000000, 641.000000)">
					<g>
						<path class="st2" d="M6,0h201c3.3,0,6,2.7,6,6v24c0,3.3-2.7,6-6,6H6c-3.3,0-6-2.7-6-6V6C0,2.7,2.7,0,6,0z"/>
						<g class="st3">
							<path class="st4" d="M91.6,16.8c0.9,0.5,1.3,1.3,1.4,2.4l0.2,2.9h-1.6l-0.2-2.7c0-0.5-0.2-0.9-0.5-1.2
								c-0.3-0.3-0.7-0.5-1.2-0.5h-2.8v4.4h-1.7V10.9h4.4c1.1,0,2,0.3,2.7,0.9c0.7,0.6,1,1.4,1,2.4C93.3,15.4,92.7,16.3,91.6,16.8z
								 M86.9,12.4v3.9h2.7c0.7,0,1.2-0.2,1.5-0.6c0.3-0.4,0.5-0.8,0.5-1.4s-0.2-1-0.5-1.4c-0.3-0.4-0.8-0.5-1.5-0.5H86.9z"/>
							<path class="st4" d="M100.9,19.5h1.6c-0.1,0.8-0.6,1.5-1.2,2c-0.7,0.5-1.5,0.8-2.5,0.8c-1.2,0-2.2-0.4-2.9-1.2
								s-1.1-1.8-1.1-3c0-1.2,0.3-2.2,1-2.9c0.7-0.8,1.6-1.2,2.8-1.2c1.2,0,2.1,0.4,2.8,1.1c0.7,0.7,1,1.6,1,2.7c0,0.2,0,0.4,0,0.6
								h-6.2c0.1,0.8,0.3,1.4,0.8,1.9c0.5,0.5,1,0.7,1.7,0.7C99.9,20.9,100.7,20.5,100.9,19.5z M98.6,15.2c-1.3,0-2.1,0.7-2.3,2h4.6
								c-0.1-0.6-0.3-1.1-0.7-1.5S99.2,15.2,98.6,15.2z"/>
							<path class="st4" d="M110,14.1h1.6v8.4c0,0.8-0.3,1.5-0.8,2.1c-0.6,0.5-1.3,0.8-2.2,0.8h-3.9v-1.3h3.7c0.5,0,0.9-0.2,1.2-0.5
								c0.3-0.3,0.4-0.7,0.4-1.2v-1.3c-0.2,0.3-0.5,0.6-1,0.8c-0.5,0.2-1,0.3-1.6,0.3c-1.2,0-2.2-0.4-2.8-1.2c-0.7-0.8-1-1.8-1-3
								c0-1.2,0.3-2.2,1-3s1.6-1.2,2.8-1.2c0.5,0,1,0.1,1.5,0.3c0.5,0.2,0.8,0.5,1.1,0.9V14.1z M105.8,20.1c0.4,0.5,1,0.8,1.8,0.8
								c0.7,0,1.3-0.3,1.8-0.8c0.5-0.5,0.7-1.2,0.7-2c0-0.9-0.2-1.5-0.7-2c-0.5-0.5-1.1-0.8-1.8-0.8c-0.7,0-1.3,0.3-1.8,0.8
								c-0.4,0.5-0.7,1.2-0.7,2C105.2,19,105.4,19.6,105.8,20.1z"/>
							<path class="st4" d="M119.4,19.5h1.6c-0.1,0.8-0.6,1.5-1.2,2c-0.7,0.5-1.5,0.8-2.5,0.8c-1.2,0-2.2-0.4-2.9-1.2
								c-0.7-0.8-1.1-1.8-1.1-3c0-1.2,0.3-2.2,1-2.9c0.7-0.8,1.6-1.2,2.8-1.2c1.2,0,2.1,0.4,2.8,1.1s1,1.6,1,2.7c0,0.2,0,0.4,0,0.6
								h-6.2c0.1,0.8,0.3,1.4,0.8,1.9c0.5,0.5,1,0.7,1.7,0.7C118.4,20.9,119.1,20.5,119.4,19.5z M117,15.2c-1.3,0-2.1,0.7-2.3,2h4.6
								c-0.1-0.6-0.3-1.1-0.7-1.5S117.7,15.2,117,15.2z"/>
							<path class="st4" d="M128.7,22.1H127l-2.1-3l-2.1,3h-1.6l2.9-4.2l-2.7-3.8h1.7l1.8,2.6l1.8-2.6h1.7l-2.7,3.8L128.7,22.1z"/>
						</g>
					</g>
				</g>
				<g transform="translate(224.000000, 167.000000)">
					<g>
						<path class="st2" d="M6,0h201c3.3,0,6,2.7,6,6v24c0,3.3-2.7,6-6,6H6c-3.3,0-6-2.7-6-6V6C0,2.7,2.7,0,6,0z"/>
						<g class="st3">
							<path class="st4" d="M85.5,22.3c-1.3,0-2.3-0.3-3-1s-1.2-1.6-1.2-2.8h1.6c0.1,0.7,0.3,1.3,0.8,1.7c0.5,0.4,1.1,0.6,1.9,0.6
								c0.7,0,1.3-0.1,1.8-0.4c0.4-0.3,0.7-0.7,0.7-1.3c0-0.4-0.2-0.8-0.5-1c-0.3-0.3-0.7-0.5-1.2-0.6c-0.5-0.1-1-0.3-1.5-0.4
								s-1.1-0.4-1.5-0.6c-0.5-0.2-0.9-0.5-1.2-1s-0.5-1-0.5-1.6c0-0.9,0.4-1.6,1.1-2.2c0.7-0.6,1.6-0.8,2.8-0.8
								c1.1,0,2.1,0.3,2.8,0.9c0.7,0.6,1.1,1.4,1.2,2.5h-1.6c-0.1-0.6-0.3-1-0.7-1.4c-0.4-0.3-1-0.5-1.7-0.5c-0.7,0-1.2,0.1-1.6,0.4
								c-0.4,0.3-0.6,0.7-0.6,1.1c0,0.4,0.1,0.7,0.4,0.9c0.2,0.2,0.5,0.4,0.9,0.6c0.4,0.1,0.8,0.2,1.2,0.4c0.5,0.1,0.9,0.2,1.4,0.4
								c0.5,0.1,0.9,0.3,1.2,0.6s0.7,0.5,0.9,0.9c0.2,0.4,0.4,0.9,0.4,1.5c0,1-0.4,1.8-1.1,2.4C87.7,22,86.7,22.3,85.5,22.3z"/>
							<path class="st4" d="M92,11.6h1.6v2.5h2.4v1.3h-2.4v4c0,0.4,0.1,0.8,0.3,1c0.2,0.2,0.5,0.4,0.9,0.4h1.1v1.3h-1.3
								c-0.8,0-1.5-0.2-2-0.7C92.3,21,92,20.3,92,19.5v-4.1h-1.6v-1.3H92V11.6z"/>
							<path class="st4" d="M100.2,14c1,0,1.9,0.3,2.5,0.8c0.6,0.5,1,1.3,1,2.2v5.2h-1.6v-1.3c-0.2,0.4-0.5,0.8-1,1
								c-0.5,0.3-1,0.4-1.6,0.4c-0.8,0-1.5-0.2-2-0.7c-0.5-0.4-0.8-1-0.8-1.8c0-0.8,0.3-1.4,0.8-1.8s1.3-0.7,2.3-0.7h1.7
								c0.4,0,0.5-0.2,0.5-0.5c0-0.5-0.2-0.9-0.5-1.2s-0.8-0.4-1.4-0.4c-0.5,0-1,0.1-1.4,0.4c-0.4,0.3-0.6,0.7-0.6,1.1h-1.4
								c0.1-0.8,0.4-1.5,1.1-2C98.5,14.2,99.3,14,100.2,14z M99.8,21c0.7,0,1.3-0.2,1.7-0.7c0.4-0.4,0.6-1,0.6-1.8v-0.2H100
								c-0.5,0-1,0.1-1.3,0.4c-0.3,0.2-0.5,0.6-0.5,1c0,0.4,0.1,0.7,0.4,0.9S99.3,21,99.8,21z"/>
							<path class="st4" d="M111.5,14.1h1.6v8.4c0,0.8-0.3,1.5-0.8,2.1c-0.6,0.5-1.3,0.8-2.2,0.8h-3.9v-1.3h3.7
								c0.5,0,0.9-0.2,1.2-0.5c0.3-0.3,0.4-0.7,0.4-1.2v-1.3c-0.2,0.3-0.5,0.6-1,0.8c-0.5,0.2-1,0.3-1.6,0.3c-1.2,0-2.2-0.4-2.8-1.2
								c-0.7-0.8-1-1.8-1-3c0-1.2,0.3-2.2,1-3c0.7-0.8,1.6-1.2,2.8-1.2c0.5,0,1,0.1,1.5,0.3c0.5,0.2,0.8,0.5,1.1,0.9V14.1z
								 M107.3,20.1c0.4,0.5,1,0.8,1.8,0.8c0.7,0,1.3-0.3,1.8-0.8c0.5-0.5,0.7-1.2,0.7-2c0-0.9-0.2-1.5-0.7-2
								c-0.5-0.5-1.1-0.8-1.8-0.8c-0.7,0-1.3,0.3-1.8,0.8c-0.4,0.5-0.7,1.2-0.7,2C106.7,19,106.9,19.6,107.3,20.1z"/>
							<path class="st4" d="M120.8,19.5h1.6c-0.1,0.8-0.6,1.5-1.2,2c-0.7,0.5-1.5,0.8-2.5,0.8c-1.2,0-2.2-0.4-2.9-1.2
								c-0.7-0.8-1.1-1.8-1.1-3c0-1.2,0.3-2.2,1-2.9c0.7-0.8,1.6-1.2,2.8-1.2c1.2,0,2.1,0.4,2.8,1.1s1,1.6,1,2.7c0,0.2,0,0.4,0,0.6
								h-6.2c0.1,0.8,0.3,1.4,0.8,1.9c0.5,0.5,1,0.7,1.7,0.7C119.9,20.9,120.6,20.5,120.8,19.5z M118.5,15.2c-1.3,0-2.1,0.7-2.3,2
								h4.6c-0.1-0.6-0.3-1.1-0.7-1.5S119.2,15.2,118.5,15.2z"/>
							<path class="st4" d="M131.2,10.9v11.2h-1.7v-8.6c-0.2,0.3-0.6,0.4-1.1,0.4h-1v-1.5h0.9c0.4,0,0.7-0.1,0.9-0.3
								s0.3-0.6,0.4-1.2H131.2z"/>
						</g>
					</g>
				</g>
				<g transform="translate(224.000000, 799.000000)">
					<g>
						<path class="st2" d="M6,0h201c3.3,0,6,2.7,6,6v24c0,3.3-2.7,6-6,6H6c-3.3,0-6-2.7-6-6V6C0,2.7,2.7,0,6,0z"/>
						<g class="st3">
							<path class="st4" d="M31.4,22.1V10.9h4.1c1.1,0,1.9,0.3,2.5,0.8c0.6,0.5,0.9,1.2,0.9,2.1c0,0.5-0.1,0.9-0.4,1.3
								c-0.3,0.4-0.6,0.7-1,0.9c0.6,0.2,1.1,0.6,1.4,1c0.4,0.5,0.5,1.1,0.5,1.8c0,1-0.3,1.8-1,2.4c-0.7,0.6-1.6,0.9-2.8,0.9H31.4z
								 M33,15.5h2.4c1.3,0,1.9-0.5,1.9-1.6c0-1-0.6-1.6-1.9-1.6H33V15.5z M33,20.7h2.5c1.6,0,2.3-0.6,2.3-1.9s-0.8-1.9-2.3-1.9H33
								V20.7z"/>
							<path class="st4" d="M48.3,14.1v8.1h-1.6v-1.4c-0.2,0.5-0.5,0.9-1,1.2c-0.5,0.3-1,0.4-1.6,0.4c-0.9,0-1.6-0.3-2.2-0.9
								c-0.5-0.6-0.8-1.4-0.8-2.3v-5h1.6v4.7c0,0.6,0.2,1.2,0.5,1.6c0.3,0.4,0.8,0.6,1.4,0.6c0.6,0,1.1-0.2,1.6-0.7
								c0.4-0.5,0.6-1,0.6-1.7v-4.4H48.3z"/>
							<path class="st4" d="M50.2,10.7h1.7v2h-1.7V10.7z M50.3,22.1v-8.1h1.6v8.1H50.3z"/>
							<path class="st4" d="M53.9,22.1V10.7h1.6v11.4H53.9z"/>
							<path class="st4" d="M60.9,22.3c-1.2,0-2.2-0.4-2.8-1.2c-0.7-0.8-1-1.8-1-3c0-1.2,0.3-2.2,1-3s1.6-1.2,2.8-1.2
								c0.5,0,1,0.1,1.5,0.4c0.5,0.2,0.8,0.6,1.1,1v-4.6H65v11.4h-1.6v-1.2c-0.2,0.4-0.6,0.7-1.1,1C61.9,22.2,61.4,22.3,60.9,22.3z
								 M59.3,20.1c0.4,0.5,1,0.8,1.8,0.8c0.7,0,1.3-0.3,1.8-0.8c0.5-0.5,0.7-1.2,0.7-2c0-0.8-0.2-1.5-0.7-2
								c-0.5-0.5-1.1-0.8-1.8-0.8c-0.7,0-1.3,0.3-1.8,0.8c-0.4,0.5-0.7,1.2-0.7,2C58.6,19,58.8,19.6,59.3,20.1z"/>
							<path class="st4" d="M66.9,10.7h1.7v2h-1.7V10.7z M67,22.1v-8.1h1.6v8.1H67z"/>
							<path class="st4" d="M70.5,22.1v-8.1h1.6v1.4c0.2-0.5,0.5-0.9,1-1.2c0.5-0.3,1-0.4,1.6-0.4c0.9,0,1.6,0.3,2.2,0.9
								s0.8,1.4,0.8,2.3v5h-1.6v-4.7c0-0.6-0.2-1.2-0.5-1.6s-0.8-0.6-1.4-0.6c-0.6,0-1.1,0.2-1.6,0.7c-0.4,0.5-0.6,1-0.6,1.7v4.4
								H70.5z"/>
							<path class="st4" d="M85.7,14.1h1.6v8.4c0,0.8-0.3,1.5-0.8,2.1c-0.6,0.5-1.3,0.8-2.2,0.8h-3.9v-1.3h3.7
								c0.5,0,0.9-0.2,1.2-0.5c0.3-0.3,0.4-0.7,0.4-1.2v-1.3c-0.2,0.3-0.5,0.6-1,0.8c-0.5,0.2-1,0.3-1.6,0.3c-1.2,0-2.2-0.4-2.8-1.2
								c-0.7-0.8-1-1.8-1-3c0-1.2,0.3-2.2,1-3s1.6-1.2,2.8-1.2c0.5,0,1,0.1,1.5,0.3c0.5,0.2,0.8,0.5,1.1,0.9V14.1z M81.5,20.1
								c0.4,0.5,1,0.8,1.8,0.8s1.3-0.3,1.8-0.8c0.5-0.5,0.7-1.2,0.7-2c0-0.9-0.2-1.5-0.7-2c-0.5-0.5-1.1-0.8-1.8-0.8
								s-1.3,0.3-1.8,0.8c-0.4,0.5-0.7,1.2-0.7,2C80.9,19,81.1,19.6,81.5,20.1z"/>
							<path class="st4" d="M96.1,14c1,0,1.9,0.3,2.5,0.8c0.6,0.5,1,1.3,1,2.2v5.2h-1.6v-1.3c-0.2,0.4-0.5,0.8-1,1
								c-0.5,0.3-1,0.4-1.6,0.4c-0.8,0-1.5-0.2-2-0.7c-0.5-0.4-0.8-1-0.8-1.8c0-0.8,0.3-1.4,0.8-1.8s1.3-0.7,2.3-0.7h1.7
								c0.4,0,0.5-0.2,0.5-0.5c0-0.5-0.2-0.9-0.5-1.2s-0.8-0.4-1.4-0.4c-0.5,0-1,0.1-1.4,0.4c-0.4,0.3-0.6,0.7-0.6,1.1h-1.4
								c0.1-0.8,0.4-1.5,1.1-2C94.4,14.2,95.2,14,96.1,14z M95.7,21c0.7,0,1.3-0.2,1.7-0.7c0.4-0.4,0.6-1,0.6-1.8v-0.2H96
								c-0.5,0-1,0.1-1.3,0.4c-0.3,0.2-0.5,0.6-0.5,1c0,0.4,0.1,0.7,0.4,0.9S95.3,21,95.7,21z"/>
							<path class="st4" d="M106,22.1v-6.7h-1.6v-1.3h1.6v-0.8c0-0.8,0.2-1.4,0.7-1.9c0.5-0.5,1.1-0.7,1.9-0.7h1.3v1.3h-1.2
								c-0.4,0-0.7,0.1-0.9,0.4c-0.2,0.2-0.3,0.5-0.3,0.9v0.7h2.4v1.3h-2.4v6.7H106z"/>
							<path class="st4" d="M116,15.4h-1.2c-1.3,0-2,1-2,3.1v3.6h-1.6v-8.1h1.6v1.6c0.2-0.5,0.4-0.9,0.8-1.2
								c0.3-0.2,0.8-0.4,1.4-0.4h1V15.4z"/>
							<path class="st4" d="M120.2,14c1,0,1.9,0.3,2.5,0.8c0.6,0.5,1,1.3,1,2.2v5.2h-1.6v-1.3c-0.2,0.4-0.5,0.8-1,1
								c-0.5,0.3-1,0.4-1.6,0.4c-0.8,0-1.5-0.2-2-0.7c-0.5-0.4-0.8-1-0.8-1.8c0-0.8,0.3-1.4,0.8-1.8s1.3-0.7,2.3-0.7h1.7
								c0.4,0,0.5-0.2,0.5-0.5c0-0.5-0.2-0.9-0.5-1.2s-0.8-0.4-1.4-0.4c-0.5,0-1,0.1-1.4,0.4s-0.6,0.7-0.6,1.1h-1.4
								c0.1-0.8,0.4-1.5,1.1-2C118.4,14.2,119.2,14,120.2,14z M119.8,21c0.7,0,1.3-0.2,1.7-0.7c0.4-0.4,0.6-1,0.6-1.8v-0.2H120
								c-0.5,0-1,0.1-1.3,0.4c-0.3,0.2-0.5,0.6-0.5,1c0,0.4,0.1,0.7,0.4,0.9S119.3,21,119.8,21z"/>
							<path class="st4" d="M125.4,22.1v-8.1h1.6v1.4c0.2-0.5,0.5-0.8,0.9-1.1c0.4-0.3,0.9-0.4,1.5-0.4c0.7,0,1.2,0.1,1.7,0.4
								c0.5,0.3,0.8,0.7,0.9,1.2c0.2-0.5,0.5-0.9,1-1.2c0.5-0.3,1-0.5,1.6-0.5c0.9,0,1.6,0.3,2.1,0.8c0.5,0.6,0.8,1.3,0.8,2.2v5.1
								h-1.6v-4.7c0-0.7-0.2-1.2-0.5-1.6s-0.7-0.6-1.3-0.6c-0.6,0-1.1,0.2-1.4,0.6c-0.4,0.4-0.5,0.9-0.5,1.6v4.7h-1.6v-4.7
								c0-0.7-0.2-1.2-0.5-1.6c-0.3-0.4-0.7-0.6-1.2-0.6c-0.6,0-1.1,0.2-1.4,0.6s-0.5,0.9-0.5,1.6v4.7H125.4z"/>
							<path class="st4" d="M145.2,19.5h1.6c-0.2,0.8-0.6,1.5-1.2,2c-0.7,0.5-1.5,0.8-2.5,0.8c-1.2,0-2.2-0.4-2.9-1.2
								c-0.7-0.8-1.1-1.8-1.1-3c0-1.2,0.3-2.2,1-2.9c0.7-0.8,1.6-1.2,2.8-1.2c1.2,0,2.1,0.4,2.8,1.1c0.7,0.7,1,1.6,1,2.7
								c0,0.2,0,0.4,0,0.6h-6.2c0.1,0.8,0.3,1.4,0.8,1.9c0.5,0.5,1,0.7,1.7,0.7C144.2,20.9,144.9,20.5,145.2,19.5z M142.8,15.2
								c-1.3,0-2.1,0.7-2.3,2h4.6c-0.1-0.6-0.3-1.1-0.7-1.5S143.5,15.2,142.8,15.2z"/>
							<path class="st4" d="M149.8,22.1l-2.5-8.1h1.6l1.7,6l1.8-6h1.5l1.8,6l1.6-6h1.6l-2.5,8.1h-1.4l-1.8-6l-1.8,6H149.8z"/>
							<path class="st4" d="M166.5,21.1c-0.8,0.8-1.8,1.2-3,1.2c-1.2,0-2.2-0.4-3-1.2s-1.2-1.8-1.2-3c0-1.2,0.4-2.2,1.2-3
								c0.8-0.8,1.8-1.2,3-1.2c1.2,0,2.2,0.4,3,1.2c0.8,0.8,1.2,1.8,1.2,3C167.6,19.3,167.3,20.3,166.5,21.1z M163.5,20.9
								c0.8,0,1.4-0.3,1.8-0.8s0.7-1.2,0.7-2s-0.2-1.5-0.7-2s-1.1-0.8-1.8-0.8c-0.8,0-1.4,0.3-1.9,0.8s-0.7,1.2-0.7,2s0.2,1.5,0.7,2
								S162.7,20.9,163.5,20.9z"/>
							<path class="st4" d="M173.8,15.4h-1.2c-1.3,0-2,1-2,3.1v3.6h-1.6v-8.1h1.6v1.6c0.2-0.5,0.4-0.9,0.8-1.2
								c0.3-0.2,0.8-0.4,1.4-0.4h1V15.4z"/>
							<path class="st4" d="M180.7,22.1l-2.9-3.9l-1,0.9v2.9h-1.6V10.7h1.6v6.6l3.5-3.2h2l-3.4,3.2l3.7,4.9H180.7z"/>
						</g>
					</g>
				</g>
				<g transform="translate(224.000000, 957.000000)">
					<g>
						<path class="st2" d="M6,0h201c3.3,0,6,2.7,6,6v24c0,3.3-2.7,6-6,6H6c-3.3,0-6-2.7-6-6V6C0,2.7,2.7,0,6,0z"/>
						<g class="st3">
							<path class="st4" d="M74.8,22.1V10.9h4.3c1.1,0,2,0.3,2.6,0.9c0.7,0.6,1,1.4,1,2.4c0,1-0.3,1.8-1,2.4
								c-0.7,0.6-1.5,0.9-2.6,0.9h-2.7v4.4H74.8z M76.5,16.3h2.6c0.7,0,1.2-0.2,1.5-0.5c0.3-0.4,0.5-0.8,0.5-1.4s-0.2-1-0.5-1.4
								c-0.3-0.4-0.8-0.5-1.5-0.5h-2.6V16.3z"/>
							<path class="st4" d="M88.8,15.4h-1.2c-1.3,0-2,1-2,3.1v3.6h-1.6v-8.1h1.6v1.6c0.2-0.5,0.4-0.9,0.8-1.2
								c0.3-0.2,0.8-0.4,1.4-0.4h1V15.4z"/>
							<path class="st4" d="M96.5,21.1c-0.8,0.8-1.8,1.2-3,1.2c-1.2,0-2.2-0.4-3-1.2c-0.8-0.8-1.2-1.8-1.2-3c0-1.2,0.4-2.2,1.2-3
								c0.8-0.8,1.8-1.2,3-1.2c1.2,0,2.2,0.4,3,1.2c0.8,0.8,1.2,1.8,1.2,3C97.6,19.3,97.2,20.3,96.5,21.1z M93.5,20.9
								c0.8,0,1.4-0.3,1.8-0.8c0.5-0.5,0.7-1.2,0.7-2s-0.2-1.5-0.7-2c-0.5-0.5-1.1-0.8-1.8-0.8c-0.8,0-1.4,0.3-1.9,0.8
								c-0.5,0.5-0.7,1.2-0.7,2s0.2,1.5,0.7,2C92.1,20.7,92.7,20.9,93.5,20.9z"/>
							<path class="st4" d="M99.1,14.1h1.5v8.7c0,0.9-0.2,1.5-0.6,2s-1,0.7-1.9,0.7h-0.8v-1.3h0.6c0.4,0,0.7-0.1,0.9-0.3
								c0.1-0.2,0.2-0.6,0.2-1.1V14.1z M99.1,10.7h1.7v2h-1.7V10.7z"/>
							<path class="st4" d="M108.4,19.5h1.6c-0.2,0.8-0.6,1.5-1.2,2c-0.7,0.5-1.5,0.8-2.5,0.8c-1.2,0-2.2-0.4-2.9-1.2
								s-1.1-1.8-1.1-3c0-1.2,0.3-2.2,1-2.9c0.7-0.8,1.6-1.2,2.8-1.2c1.2,0,2.1,0.4,2.8,1.1c0.7,0.7,1,1.6,1,2.7c0,0.2,0,0.4,0,0.6
								h-6.2c0.1,0.8,0.3,1.4,0.8,1.9c0.5,0.5,1,0.7,1.7,0.7C107.5,20.9,108.2,20.5,108.4,19.5z M106.1,15.2c-1.3,0-2.1,0.7-2.3,2
								h4.6c-0.1-0.6-0.3-1.1-0.7-1.5S106.8,15.2,106.1,15.2z"/>
							<path class="st4" d="M115,22.3c-1.2,0-2.2-0.4-2.9-1.2c-0.7-0.8-1.1-1.8-1.1-3c0-1.2,0.4-2.1,1.1-3c0.7-0.8,1.7-1.2,2.9-1.2
								c1,0,1.8,0.3,2.5,0.8c0.7,0.5,1.1,1.2,1.2,2.1h-1.6c-0.1-0.5-0.3-0.8-0.7-1.1c-0.4-0.3-0.9-0.4-1.4-0.4
								c-0.8,0-1.4,0.3-1.8,0.8s-0.6,1.2-0.6,2c0,0.8,0.2,1.5,0.6,2c0.4,0.5,1,0.8,1.8,0.8c0.5,0,1-0.1,1.4-0.4
								c0.4-0.3,0.6-0.6,0.8-1.1h1.5c-0.1,0.9-0.5,1.5-1.2,2.1C116.9,22,116,22.3,115,22.3z"/>
							<path class="st4" d="M121.1,11.6h1.6v2.5h2.4v1.3h-2.4v4c0,0.4,0.1,0.8,0.3,1c0.2,0.2,0.5,0.4,0.9,0.4h1.1v1.3h-1.3
								c-0.8,0-1.5-0.2-2-0.7c-0.5-0.5-0.7-1.1-0.7-1.9v-4.1h-1.6v-1.3h1.6V11.6z"/>
							<path class="st4" d="M135.4,22.1v-2.6h-5.9v-1.5l5.7-7.1h1.9v7.1h1.6v1.5h-1.6v2.6H135.4z M131.3,18.1h4.2v-5.2L131.3,18.1z"
								/>
						</g>
					</g>
				</g>
			</g>
			<polyline id="Path-37-Copy-38" class="st0" points="320,1050 330,1060 340,1050 			"/>
		</g>
	</g>
</g>
</svg>
